<svg width="80" height="60" viewBox="0 0 80 60" fill="none" xmlns="http://www.w3.org/2000/svg">
<path d="M40 50C51.0457 50 60 41.0457 60 30C60 18.9543 51.0457 10 40 10C28.9543 10 20 18.9543 20 30C20 41.0457 28.9543 50 40 50Z" stroke="#494A4B"/>
<path d="M38.6715 33.4972V33.0369C38.6772 32.1392 38.7766 31.4091 38.9698 30.8466C39.163 30.2841 39.4471 29.8097 39.8221 29.4233C40.2028 29.0312 40.6744 28.6562 41.2369 28.2983C41.6573 28.0256 42.0096 27.7386 42.2937 27.4375C42.5835 27.1307 42.8022 26.7955 42.9499 26.4318C43.1033 26.0625 43.18 25.6619 43.18 25.2301C43.18 24.6165 43.0352 24.0795 42.7454 23.6193C42.4613 23.1591 42.0749 22.804 41.5863 22.554C41.0977 22.2983 40.555 22.1705 39.9585 22.1705C39.3903 22.1705 38.859 22.2955 38.3647 22.5455C37.8761 22.7898 37.4755 23.1534 37.163 23.6364C36.8562 24.1136 36.6886 24.7045 36.6602 25.4091H35.0494C35.0778 24.4716 35.3107 23.6591 35.7482 22.9716C36.1857 22.2841 36.771 21.7528 37.5039 21.3778C38.2369 20.9972 39.055 20.8068 39.9585 20.8068C40.9016 20.8068 41.7312 21.0028 42.4471 21.3949C43.163 21.7812 43.7227 22.3125 44.1261 22.9886C44.5295 23.6591 44.7312 24.429 44.7312 25.2983C44.7312 25.8722 44.6403 26.3949 44.4585 26.8665C44.2766 27.3381 44.0039 27.7727 43.6403 28.1705C43.2823 28.5682 42.8335 28.9432 42.2937 29.2955C41.7823 29.6364 41.3761 29.9744 41.0749 30.3097C40.7738 30.6449 40.5579 31.0284 40.4272 31.4602C40.2965 31.8864 40.2255 32.4119 40.2141 33.0369V33.4972H38.6715ZM39.4897 38.6278C39.1545 38.6278 38.8647 38.5085 38.6204 38.2699C38.3817 38.0256 38.2624 37.7358 38.2624 37.4006C38.2624 37.0597 38.3817 36.7699 38.6204 36.5312C38.8647 36.2926 39.1545 36.1733 39.4897 36.1733C39.8249 36.1733 40.1119 36.2926 40.3505 36.5312C40.5948 36.7699 40.717 37.0597 40.717 37.4006C40.717 37.6222 40.6602 37.8267 40.5465 38.0142C40.4386 38.2017 40.2908 38.3523 40.1033 38.4659C39.9215 38.5739 39.717 38.6278 39.4897 38.6278Z" fill="#494A4B"/>
</svg>
