<svg width="123" height="111" viewBox="0 0 123 111" fill="none" xmlns="http://www.w3.org/2000/svg">
<path d="M67.6014 0.00662605C66.6473 0.00662605 65.7065 0.00662281 64.7657 0.0861279C63.8249 0.165633 62.8841 0.00662605 61.93 0.00662605C60.9759 0.00662605 60.0352 0.00662281 59.1076 0.0861279C58.1801 0.165633 57.226 0.00662605 56.2719 0.00662605C48.9235 -0.107017 41.6258 1.24217 34.8038 3.97569C27.9818 6.70922 21.7716 10.7725 16.5348 15.9289C11.2981 21.0853 7.13927 27.2319 4.30058 34.0108C1.46189 40.7898 0 48.0657 0 55.415C0 62.7643 1.46189 70.0402 4.30058 76.8192C7.13927 83.5981 11.2981 89.7447 16.5348 94.9011C21.7716 100.058 27.9818 104.121 34.8038 106.854C41.6258 109.588 48.9235 110.937 56.2719 110.823C57.226 110.823 58.1668 110.823 59.1076 110.757C60.0484 110.691 60.9892 110.823 61.93 110.823C62.8708 110.823 63.8249 110.823 64.7657 110.757C65.7065 110.691 66.6473 110.823 67.6014 110.823C82.1482 110.598 96.0231 104.662 106.231 94.2952C116.438 83.9286 122.16 69.9635 122.16 55.415C122.16 40.8664 116.438 26.9014 106.231 16.5348C96.0231 6.16817 82.1482 0.231591 67.6014 0.00662605V0.00662605ZM8.51587 55.4216C8.52945 44.0895 12.1396 33.0541 18.8264 23.9051C25.5131 14.7561 34.9313 7.96568 45.7243 4.5119C35.7699 8.78841 27.2878 15.8897 21.3277 24.9371C15.3675 33.9845 12.191 44.5808 12.191 55.415C12.191 66.2491 15.3675 76.8455 21.3277 85.8929C27.2878 94.9403 35.7699 102.042 45.7243 106.318C34.9323 102.867 25.5146 96.0788 18.8277 86.9321C12.1409 77.7853 8.53021 66.752 8.51587 55.4216V55.4216ZM6.52825 55.4216C6.54073 66.251 9.72146 76.8401 15.6784 85.8838C21.6354 94.9276 30.1083 102.031 40.0529 106.318C29.2532 102.879 19.8273 96.0947 13.1384 86.9452C6.44945 77.7956 2.84427 66.7555 2.84427 55.4216C2.84427 44.0877 6.44945 33.0477 13.1384 23.8981C19.8273 14.7485 29.2532 7.96375 40.0529 4.52513C30.1162 8.81757 21.6525 15.9236 15.705 24.9673C9.75741 34.0111 6.58588 44.5974 6.58126 55.4216H6.52825ZM67.6014 108.836C57.0333 108.838 46.7018 105.707 37.9137 99.8372C29.1256 93.9675 22.2757 85.6234 18.2302 75.8603C14.1848 66.0972 13.1256 55.3536 15.1867 44.9885C17.2478 34.6233 22.3365 25.1023 29.8093 17.6295C37.282 10.1567 46.8031 5.06804 57.1682 3.00695C67.5334 0.945865 78.2769 2.00499 88.04 6.05042C97.8032 10.0959 106.147 16.9458 112.017 25.734C117.887 34.5221 121.018 44.8535 121.016 55.4216C120.998 69.5825 115.365 83.1584 105.352 93.1717C95.3382 103.185 81.7623 108.818 67.6014 108.836Z" fill="black"/>
<path d="M100.517 20.1611C100.331 20.3475 100.226 20.6 100.226 20.8634C100.226 21.1268 100.331 21.3794 100.517 21.5657C100.705 21.7526 100.96 21.8575 101.226 21.8575C101.491 21.8575 101.746 21.7526 101.935 21.5657C102.121 21.3794 102.225 21.1268 102.225 20.8634C102.225 20.6 102.121 20.3475 101.935 20.1611C101.842 20.067 101.732 19.9922 101.61 19.9411C101.488 19.8901 101.358 19.8638 101.226 19.8638C101.094 19.8638 100.963 19.8901 100.841 19.9411C100.72 19.9922 100.609 20.067 100.517 20.1611V20.1611Z" fill="black"/>
<path d="M105.605 83.4741C105.467 83.68 105.411 83.9301 105.448 84.1752C105.484 84.4204 105.611 84.6429 105.804 84.7992C105.976 84.9274 106.185 84.997 106.4 84.998C106.556 84.9975 106.709 84.96 106.847 84.8886C106.985 84.8172 107.105 84.7139 107.195 84.5872C107.353 84.3763 107.421 84.1113 107.384 83.8504C107.347 83.5895 107.207 83.354 106.996 83.1959C106.775 83.0493 106.504 82.9962 106.243 83.0484C105.983 83.1005 105.753 83.2535 105.605 83.4741Z" fill="black"/>
<path d="M103.22 22.878C103.12 22.963 103.038 23.0672 102.979 23.1845C102.92 23.3017 102.885 23.4297 102.876 23.5607C102.868 23.6917 102.885 23.8231 102.928 23.9471C102.971 24.0711 103.039 24.1852 103.127 24.2826V24.2826C103.221 24.3904 103.337 24.4769 103.467 24.5363C103.598 24.5957 103.739 24.6267 103.882 24.6271C104.123 24.628 104.355 24.5381 104.532 24.3753C104.73 24.1996 104.851 23.9522 104.867 23.6876C104.883 23.4229 104.793 23.1627 104.618 22.9641C104.442 22.7656 104.195 22.645 103.93 22.6288C103.665 22.6127 103.405 22.7023 103.206 22.878H103.22Z" fill="black"/>
<path d="M107.711 80.3728C107.586 80.5926 107.548 80.8521 107.608 81.0984C107.667 81.3447 107.818 81.5591 108.029 81.6979C108.188 81.7981 108.372 81.8489 108.559 81.8436C108.727 81.8451 108.892 81.8032 109.038 81.7219C109.184 81.6406 109.307 81.5227 109.394 81.3798C109.51 81.1577 109.538 80.9 109.472 80.6584C109.405 80.4168 109.251 80.209 109.038 80.0767C108.825 79.9444 108.57 79.8973 108.324 79.9448C108.078 79.9923 107.86 80.131 107.711 80.333V80.3728Z" fill="black"/>
<path d="M92.7913 97.7182C93.008 97.5838 93.1638 97.3702 93.2256 97.1229C93.2875 96.8755 93.2505 96.6137 93.1226 96.3932C92.988 96.1768 92.7754 96.0204 92.5288 95.9563C92.2822 95.8922 92.0204 95.9252 91.7975 96.0486C91.5836 96.1854 91.4293 96.3979 91.3654 96.6436C91.3015 96.8893 91.3328 97.1501 91.453 97.3737C91.5455 97.5186 91.6728 97.6381 91.8232 97.7214C91.9736 97.8047 92.1424 97.8491 92.3143 97.8508C92.4819 97.8475 92.646 97.8019 92.7913 97.7182Z" fill="black"/>
<path d="M78.1358 7.32131C78.0044 7.28063 77.866 7.26766 77.7293 7.28326C77.5926 7.29886 77.4607 7.34269 77.3418 7.41193C77.2229 7.48118 77.1197 7.57434 77.0387 7.68554C76.9577 7.79674 76.9007 7.92351 76.8712 8.0579C76.8417 8.19228 76.8405 8.33132 76.8676 8.4662C76.8946 8.60109 76.9494 8.7289 77.0284 8.84151C77.1074 8.95413 77.209 9.04912 77.3266 9.12046C77.4442 9.19179 77.5754 9.23791 77.7118 9.25592C77.7818 9.26985 77.8538 9.26985 77.9238 9.25592C78.1493 9.25273 78.3672 9.17397 78.5426 9.03222C78.718 8.89047 78.8407 8.69393 78.8911 8.47413C78.9387 8.2216 78.8866 7.96045 78.7458 7.74551C78.6049 7.53057 78.3863 7.37854 78.1358 7.32131V7.32131Z" fill="black"/>
<path d="M66.422 6.24751C66.1585 6.24751 65.9057 6.35221 65.7193 6.53858C65.5329 6.72496 65.4282 6.97774 65.4282 7.24132C65.4282 7.5049 65.5329 7.75768 65.7193 7.94406C65.9057 8.13043 66.1585 8.23513 66.422 8.23513V8.23513C66.5525 8.22817 66.6804 8.19559 66.7983 8.13921C66.9162 8.08284 67.0219 8.00378 67.1092 7.90657C67.1966 7.80937 67.264 7.69591 67.3075 7.57267C67.351 7.44943 67.3698 7.31881 67.3628 7.1883C67.3559 7.0578 67.3233 6.92994 67.2669 6.81203C67.2105 6.69411 67.1315 6.58846 67.0343 6.5011C66.9371 6.41373 66.8236 6.34638 66.7004 6.30287C66.5771 6.25935 66.4465 6.24055 66.316 6.24751H66.422Z" fill="black"/>
<path d="M80.6539 8.96416C80.6151 9.08943 80.6014 9.22115 80.6138 9.35172C80.6261 9.48228 80.6642 9.60913 80.7258 9.72492C80.7873 9.84071 80.8713 9.94314 80.9726 10.0263C81.074 10.1096 81.1908 10.1719 81.3164 10.2097C81.4131 10.2235 81.5112 10.2235 81.6079 10.2097C81.8212 10.209 82.0285 10.1388 82.1983 10.0096C82.3681 9.88052 82.4911 9.69955 82.5487 9.49418C82.5972 9.2517 82.5535 8.99988 82.4262 8.78788C82.2989 8.57589 82.0972 8.41896 81.8604 8.34775C81.6236 8.27655 81.3687 8.2962 81.1456 8.40283C80.9225 8.50946 80.7472 8.69542 80.6539 8.9244V8.96416Z" fill="black"/>
<path d="M63.8513 103.403C63.8754 103.144 63.797 102.886 63.6331 102.684C63.4692 102.483 63.2327 102.353 62.9744 102.324C62.7162 102.294 62.4566 102.367 62.2515 102.527C62.0463 102.686 61.9119 102.92 61.877 103.178C61.8509 103.441 61.9294 103.704 62.0955 103.91C62.2616 104.115 62.502 104.248 62.7648 104.278H62.8708C63.1135 104.279 63.3481 104.19 63.5292 104.029C63.7103 103.867 63.8251 103.644 63.8513 103.403V103.403Z" fill="black"/>
<path d="M70.3577 6.27428C70.2203 6.25267 70.0799 6.26014 69.9456 6.29619C69.8113 6.33225 69.6861 6.39612 69.578 6.48363C69.4699 6.57114 69.3813 6.68035 69.3181 6.80422C69.2549 6.9281 69.2184 7.06387 69.2109 7.20274C69.2034 7.34162 69.2252 7.48051 69.2748 7.61044C69.3244 7.74037 69.4008 7.85846 69.4989 7.95704C69.597 8.05562 69.7146 8.13253 69.8443 8.18277C69.974 8.233 70.1128 8.25546 70.2517 8.24868V8.24868C70.5063 8.24904 70.7514 8.15163 70.9364 7.97657C71.1213 7.80151 71.2319 7.56212 71.2455 7.30784C71.2604 7.05409 71.1761 6.80451 71.0104 6.61169C70.8448 6.41888 70.6108 6.29789 70.3577 6.27428Z" fill="black"/>
<path d="M91.2541 13.3633C91.1661 13.5156 91.1196 13.6883 91.1191 13.8642C91.1187 14.04 91.1642 14.213 91.2513 14.3658C91.3384 14.5185 91.4641 14.6458 91.6156 14.735C91.7672 14.8241 91.9395 14.8721 92.1154 14.8739C92.2885 14.8709 92.4582 14.8244 92.6087 14.7388C92.7591 14.6531 92.8857 14.531 92.9767 14.3836C93.0791 14.1577 93.0945 13.9019 93.0199 13.6653C92.9453 13.4287 92.7861 13.228 92.5726 13.1015C92.3592 12.9751 92.1066 12.9319 91.8633 12.9802C91.62 13.0285 91.403 13.165 91.2541 13.3633V13.3633Z" fill="black"/>
<path d="M86.3517 99.8783C86.2908 99.7062 86.1837 99.5541 86.0421 99.4388C85.9004 99.3236 85.7298 99.2496 85.5489 99.2249C85.368 99.2003 85.1838 99.2259 85.0165 99.2991C84.8492 99.3723 84.7053 99.4901 84.6006 99.6397C84.4958 99.7893 84.4344 99.9648 84.4229 100.147C84.4114 100.329 84.4503 100.511 84.5354 100.673C84.6205 100.834 84.7484 100.969 84.9052 101.063C85.062 101.156 85.2415 101.205 85.4241 101.203C85.5505 101.201 85.6757 101.178 85.7951 101.137C86.0303 101.037 86.2187 100.851 86.322 100.618C86.4254 100.384 86.436 100.12 86.3517 99.8783V99.8783Z" fill="black"/>
<path d="M82.111 102.476C82.2363 102.437 82.3529 102.375 82.454 102.291C82.5551 102.208 82.6387 102.106 82.7003 101.99C82.7618 101.874 82.8 101.748 82.8125 101.617C82.8251 101.487 82.8119 101.355 82.7736 101.23C82.7353 101.105 82.6727 100.988 82.5894 100.887C82.5061 100.786 82.4037 100.702 82.288 100.641C82.1723 100.579 82.0457 100.541 81.9153 100.529C81.7849 100.516 81.6533 100.529 81.528 100.567C81.4026 100.605 81.286 100.668 81.1852 100.751C81.0843 100.834 81.0012 100.937 80.9406 101.053C80.8801 101.169 80.8435 101.296 80.8328 101.427C80.8222 101.557 80.8378 101.689 80.8787 101.813C80.9406 102.015 81.0652 102.192 81.2343 102.318C81.4035 102.444 81.6084 102.513 81.8195 102.515C81.9181 102.516 82.0163 102.503 82.111 102.476V102.476Z" fill="black"/>
<path d="M57.8886 8.3154C57.9316 8.54473 58.0528 8.75204 58.2317 8.90188C58.4105 9.05172 58.6358 9.1348 58.8691 9.13695H59.0414C59.2352 9.10208 59.4142 9.01045 59.5558 8.87369C59.6974 8.73694 59.7952 8.5612 59.8368 8.36878C59.8784 8.17636 59.8619 7.97593 59.7894 7.7929C59.7169 7.60987 59.5917 7.45248 59.4296 7.34072C59.2675 7.22895 59.076 7.16785 58.8791 7.16513C58.6823 7.16242 58.4891 7.21822 58.324 7.32547C58.1589 7.43272 58.0294 7.58658 57.9519 7.76754C57.8744 7.9485 57.8523 8.1484 57.8886 8.34189V8.3154Z" fill="black"/>
<path d="M115.026 46.5967C114.898 46.6175 114.775 46.6637 114.665 46.7324C114.554 46.8012 114.459 46.8913 114.383 46.9973C114.308 47.1033 114.255 47.2233 114.226 47.3501C114.198 47.477 114.195 47.6083 114.218 47.7363V47.7363C114.258 47.9667 114.379 48.1755 114.558 48.3258C114.738 48.4761 114.964 48.5582 115.198 48.5578H115.371C115.606 48.4908 115.809 48.3391 115.939 48.132C116.07 47.9248 116.119 47.6768 116.078 47.4354C116.037 47.194 115.908 46.9762 115.717 46.8239C115.525 46.6716 115.284 46.5954 115.039 46.6099L115.026 46.5967Z" fill="black"/>
<path d="M114.178 42.8472C113.94 42.9033 113.731 43.0452 113.591 43.2459C113.451 43.4465 113.39 43.6917 113.419 43.9346C113.449 44.1774 113.567 44.4009 113.751 44.5621C113.935 44.7233 114.172 44.811 114.417 44.8083H114.655C114.912 44.7451 115.133 44.5825 115.269 44.3564C115.406 44.1302 115.447 43.8591 115.384 43.6025C115.321 43.346 115.158 43.1251 114.932 42.9884C114.706 42.8517 114.435 42.8104 114.178 42.8737V42.8472Z" fill="black"/>
<path d="M115.821 54.2159C115.69 54.2141 115.56 54.2386 115.439 54.2879C115.318 54.3372 115.207 54.4104 115.115 54.503C115.022 54.5957 114.949 54.706 114.9 54.8273C114.85 54.9487 114.826 55.0787 114.828 55.2097C114.821 55.2492 114.821 55.2895 114.828 55.329C114.828 55.329 114.828 55.329 114.828 55.4217C114.828 55.6853 114.932 55.9381 115.119 56.1245C115.305 56.3109 115.558 56.4156 115.821 56.4156C116.085 56.4156 116.338 56.3109 116.524 56.1245C116.711 55.9381 116.815 55.6853 116.815 55.4217V55.1965C116.815 55.0666 116.789 54.938 116.739 54.8182C116.689 54.6983 116.616 54.5896 116.523 54.4984C116.431 54.4072 116.321 54.3352 116.201 54.2867C116.08 54.2382 115.951 54.2142 115.821 54.2159V54.2159Z" fill="black"/>
<path d="M116.206 63.2134C116.237 63.0193 116.211 62.8203 116.129 62.6414C116.047 62.4626 115.915 62.3119 115.747 62.2085C115.58 62.1052 115.386 62.0537 115.19 62.0607C114.993 62.0677 114.803 62.1327 114.644 62.2477C114.484 62.3627 114.362 62.5224 114.294 62.7066C114.225 62.8908 114.212 63.0912 114.258 63.2825C114.303 63.4739 114.404 63.6474 114.548 63.7814C114.692 63.9153 114.872 64.0035 115.066 64.0349H115.238C115.47 64.0323 115.694 63.9487 115.87 63.7987C116.047 63.6487 116.166 63.4416 116.206 63.2134V63.2134Z" fill="black"/>
<path d="M114.364 70.8056C114.424 70.5624 114.391 70.3053 114.27 70.0857C114.149 69.8661 113.95 69.7004 113.712 69.6216C113.474 69.5429 113.215 69.5569 112.987 69.661C112.759 69.7651 112.578 69.9515 112.482 70.1828C112.441 70.3072 112.424 70.4386 112.434 70.5693C112.443 70.7 112.479 70.8276 112.538 70.9446C112.597 71.0616 112.679 71.1658 112.778 71.2511C112.878 71.3364 112.993 71.4011 113.118 71.4416C113.219 71.4554 113.322 71.4554 113.423 71.4416C113.626 71.4444 113.825 71.385 113.993 71.2713C114.161 71.1576 114.29 70.995 114.364 70.8056V70.8056Z" fill="black"/>
<path d="M116.643 51.2874C116.627 51.0949 116.556 50.9112 116.438 50.7585C116.32 50.6059 116.16 50.491 115.977 50.4278C115.795 50.3646 115.598 50.3559 115.411 50.4028C115.224 50.4496 115.054 50.55 114.923 50.6917C114.792 50.8333 114.705 51.0101 114.672 51.2004C114.64 51.3907 114.664 51.5863 114.741 51.7633C114.818 51.9403 114.945 52.0911 115.106 52.1971C115.267 52.3032 115.456 52.3601 115.649 52.3607H115.742C115.872 52.3507 115.999 52.3149 116.115 52.2552C116.231 52.1956 116.334 52.1134 116.418 52.0135C116.502 51.9135 116.565 51.7978 116.603 51.6731C116.642 51.5484 116.655 51.4173 116.643 51.2874Z" fill="black"/>
<path d="M112.999 74.4767C113.053 74.3552 113.083 74.224 113.085 74.0909C113.088 73.9578 113.064 73.8256 113.014 73.702C112.965 73.5784 112.891 73.466 112.797 73.3714C112.704 73.2769 112.592 73.2021 112.469 73.1516C112.347 73.0991 112.216 73.0712 112.083 73.0694C111.951 73.0677 111.819 73.0921 111.696 73.1414C111.573 73.1906 111.461 73.2637 111.366 73.3564C111.271 73.4491 111.196 73.5596 111.144 73.6816C111.089 73.8031 111.06 73.9344 111.057 74.0674C111.055 74.2005 111.079 74.3328 111.128 74.4564C111.178 74.58 111.251 74.6924 111.345 74.7869C111.439 74.8815 111.551 74.9562 111.674 75.0067C111.796 75.0572 111.926 75.0842 112.058 75.0862C112.258 75.0911 112.455 75.0355 112.623 74.9268C112.79 74.818 112.922 74.6611 112.999 74.4767V74.4767Z" fill="black"/>
<path d="M104.638 86.3098C104.438 86.1388 104.179 86.0527 103.917 86.0701C103.654 86.0874 103.409 86.2067 103.233 86.4026C103.109 86.5469 103.028 86.724 103.001 86.9127C102.975 87.1014 103.003 87.2938 103.083 87.467C103.162 87.6401 103.29 87.7868 103.45 87.8894C103.611 87.992 103.798 88.0462 103.988 88.0457C104.129 88.0485 104.268 88.0203 104.397 87.963C104.525 87.9058 104.639 87.8208 104.73 87.7144C104.902 87.5146 104.988 87.2557 104.97 86.9932C104.953 86.7307 104.834 86.4854 104.638 86.3098V86.3098Z" fill="black"/>
<path d="M109.938 32.2066C109.71 32.3305 109.539 32.5374 109.46 32.7842C109.381 33.0309 109.4 33.2987 109.514 33.5317C109.601 33.6911 109.729 33.8243 109.885 33.9175C110.041 34.0107 110.22 34.0605 110.401 34.0617C110.559 34.0598 110.714 34.0189 110.852 33.9425C110.974 33.8863 111.084 33.8058 111.174 33.7061C111.264 33.6063 111.333 33.4893 111.376 33.3621C111.42 33.235 111.437 33.1003 111.427 32.9662C111.418 32.8321 111.38 32.7014 111.319 32.582C111.257 32.4627 111.171 32.3572 111.067 32.2718C110.963 32.1865 110.843 32.1231 110.714 32.0855C110.585 32.0479 110.45 32.0369 110.316 32.0532C110.183 32.0695 110.054 32.1127 109.938 32.1801V32.2066Z" fill="black"/>
<path d="M114.708 65.8501C114.581 65.8197 114.449 65.8146 114.32 65.8351C114.191 65.8555 114.068 65.9012 113.956 65.9695C113.845 66.0378 113.748 66.1273 113.671 66.2331C113.594 66.3388 113.539 66.4586 113.509 66.5856C113.478 66.7126 113.473 66.8444 113.494 66.9734C113.514 67.1024 113.56 67.2262 113.628 67.3375C113.696 67.4489 113.786 67.5456 113.892 67.6224C113.997 67.6991 114.117 67.7543 114.244 67.7848H114.47C114.714 67.7875 114.951 67.6997 115.135 67.5385C115.319 67.3773 115.437 67.1539 115.467 66.911C115.496 66.6681 115.435 66.4229 115.295 66.2223C115.155 66.0217 114.946 65.8797 114.708 65.8237V65.8501Z" fill="black"/>
<path d="M107.923 28.9339C107.744 29.0499 107.606 29.2206 107.532 29.4209C107.457 29.6211 107.449 29.8401 107.508 30.0454C107.568 30.2508 107.692 30.4314 107.862 30.5606C108.032 30.6897 108.24 30.7606 108.453 30.7625C108.635 30.7597 108.814 30.7095 108.97 30.6168C109.18 30.4759 109.329 30.2616 109.387 30.0162C109.446 29.7708 109.411 29.5122 109.288 29.2917C109.224 29.1768 109.137 29.0762 109.033 28.9957C108.928 28.9152 108.809 28.8565 108.682 28.8231C108.554 28.7897 108.422 28.7823 108.291 28.8013C108.161 28.8204 108.036 28.8655 107.923 28.9339Z" fill="black"/>
<path d="M111.607 35.6381C111.397 35.7277 111.224 35.8871 111.117 36.0894C111.011 36.2917 110.977 36.5245 111.022 36.7486C111.068 36.9728 111.189 37.1745 111.365 37.3198C111.542 37.4651 111.763 37.545 111.992 37.5462C112.128 37.5456 112.263 37.5186 112.389 37.4667C112.512 37.4164 112.624 37.3416 112.717 37.2468C112.811 37.152 112.884 37.0391 112.932 36.9152C112.98 36.7912 113.003 36.6587 112.999 36.5257C112.994 36.3927 112.962 36.2621 112.906 36.1416C112.799 35.9043 112.602 35.7185 112.36 35.6244C112.117 35.5302 111.847 35.5351 111.607 35.6381V35.6381Z" fill="black"/>
<path d="M52.6014 101.176C52.6591 100.992 52.6618 100.795 52.6094 100.61C52.557 100.424 52.4517 100.258 52.3064 100.131C52.161 100.004 51.9818 99.9221 51.7907 99.8953C51.5996 99.8686 51.4049 99.8981 51.2302 99.9801C51.0556 100.062 50.9087 100.193 50.8073 100.358C50.706 100.522 50.6546 100.712 50.6595 100.905C50.6644 101.098 50.7253 101.285 50.8348 101.444C50.9444 101.603 51.0978 101.726 51.2763 101.799C51.3815 101.818 51.4892 101.818 51.5944 101.799C51.8065 101.815 52.0182 101.763 52.1991 101.651C52.38 101.54 52.5209 101.373 52.6014 101.176V101.176Z" fill="black"/>
<path d="M38.1051 94.8563C38.2591 94.8544 38.4105 94.8175 38.5482 94.7487C38.6859 94.6799 38.8062 94.5808 38.9002 94.4588C39.0583 94.248 39.1262 93.9829 39.089 93.722C39.0517 93.461 38.9123 93.2256 38.7014 93.0675C38.5977 92.9874 38.479 92.929 38.3523 92.8957C38.2256 92.8623 38.0935 92.8546 37.9638 92.8731C37.8341 92.8917 37.7094 92.936 37.5972 93.0035C37.4849 93.0711 37.3873 93.1604 37.3101 93.2662C37.2318 93.3706 37.1748 93.4895 37.1424 93.6159C37.11 93.7423 37.1029 93.8739 37.1213 94.0031C37.1398 94.1323 37.1835 94.2566 37.25 94.3689C37.3165 94.4812 37.4044 94.5793 37.5088 94.6576C37.6813 94.7858 37.8903 94.8554 38.1051 94.8563V94.8563Z" fill="black"/>
<path d="M40.7417 96.844C40.8947 96.9465 41.0744 97.0017 41.2585 97.003C41.5019 97.0095 41.7393 96.9277 41.927 96.7726C42.1146 96.6175 42.2398 96.3996 42.2792 96.1594C42.3186 95.9191 42.2696 95.6727 42.1414 95.4658C42.0131 95.2589 41.8143 95.1054 41.5816 95.0338C41.3489 94.9622 41.0981 94.9773 40.8757 95.0763C40.6533 95.1754 40.4743 95.3516 40.3719 95.5725C40.2694 95.7933 40.2504 96.0438 40.3184 96.2776C40.3864 96.5114 40.5368 96.7126 40.7417 96.844V96.844Z" fill="black"/>
<path d="M54.1652 9.20278C54.2181 9.4166 54.3405 9.60681 54.5132 9.74352C54.6859 9.88023 54.8991 9.95571 55.1193 9.95808C55.2027 9.97081 55.2876 9.97081 55.3711 9.95808C55.6255 9.89252 55.8436 9.72884 55.9777 9.50287C56.1118 9.2769 56.1509 9.00701 56.0866 8.75225C56.062 8.61823 56.0102 8.49069 55.9343 8.37755C55.8584 8.26441 55.76 8.16808 55.6453 8.09456C55.5306 8.02105 55.4019 7.97191 55.2674 7.9502C55.1329 7.92849 54.9953 7.93467 54.8633 7.96836C54.7313 8.00204 54.6076 8.06253 54.4999 8.14604C54.3923 8.22955 54.3029 8.33428 54.2375 8.45378C54.172 8.57327 54.1318 8.70496 54.1194 8.84065C54.1069 8.97634 54.1226 9.11317 54.1652 9.24257V9.20278Z" fill="black"/>
<path d="M50.5076 10.3559C50.5741 10.5527 50.7006 10.7238 50.8694 10.845C51.0381 10.9662 51.2406 11.0315 51.4484 11.0316C51.5536 11.0508 51.6613 11.0508 51.7665 11.0316C51.945 10.9585 52.0984 10.835 52.2079 10.6761C52.3175 10.5173 52.3784 10.33 52.3833 10.1371C52.3882 9.94425 52.3368 9.75411 52.2355 9.58992C52.1341 9.42574 51.9871 9.29462 51.8125 9.21255C51.6379 9.13048 51.4432 9.10102 51.2521 9.12775C51.061 9.15449 50.8819 9.23626 50.7365 9.3631C50.5911 9.48995 50.4857 9.6564 50.4333 9.8421C50.3809 10.0278 50.3837 10.2247 50.4414 10.4088L50.5076 10.3559Z" fill="black"/>
<path d="M47.4735 10.4881C47.3503 10.5386 47.2386 10.6134 47.1449 10.7079C47.0512 10.8025 46.9775 10.9149 46.928 11.0385C46.8786 11.1621 46.8545 11.2943 46.8571 11.4274C46.8598 11.5605 46.8891 11.6917 46.9435 11.8132C47.0214 11.9945 47.1508 12.1489 47.3157 12.2573C47.4806 12.3656 47.6737 12.4232 47.871 12.4228C48.003 12.4207 48.1334 12.3937 48.2553 12.3432C48.4978 12.2396 48.6892 12.0438 48.7873 11.799C48.8855 11.5543 48.8824 11.2805 48.7787 11.038C48.675 10.7955 48.4793 10.6042 48.2345 10.506C47.9897 10.4079 47.716 10.411 47.4735 10.5146V10.4881Z" fill="black"/>
<path d="M60.0614 102.913C60.1089 102.653 60.0511 102.385 59.9007 102.167C59.7504 101.95 59.5198 101.801 59.2598 101.753C58.9997 101.706 58.7315 101.764 58.514 101.914C58.2966 102.065 58.1478 102.295 58.1003 102.555C58.0571 102.815 58.1156 103.081 58.2637 103.298C58.4118 103.515 58.6382 103.667 58.8954 103.721H59.0809C59.3117 103.717 59.5343 103.635 59.7124 103.488C59.8905 103.342 60.0135 103.139 60.0614 102.913Z" fill="black"/>
<path d="M27.6502 83.7122C27.8451 83.7142 28.0354 83.6538 28.1935 83.54C28.3142 83.4743 28.4199 83.3843 28.504 83.2757C28.5881 83.1671 28.6488 83.0423 28.6823 82.909C28.7157 82.7758 28.7211 82.6371 28.6982 82.5016C28.6753 82.3662 28.6246 82.2369 28.5493 82.122C28.474 82.0072 28.3756 81.9092 28.2604 81.8342C28.1453 81.7593 28.0159 81.7091 27.8804 81.6866C27.7448 81.6642 27.6062 81.6702 27.473 81.7041C27.3399 81.738 27.2152 81.7991 27.1069 81.8836C26.9017 82.0284 26.7589 82.2456 26.7073 82.4915C26.6556 82.7373 26.699 82.9936 26.8287 83.2087C26.9107 83.3563 27.0294 83.4802 27.1733 83.5684C27.3173 83.6566 27.4815 83.7061 27.6502 83.7122V83.7122Z" fill="black"/>
<path d="M19.6201 54.587C19.878 54.5906 20.1268 54.4925 20.3128 54.3139C20.4988 54.1354 20.607 53.8907 20.614 53.633C20.6183 53.5025 20.5969 53.3724 20.551 53.2501C20.5051 53.1279 20.4355 53.0159 20.3463 52.9205C20.2571 52.8252 20.15 52.7483 20.0311 52.6944C19.9122 52.6404 19.7838 52.6104 19.6533 52.606C19.5228 52.6017 19.3927 52.6231 19.2704 52.669C19.1482 52.7149 19.0362 52.7845 18.9409 52.8737C18.8455 52.9629 18.7686 53.07 18.7146 53.1889C18.6607 53.3078 18.6307 53.4362 18.6263 53.5667C18.6228 53.6994 18.6459 53.8315 18.6942 53.9552C18.7426 54.0788 18.8152 54.1915 18.9079 54.2866C19.0005 54.3817 19.1113 54.4573 19.2336 54.5089C19.3559 54.5605 19.4874 54.5871 19.6201 54.587V54.587Z" fill="black"/>
<path d="M21.3955 69.7728C21.4789 69.7858 21.5638 69.7858 21.6472 69.7728C21.9085 69.7408 22.1476 69.6103 22.316 69.4079C22.4843 69.2056 22.5691 68.9466 22.553 68.6839C22.5369 68.4212 22.4212 68.1745 22.2295 67.9941C22.0378 67.8138 21.7845 67.7134 21.5213 67.7134C21.2581 67.7134 21.0049 67.8138 20.8131 67.9941C20.6214 68.1745 20.5058 68.4212 20.4897 68.6839C20.4737 68.9466 20.5584 69.2056 20.7267 69.4079C20.895 69.6103 21.1342 69.7408 21.3955 69.7728V69.7728Z" fill="black"/>
<path d="M22.4826 73.4429C22.5922 73.4617 22.7042 73.4617 22.8138 73.4429C22.9429 73.3987 23.0616 73.3288 23.1628 73.2373C23.264 73.1459 23.3456 73.0349 23.4026 72.911C23.4596 72.7871 23.4908 72.6529 23.4944 72.5165C23.4979 72.3802 23.4738 72.2445 23.4234 72.1178C23.3337 71.8683 23.1487 71.6646 22.9089 71.5515C22.6691 71.4384 22.3942 71.4253 22.1447 71.5149C21.8951 71.6045 21.6914 71.7896 21.5784 72.0294C21.4653 72.2692 21.4521 72.5441 21.5418 72.7936C21.6143 72.9844 21.7431 73.1487 21.9111 73.2647C22.0791 73.3806 22.2784 73.4428 22.4826 73.4429V73.4429Z" fill="black"/>
<path d="M25.6755 80.4264C25.8416 80.4246 26.005 80.3838 26.1525 80.3072C26.3281 80.2161 26.4726 80.0746 26.5674 79.9009C26.6622 79.7272 26.703 79.5292 26.6845 79.3322C26.666 79.1352 26.5891 78.9482 26.4637 78.7951C26.3383 78.6421 26.1701 78.5299 25.9806 78.4731C25.7911 78.4162 25.5888 78.4172 25.3999 78.476C25.2109 78.5347 25.0438 78.6485 24.92 78.8028C24.7961 78.9572 24.7211 79.1449 24.7046 79.3421C24.6881 79.5393 24.7309 79.7369 24.8274 79.9097C24.91 80.0635 25.0321 80.1925 25.1812 80.2834C25.3303 80.3742 25.5009 80.4236 25.6755 80.4264V80.4264Z" fill="black"/>
<path d="M20.5212 66.036H20.72C20.9634 65.9719 21.1734 65.8179 21.3077 65.605C21.442 65.3921 21.4905 65.1362 21.4434 64.8889C21.3963 64.6416 21.2571 64.4215 21.054 64.2728C20.8508 64.1242 20.5989 64.0582 20.349 64.0881C20.1152 64.1418 19.9087 64.2782 19.7677 64.4722C19.6266 64.6662 19.5605 64.9047 19.5814 65.1437C19.6024 65.3826 19.7092 65.6059 19.8819 65.7723C20.0546 65.9388 20.2816 66.0371 20.5212 66.0492V66.036Z" fill="black"/>
<path d="M32.2481 23.3015C32.5218 23.3004 32.7839 23.1908 32.9769 22.9967C33.163 22.8103 33.2676 22.5578 33.2676 22.2944C33.2676 22.031 33.163 21.7784 32.9769 21.5921C32.7883 21.4052 32.5335 21.3003 32.268 21.3003C32.0025 21.3003 31.7477 21.4052 31.5591 21.5921C31.4673 21.6832 31.3945 21.7916 31.3448 21.911C31.2951 22.0304 31.2695 22.1584 31.2695 22.2878C31.2695 22.4171 31.2951 22.5451 31.3448 22.6645C31.3945 22.7839 31.4673 22.8923 31.5591 22.9835C31.6466 23.0802 31.7527 23.1582 31.8711 23.2129C31.9895 23.2675 32.1177 23.2976 32.2481 23.3015V23.3015Z" fill="black"/>
<path d="M23.9663 76.9945C24.1027 76.9938 24.2377 76.9668 24.3638 76.915C24.6055 76.8051 24.7939 76.6042 24.8882 76.356C24.9825 76.1079 24.975 75.8325 24.8673 75.5899C24.8134 75.4707 24.7365 75.3633 24.641 75.2738C24.5456 75.1843 24.4335 75.1145 24.311 75.0684C24.1886 75.0223 24.0583 75.0007 23.9275 75.0049C23.7967 75.0091 23.6681 75.039 23.5489 75.093C23.4297 75.1469 23.3223 75.2238 23.2328 75.3193C23.1433 75.4147 23.0735 75.5269 23.0274 75.6493C22.9812 75.7717 22.9597 75.902 22.9639 76.0328C22.9681 76.1636 22.998 76.2922 23.052 76.4114C23.1315 76.5867 23.2603 76.7352 23.4226 76.8387C23.5849 76.9422 23.7738 76.9963 23.9663 76.9945Z" fill="black"/>
<path d="M37.1377 17.7234C37.2303 17.8468 37.3503 17.947 37.4883 18.016C37.6263 18.085 37.7785 18.1209 37.9328 18.1209C38.148 18.1219 38.3575 18.0521 38.5291 17.9222C38.6863 17.8042 38.8051 17.6423 38.8703 17.4569C38.9355 17.2715 38.9443 17.0709 38.8955 16.8805C38.8467 16.6901 38.7426 16.5184 38.5962 16.3872C38.4499 16.256 38.2679 16.1711 38.0733 16.1433C37.8787 16.1155 37.6803 16.146 37.5031 16.231C37.3258 16.316 37.1778 16.4517 37.0776 16.6208C36.9775 16.7899 36.9297 16.985 36.9404 17.1812C36.9511 17.3775 37.0198 17.5662 37.1377 17.7234V17.7234Z" fill="black"/>
<path d="M32.407 89.7146C32.6573 89.7133 32.8983 89.6189 33.0828 89.4496C33.2689 89.2633 33.3734 89.0107 33.3734 88.7473C33.3734 88.4839 33.2689 88.2313 33.0828 88.045C32.9702 87.9236 32.829 87.8323 32.6722 87.7793C32.5153 87.7263 32.3477 87.7134 32.1846 87.7416C32.0215 87.7699 31.8679 87.8384 31.738 87.9411C31.6081 88.0437 31.5059 88.1772 31.4407 88.3294C31.3755 88.4815 31.3493 88.6476 31.3646 88.8125C31.3798 88.9773 31.4361 89.1358 31.5281 89.2734C31.6202 89.411 31.7451 89.5235 31.8917 89.6005C32.0382 89.6776 32.2017 89.7168 32.3672 89.7146H32.407Z" fill="black"/>
<path d="M34.9775 20.5721C35.2274 20.5684 35.4675 20.4742 35.6534 20.3071C35.8222 20.1252 35.9169 19.8866 35.9187 19.6384C35.9206 19.3902 35.8294 19.1503 35.6633 18.9658C35.4972 18.7814 35.268 18.6658 35.0209 18.6419C34.7739 18.6179 34.5268 18.6872 34.3283 18.8363C34.2316 18.9241 34.1532 19.0302 34.0976 19.1483C34.042 19.2665 34.0102 19.3944 34.004 19.5248C33.9979 19.6553 34.0175 19.7857 34.0618 19.9085C34.106 20.0314 34.1741 20.1443 34.262 20.2409C34.3529 20.3414 34.4631 20.4225 34.586 20.4795C34.709 20.5364 34.8421 20.5679 34.9775 20.5721V20.5721Z" fill="black"/>
<path d="M29.9027 86.8128C30.1243 86.8151 30.3398 86.7401 30.5122 86.6008C30.7005 86.4409 30.8224 86.2165 30.8543 85.9715C30.8861 85.7266 30.8256 85.4785 30.6845 85.2757C30.521 85.0684 30.2819 84.9345 30.0198 84.9034C29.7576 84.8723 29.4938 84.9467 29.2865 85.1101C29.0792 85.2735 28.9452 85.5126 28.9141 85.7748C28.8831 86.0369 28.9574 86.3007 29.1209 86.5081C29.2221 86.6114 29.3442 86.692 29.479 86.7445C29.6138 86.7971 29.7582 86.8204 29.9027 86.8128Z" fill="black"/>
<path d="M61.6652 7.6923C61.6972 7.93355 61.8155 8.15505 61.9982 8.31582C62.1809 8.47659 62.4157 8.56578 62.659 8.56686H62.765C62.8967 8.55464 63.0247 8.51623 63.1413 8.45392C63.258 8.39161 63.3611 8.30667 63.4445 8.20401C63.5279 8.10135 63.59 7.98308 63.6271 7.85612C63.6642 7.72916 63.6756 7.59605 63.6606 7.46463C63.6456 7.33321 63.6045 7.20612 63.5398 7.09078C63.475 6.97544 63.3879 6.87418 63.2835 6.79295C63.1791 6.71172 63.0596 6.65216 62.9319 6.61773C62.8042 6.58331 62.6709 6.57474 62.5398 6.5925C62.2794 6.62571 62.0423 6.75923 61.879 6.96465C61.7156 7.17008 61.6389 7.43117 61.6652 7.6923V7.6923Z" fill="black"/>
<path d="M21.0776 43.1784C21.161 43.1913 21.2459 43.1913 21.3293 43.1784C21.5478 43.1782 21.7603 43.1071 21.9348 42.9756C22.1093 42.8442 22.2363 42.6595 22.2966 42.4496V42.4496C22.3468 42.3197 22.3691 42.1807 22.3621 42.0417C22.3552 41.9026 22.3191 41.7666 22.2561 41.6424C22.1932 41.5182 22.105 41.4086 21.997 41.3207C21.889 41.2329 21.7638 41.1686 21.6294 41.1322C21.495 41.0958 21.3545 41.0881 21.2169 41.1095C21.0794 41.1308 20.9478 41.1809 20.8308 41.2564C20.7138 41.3318 20.614 41.4311 20.5378 41.5476C20.4616 41.6641 20.4108 41.7953 20.3885 41.9328C20.3502 42.0598 20.3377 42.1932 20.3518 42.3251C20.3658 42.457 20.4061 42.5848 20.4704 42.7009C20.5346 42.817 20.6214 42.919 20.7257 43.001C20.83 43.083 20.9496 43.1433 21.0776 43.1784V43.1784Z" fill="black"/>
<path d="M23.8736 36.0098C24.0653 36.0079 24.2524 35.9506 24.4123 35.8448C24.5722 35.739 24.698 35.5892 24.7747 35.4135C24.8317 35.2939 24.8638 35.164 24.8692 35.0316C24.8747 34.8992 24.8532 34.7672 24.8061 34.6433C24.7591 34.5195 24.6874 34.4065 24.5954 34.3111C24.5035 34.2157 24.3932 34.14 24.2712 34.0884C24.1513 34.0333 24.0216 34.0026 23.8897 33.9981C23.7578 33.9937 23.6264 34.0155 23.503 34.0624C23.3797 34.1093 23.267 34.1802 23.1713 34.2711C23.0757 34.362 22.9991 34.4711 22.9461 34.5919C22.8937 34.74 22.8771 34.8985 22.8978 35.0542C22.9185 35.21 22.9757 35.3586 23.065 35.4879C23.1542 35.6172 23.2728 35.7235 23.4111 35.7981C23.5493 35.8727 23.7033 35.9134 23.8604 35.917L23.8736 36.0098Z" fill="black"/>
<path d="M20.3095 46.9543H20.4818C20.7151 46.9522 20.9404 46.8691 21.1193 46.7192C21.2981 46.5694 21.4194 46.3621 21.4623 46.1328C21.5088 45.8746 21.4513 45.6085 21.3023 45.3925C21.1534 45.1766 20.9251 45.0283 20.6673 44.9799C20.5345 44.9437 20.3957 44.9354 20.2595 44.9556C20.1234 44.9758 19.993 45.0241 19.8765 45.0973C19.76 45.1706 19.66 45.2672 19.5828 45.3811C19.5056 45.495 19.4528 45.6238 19.428 45.7591C19.4031 45.8945 19.4066 46.0335 19.4383 46.1674C19.47 46.3014 19.5292 46.4272 19.612 46.5371C19.6949 46.647 19.7997 46.7384 19.9197 46.8057C20.0398 46.8729 20.1725 46.9145 20.3095 46.9278V46.9543Z" fill="black"/>
<path d="M19.66 58.4298C19.7905 58.4246 19.9187 58.3937 20.0373 58.339C20.1559 58.2842 20.2625 58.2066 20.3511 58.1106C20.4397 58.0146 20.5085 57.9022 20.5537 57.7796C20.5988 57.657 20.6193 57.5268 20.6141 57.3963C20.6089 57.2658 20.578 57.1376 20.5232 57.019C20.4684 56.9004 20.3909 56.7938 20.2949 56.7052C20.1989 56.6166 20.0864 56.5477 19.9639 56.5026C19.8413 56.4575 19.711 56.437 19.5805 56.4422C19.4494 56.4456 19.3203 56.4752 19.2008 56.5293C19.0814 56.5834 18.974 56.661 18.8851 56.7573C18.7961 56.8537 18.7274 56.9669 18.6829 57.0903C18.6385 57.2137 18.6193 57.3448 18.6265 57.4758C18.6402 57.7382 18.756 57.9849 18.9491 58.1631C19.1422 58.3414 19.3973 58.4371 19.66 58.4298V58.4298Z" fill="black"/>
<path d="M19.9512 62.2463H20.0705C20.3299 62.2132 20.5658 62.0791 20.727 61.8733C20.8882 61.6674 20.9618 61.4063 20.9318 61.1465C20.9186 61.0174 20.8799 60.8923 20.818 60.7783C20.7561 60.6643 20.6722 60.5637 20.5712 60.4823C20.4701 60.401 20.3539 60.3405 20.2293 60.3044C20.1047 60.2683 19.9742 60.2572 19.8453 60.2719C19.6022 60.3102 19.3821 60.4372 19.2273 60.6284C19.0725 60.8196 18.9941 61.0613 19.0073 61.307C19.0205 61.5526 19.1243 61.7846 19.2986 61.9581C19.473 62.1317 19.7055 62.2344 19.9512 62.2463V62.2463Z" fill="black"/>
<path d="M19.8322 50.7571H19.9382C20.2017 50.7712 20.4601 50.68 20.6564 50.5035C20.8527 50.3271 20.9709 50.0799 20.985 49.8163C20.999 49.5527 20.9078 49.2944 20.7314 49.098C20.555 48.9017 20.3078 48.7835 20.0442 48.7695C19.7824 48.7436 19.5211 48.8225 19.3175 48.9889C19.1138 49.1553 18.9844 49.3957 18.9576 49.6573C18.941 49.7872 18.9506 49.9191 18.9859 50.0453C19.0211 50.1714 19.0813 50.2892 19.1628 50.3918C19.2443 50.4943 19.3455 50.5794 19.4605 50.6422C19.5755 50.7049 19.7018 50.744 19.8322 50.7571V50.7571Z" fill="black"/>
<path d="M106.281 27.6082C106.496 27.6073 106.705 27.5376 106.877 27.4095C107.088 27.2513 107.227 27.0159 107.265 26.755C107.302 26.4941 107.234 26.229 107.076 26.0181C106.998 25.9137 106.9 25.8258 106.787 25.7593C106.675 25.6928 106.551 25.649 106.421 25.6306C106.292 25.6121 106.161 25.6193 106.034 25.6517C105.908 25.6841 105.789 25.7411 105.685 25.8194C105.58 25.8977 105.492 25.9958 105.426 26.1081C105.359 26.2204 105.316 26.3447 105.297 26.4739C105.279 26.6031 105.286 26.7346 105.318 26.8611C105.351 26.9875 105.408 27.1063 105.486 27.2107C105.58 27.3327 105.7 27.4317 105.838 27.5006C105.976 27.5694 106.127 27.6062 106.281 27.6082V27.6082Z" fill="black"/>
<path d="M113.356 41.124C113.457 41.1378 113.56 41.1378 113.661 41.124C113.912 41.0414 114.121 40.8623 114.24 40.6262C114.359 40.3902 114.38 40.1164 114.297 39.8651C114.215 39.6138 114.036 39.4057 113.799 39.2864C113.563 39.1671 113.29 39.1465 113.038 39.229C112.816 39.3048 112.627 39.4572 112.506 39.659C112.385 39.8608 112.34 40.0989 112.378 40.3311C112.416 40.5632 112.535 40.7743 112.715 40.9267C112.894 41.0792 113.121 41.1632 113.356 41.1637V41.124Z" fill="black"/>
<path d="M114.682 59.1721C114.663 59.4351 114.749 59.6948 114.92 59.8955C115.091 60.0962 115.333 60.2218 115.596 60.2455H115.675C115.806 60.2507 115.936 60.2301 116.059 60.185C116.181 60.1399 116.294 60.0711 116.39 59.9825C116.486 59.8939 116.563 59.7873 116.618 59.6687C116.673 59.5501 116.704 59.4219 116.709 59.2914C116.714 59.1609 116.694 59.0306 116.649 58.908C116.603 58.7855 116.535 58.673 116.446 58.577C116.357 58.481 116.251 58.4035 116.132 58.3487C116.014 58.2939 115.886 58.2631 115.755 58.2578C115.492 58.2394 115.232 58.3249 115.032 58.4958C114.831 58.6668 114.705 58.9096 114.682 59.1721V59.1721Z" fill="black"/>
<path d="M100.662 89.1316C100.475 89.3202 100.371 89.575 100.371 89.8405C100.371 90.106 100.475 90.3608 100.662 90.5494C100.754 90.6423 100.864 90.7159 100.984 90.766C101.105 90.8161 101.234 90.8415 101.365 90.8409C101.626 90.8414 101.877 90.7419 102.067 90.5627C102.257 90.3782 102.365 90.1258 102.369 89.8612C102.373 89.5965 102.271 89.3412 102.087 89.1515C101.902 88.9617 101.65 88.8529 101.385 88.8492C101.121 88.8455 100.865 88.9471 100.676 89.1316H100.662Z" fill="black"/>
<path d="M99.1382 18.9287C99.3061 18.7256 99.3876 18.4647 99.3653 18.2021C99.343 17.9395 99.2187 17.6961 99.0189 17.5242C98.9189 17.4371 98.8027 17.3707 98.6769 17.3286C98.5512 17.2865 98.4184 17.2696 98.2861 17.2788C98.1539 17.288 98.0247 17.3232 97.906 17.3824C97.7873 17.4415 97.6815 17.5235 97.5945 17.6235C97.5075 17.7236 97.441 17.8398 97.3989 17.9655C97.3568 18.0913 97.3399 18.2241 97.3491 18.3563C97.3584 18.4886 97.3935 18.6178 97.4527 18.7365C97.5118 18.8551 97.5938 18.961 97.6939 19.048C97.8707 19.2007 98.0962 19.2853 98.3299 19.2865C98.4829 19.2923 98.6353 19.2631 98.7754 19.2011C98.9155 19.1391 99.0396 19.0459 99.1382 18.9287V18.9287Z" fill="black"/>
<path d="M109.567 77.1132C109.45 77.3456 109.429 77.6146 109.508 77.8623C109.588 78.11 109.761 78.3168 109.991 78.4383C110.136 78.5062 110.294 78.5424 110.455 78.5443C110.635 78.5435 110.811 78.4938 110.965 78.4004C111.119 78.3071 111.245 78.1736 111.329 78.0143V78.0143C111.403 77.8975 111.452 77.7666 111.472 77.63C111.492 77.4934 111.484 77.354 111.448 77.2208C111.411 77.0875 111.347 76.9633 111.26 76.8561C111.173 76.7489 111.065 76.6611 110.942 76.5982C110.819 76.5353 110.684 76.4988 110.546 76.4909C110.408 76.483 110.27 76.5039 110.141 76.5524C110.011 76.6008 109.893 76.6758 109.795 76.7723C109.696 76.8689 109.618 76.985 109.567 77.1132V77.1132Z" fill="black"/>
<path d="M88.2994 12.9528C88.4366 13.0152 88.5858 13.0469 88.7366 13.0456C88.9595 13.0435 89.1752 12.9666 89.3491 12.8271C89.523 12.6877 89.6449 12.4938 89.6954 12.2768C89.7458 12.0597 89.7219 11.8319 89.6273 11.6301C89.5327 11.4282 89.373 11.2641 89.1739 11.1639C88.9382 11.0491 88.6668 11.032 88.4186 11.1164C88.1704 11.2008 87.9656 11.3798 87.8488 11.6145C87.7334 11.852 87.7159 12.1255 87.8002 12.3758C87.8845 12.6262 88.0638 12.8334 88.2994 12.9528Z" fill="black"/>
<path d="M74.1607 102.197C73.8972 102.215 73.6514 102.336 73.4774 102.535C73.3035 102.734 73.2156 102.994 73.2332 103.257C73.2507 103.521 73.3723 103.767 73.5711 103.941C73.7699 104.115 74.0297 104.203 74.2933 104.185H74.4258C74.5556 104.167 74.6806 104.124 74.7936 104.057C74.9065 103.991 75.0053 103.903 75.0841 103.798C75.1629 103.694 75.2203 103.574 75.2528 103.447C75.2854 103.32 75.2925 103.188 75.2738 103.059C75.2592 102.928 75.2185 102.802 75.1542 102.688C75.0899 102.573 75.0033 102.473 74.8995 102.393C74.7957 102.312 74.6768 102.254 74.5499 102.22C74.423 102.187 74.2907 102.179 74.1607 102.197V102.197Z" fill="black"/>
<path d="M88.4847 97.7982C88.3077 97.8845 88.1603 98.0214 88.0612 98.1915C87.9622 98.3617 87.9159 98.5575 87.9282 98.754C87.9406 98.9505 88.0111 99.139 88.1307 99.2954C88.2503 99.4518 88.4138 99.5691 88.6002 99.6325C88.7866 99.6959 88.9877 99.7024 89.1779 99.6514C89.368 99.6003 89.5387 99.4939 89.6683 99.3456C89.7979 99.1974 89.8806 99.014 89.9057 98.8187C89.9309 98.6234 89.8975 98.425 89.8098 98.2487C89.693 98.0141 89.4882 97.835 89.24 97.7507C88.9918 97.6663 88.7203 97.6834 88.4847 97.7982V97.7982Z" fill="black"/>
<path d="M77.884 101.482C77.647 101.537 77.4388 101.678 77.2988 101.877C77.1589 102.077 77.0969 102.32 77.1247 102.562C77.1524 102.804 77.268 103.027 77.4495 103.19C77.631 103.352 77.8658 103.442 78.1093 103.443H78.3213C78.4556 103.421 78.584 103.373 78.6988 103.3C78.8135 103.227 78.912 103.131 78.9883 103.019C79.0646 102.906 79.117 102.779 79.1422 102.646C79.1674 102.512 79.165 102.375 79.135 102.242C79.105 102.109 79.0481 101.984 78.9679 101.875C78.8877 101.765 78.7858 101.673 78.6686 101.604C78.5513 101.535 78.4212 101.491 78.2862 101.475C78.1513 101.458 78.0144 101.469 77.884 101.508V101.482Z" fill="black"/>
<path d="M70.4635 102.568C70.2 102.568 69.9472 102.673 69.7608 102.859C69.5744 103.046 69.4697 103.298 69.4697 103.562C69.4697 103.826 69.5744 104.078 69.7608 104.265C69.9472 104.451 70.2 104.556 70.4635 104.556H70.5298C70.7934 104.54 71.0399 104.42 71.2151 104.223C71.3903 104.025 71.4798 103.766 71.464 103.502C71.4482 103.239 71.3283 102.992 71.1307 102.817C70.9332 102.642 70.6741 102.552 70.4106 102.568H70.4635Z" fill="black"/>
<path d="M84.8671 11.4423C84.9821 11.4834 85.1029 11.5058 85.2249 11.5086C85.4075 11.5103 85.587 11.4617 85.7438 11.3681C85.9006 11.2745 86.0285 11.1395 86.1136 10.9779C86.1987 10.8164 86.2377 10.6345 86.2262 10.4522C86.2147 10.27 86.1532 10.0945 86.0485 9.94487C85.9438 9.79528 85.7999 9.67747 85.6326 9.6043C85.4653 9.53112 85.281 9.50544 85.1001 9.53009C84.9192 9.55474 84.7486 9.62875 84.607 9.74401C84.4654 9.85928 84.3582 10.0113 84.2973 10.1835C84.2139 10.4264 84.2264 10.692 84.3323 10.926C84.4382 11.16 84.6295 11.3447 84.8671 11.4423V11.4423Z" fill="black"/>
<path d="M73.9882 8.60637H74.1207C74.385 8.58917 74.6323 8.46987 74.8102 8.27368C74.9882 8.07749 75.0829 7.81978 75.0743 7.55505C75.0657 7.29033 74.9545 7.03933 74.7641 6.8551C74.5738 6.67088 74.3194 6.56787 74.0545 6.56787C73.7896 6.56787 73.5351 6.67088 73.3448 6.8551C73.1545 7.03933 73.0433 7.29033 73.0347 7.55505C73.0261 7.81978 73.1208 8.07749 73.2987 8.27368C73.4766 8.46987 73.7239 8.58917 73.9882 8.60637V8.60637Z" fill="black"/>
<path d="M94.9245 93.9554C94.817 94.0307 94.7255 94.1266 94.6553 94.2375C94.585 94.3483 94.5374 94.472 94.5153 94.6014C94.4931 94.7307 94.4968 94.8632 94.5261 94.9911C94.5554 95.119 94.6097 95.2399 94.686 95.3467C94.7799 95.4729 94.9018 95.5756 95.042 95.6468C95.1822 95.7181 95.337 95.756 95.4943 95.7575C95.7024 95.7528 95.9048 95.6884 96.0773 95.572C96.274 95.4195 96.4062 95.1987 96.4479 94.9533C96.4896 94.7079 96.4377 94.4559 96.3026 94.2469C96.2326 94.1357 96.1411 94.0396 96.0334 93.9644C95.9256 93.8893 95.8038 93.8365 95.6753 93.8093C95.5467 93.7821 95.414 93.7811 95.285 93.8061C95.1561 93.8312 95.0335 93.882 94.9245 93.9554V93.9554Z" fill="black"/>
<path d="M97.7737 93.0674C97.8674 93.1759 97.9833 93.2629 98.1137 93.3223C98.244 93.3818 98.3858 93.4124 98.5291 93.4119C98.7614 93.4168 98.9876 93.3367 99.1651 93.1867C99.3671 93.011 99.4911 92.7622 99.5098 92.4951C99.5284 92.2279 99.4402 91.9643 99.2645 91.7622C99.0888 91.5602 98.8399 91.4361 98.5728 91.4175C98.3057 91.3989 98.0421 91.4871 97.84 91.6628C97.7434 91.7507 97.665 91.8567 97.6094 91.9749C97.5537 92.093 97.5219 92.221 97.5158 92.3514C97.5096 92.4819 97.5292 92.6122 97.5735 92.7351C97.6178 92.858 97.6858 92.9709 97.7737 93.0674V93.0674Z" fill="black"/>
<path d="M95.362 16.9543C95.521 16.9544 95.6777 16.9159 95.8185 16.8421C95.9594 16.7682 96.0801 16.6612 96.1703 16.5303C96.2466 16.4235 96.3009 16.3026 96.3302 16.1747C96.3595 16.0467 96.3632 15.9142 96.341 15.7849C96.3189 15.6555 96.2713 15.5318 96.201 15.421C96.1308 15.3101 96.0393 15.2142 95.9318 15.1389C95.8248 15.0641 95.7041 15.0111 95.5766 14.9829C95.4491 14.9547 95.3173 14.9519 95.1887 14.9747C95.0601 14.9975 94.9373 15.0453 94.8272 15.1156C94.7171 15.1858 94.6219 15.277 94.5471 15.3841C94.4723 15.4911 94.4193 15.6118 94.3911 15.7393C94.3629 15.8668 94.3601 15.9986 94.3829 16.1272C94.4057 16.2558 94.4535 16.3786 94.5237 16.4887C94.594 16.5988 94.6852 16.694 94.7923 16.7688C94.959 16.887 95.1577 16.9517 95.362 16.9543V16.9543Z" fill="black"/>
<path d="M66.74 102.621C66.6026 102.6 66.4622 102.607 66.3279 102.643C66.1936 102.679 66.0683 102.743 65.9602 102.831C65.8522 102.918 65.7637 103.028 65.7004 103.151C65.6372 103.275 65.6007 103.411 65.5932 103.55C65.5858 103.689 65.6075 103.828 65.6571 103.958C65.7067 104.088 65.783 104.206 65.8811 104.304C65.9792 104.403 66.097 104.48 66.2267 104.53C66.3563 104.58 66.4951 104.603 66.634 104.596V104.596C66.8761 104.568 67.0995 104.452 67.2616 104.27C67.4237 104.088 67.5133 103.852 67.5133 103.609C67.5133 103.365 67.4237 103.13 67.2616 102.948C67.0995 102.766 66.8761 102.65 66.634 102.621H66.74Z" fill="black"/>
<path d="M48.4538 98.6061C48.3321 98.5455 48.1994 98.5106 48.0637 98.5034C47.928 98.4961 47.7923 98.5168 47.665 98.5641C47.5376 98.6114 47.4213 98.6843 47.3232 98.7783C47.2251 98.8724 47.1473 98.9855 47.0947 99.1107C47.0421 99.236 47.0157 99.3707 47.0171 99.5065C47.0186 99.6424 47.0479 99.7765 47.1032 99.9006C47.1586 100.025 47.2388 100.136 47.3389 100.228C47.439 100.32 47.5568 100.39 47.6852 100.435C47.8064 100.488 47.9373 100.515 48.0695 100.514C48.2981 100.513 48.5193 100.433 48.6959 100.288C48.8724 100.142 48.9934 99.9408 49.0385 99.7166C49.0837 99.4925 49.0502 99.2597 48.9436 99.0574C48.8371 98.8551 48.6641 98.6957 48.4538 98.6061Z" fill="black"/>
<path d="M55.6094 100.965C55.3546 100.9 55.0848 100.94 54.8588 101.074C54.6328 101.208 54.4691 101.426 54.4036 101.68C54.3429 101.938 54.385 102.21 54.521 102.438C54.6571 102.665 54.8763 102.831 55.1324 102.899H55.3709C55.5928 102.898 55.808 102.823 55.9829 102.686C56.1578 102.55 56.2827 102.359 56.3382 102.144C56.3943 101.891 56.3495 101.627 56.2134 101.406C56.0773 101.186 55.8606 101.028 55.6094 100.965Z" fill="black"/>
<path d="M44.863 13.9204C45.0967 13.7974 45.272 13.5866 45.3502 13.3344C45.4285 13.0822 45.4034 12.8092 45.2804 12.5755C45.1574 12.3417 44.9466 12.1665 44.6943 12.0882C44.4421 12.0099 44.1691 12.035 43.9354 12.158C43.7414 12.2628 43.5876 12.4291 43.4985 12.6308C43.4093 12.8325 43.3897 13.0581 43.4428 13.2721C43.496 13.4861 43.6188 13.6764 43.7919 13.8129C43.9651 13.9495 44.1787 14.0246 44.3992 14.0264C44.5596 14.0245 44.7177 13.9884 44.863 13.9204Z" fill="black"/>
<path d="M43.6839 97.5063C43.5671 97.7387 43.5461 98.0077 43.6254 98.2554C43.7047 98.5032 43.8779 98.7099 44.108 98.8314C44.2501 98.9094 44.4096 98.9504 44.5718 98.9506C44.7536 98.9501 44.9316 98.8989 45.086 98.803C45.2405 98.707 45.3652 98.5701 45.4463 98.4073C45.5201 98.2906 45.5688 98.1597 45.5893 98.0231C45.6097 97.8865 45.6014 97.7471 45.5649 97.6138C45.5285 97.4806 45.4646 97.3564 45.3774 97.2492C45.2903 97.142 45.1818 97.0542 45.0588 96.9913C44.9357 96.9284 44.801 96.8918 44.6631 96.8839C44.5251 96.8761 44.3871 96.897 44.2577 96.9455C44.1284 96.994 44.0105 97.0688 43.9117 97.1654C43.8129 97.262 43.7353 97.3781 43.6839 97.5063V97.5063Z" fill="black"/>
<path d="M41.6168 15.7882C41.7273 15.7177 41.8229 15.6262 41.898 15.5188C41.9731 15.4114 42.0263 15.2902 42.0546 15.1623C42.0829 15.0343 42.0857 14.902 42.0629 14.773C42.0401 14.6439 41.9921 14.5206 41.9216 14.4101C41.8512 14.2996 41.7596 14.204 41.6522 14.1289C41.5448 14.0538 41.4236 14.0006 41.2957 13.9723C41.1677 13.944 41.0354 13.9412 40.9064 13.964C40.7773 13.9868 40.654 14.0348 40.5435 14.1053C40.364 14.2213 40.2266 14.392 40.1518 14.5923C40.0769 14.7925 40.0686 15.0115 40.1281 15.2168C40.1877 15.4221 40.3118 15.6028 40.4821 15.7319C40.6524 15.8611 40.8598 15.932 41.0736 15.9339C41.2648 15.9379 41.4533 15.8874 41.6168 15.7882V15.7882Z" fill="black"/>
<path d="M35.8125 90.6555C35.6143 90.4828 35.3565 90.3945 35.0941 90.4093C34.8316 90.4242 34.5854 90.5411 34.4079 90.735C34.3208 90.8324 34.2538 90.946 34.2106 91.0693C34.1674 91.1927 34.149 91.3233 34.1564 91.4538C34.1638 91.5842 34.1968 91.712 34.2536 91.8296C34.3104 91.9473 34.3899 92.0527 34.4874 92.1396C34.6685 92.3043 34.9052 92.3943 35.15 92.3914C35.29 92.3916 35.4285 92.3621 35.5564 92.305C35.6843 92.2479 35.7987 92.1645 35.892 92.0601C36.0647 91.8619 36.1531 91.604 36.1382 91.3416C36.1234 91.0791 36.0065 90.8329 35.8125 90.6555V90.6555Z" fill="black"/>
<path d="M25.5563 32.5771C25.7381 32.5758 25.9162 32.526 26.0723 32.4328C26.2284 32.3397 26.3567 32.2065 26.4441 32.0471C26.5619 31.8162 26.5849 31.5485 26.5082 31.301C26.4315 31.0534 26.261 30.8457 26.0333 30.722C25.9205 30.6596 25.7965 30.6204 25.6683 30.6066C25.5402 30.5928 25.4106 30.6048 25.2871 30.6419C25.1637 30.6789 25.0489 30.7402 24.9495 30.8223C24.8501 30.9043 24.768 31.0053 24.7082 31.1195C24.5894 31.3487 24.5644 31.6152 24.6386 31.8625C24.7128 32.1099 24.8804 32.3186 25.1058 32.4446C25.2428 32.5251 25.3975 32.5706 25.5563 32.5771V32.5771Z" fill="black"/>
<path d="M30.4326 24.4019C30.3078 24.304 30.1615 24.2374 30.0057 24.2076C29.85 24.1778 29.6894 24.1858 29.5373 24.2307C29.3853 24.2757 29.2462 24.3563 29.1317 24.466C29.0171 24.5757 28.9305 24.7111 28.879 24.8611C28.8276 25.011 28.8127 25.1712 28.8357 25.3281C28.8587 25.4849 28.919 25.634 29.0113 25.7629C29.1037 25.8917 29.2256 25.9966 29.3668 26.0688C29.508 26.1409 29.6645 26.1782 29.823 26.1776C29.9723 26.1781 30.1195 26.1436 30.253 26.0769C30.3865 26.0101 30.5024 25.913 30.5916 25.7933C30.7541 25.5873 30.8286 25.3255 30.7988 25.0648C30.769 24.8042 30.6373 24.5659 30.4326 24.4019Z" fill="black"/>
<path d="M27.5311 29.2784C27.695 29.2769 27.8561 29.2365 28.0013 29.1605C28.1464 29.0844 28.2714 28.975 28.3659 28.8411C28.481 28.678 28.5443 28.4841 28.5476 28.2845C28.5508 28.0849 28.4939 27.889 28.3842 27.7222C28.2746 27.5554 28.1172 27.4255 27.9327 27.3494C27.7482 27.2733 27.545 27.2546 27.3496 27.2956C27.1543 27.3367 26.9758 27.4355 26.8375 27.5794C26.6992 27.7233 26.6073 27.9055 26.574 28.1023C26.5407 28.2991 26.5674 28.5014 26.6507 28.6828C26.7339 28.8642 26.8699 29.0164 27.0409 29.1194C27.1882 29.213 27.3569 29.2677 27.5311 29.2784V29.2784Z" fill="black"/>
<path d="M22.1379 39.5208C22.243 39.5399 22.3508 39.5399 22.4559 39.5208C22.6923 39.5235 22.9219 39.4418 23.1035 39.2904C23.2851 39.139 23.4068 38.9278 23.4467 38.6948C23.4866 38.4618 23.4421 38.2221 23.3213 38.0189C23.2004 37.8158 23.011 37.6623 22.7872 37.5862C22.5377 37.5001 22.2641 37.5166 22.0268 37.6322C21.7895 37.7477 21.6078 37.9528 21.5217 38.2023C21.4356 38.4518 21.4522 38.7254 21.5677 38.9627C21.6833 39.2 21.8884 39.3817 22.1379 39.4678V39.5208Z" fill="black"/>
<path d="M24.3638 55.4221C24.3638 63.9736 26.8996 72.3332 31.6506 79.4435C36.4016 86.5539 43.1544 92.0958 51.055 95.3683C58.9556 98.6409 67.6492 99.4971 76.0365 97.8288C84.4237 96.1604 92.1279 92.0425 98.1748 85.9956C104.222 79.9487 108.34 72.2446 110.008 63.8573C111.676 55.4701 110.82 46.7764 107.547 38.8758C104.275 30.9752 98.7331 24.2224 91.6227 19.4714C84.5123 14.7204 76.1528 12.1846 67.6012 12.1846C56.1382 12.1986 45.1488 16.7585 37.0432 24.8641C28.9377 32.9696 24.3778 43.9591 24.3638 55.4221V55.4221ZM108.851 55.4221C108.851 63.5805 106.432 71.5558 101.899 78.3393C97.3667 85.1228 90.9243 90.4099 83.3869 93.532C75.8494 96.6541 67.5555 97.471 59.5538 95.8794C51.5521 94.2877 44.2021 90.359 38.4332 84.5901C32.6643 78.8212 28.7356 71.4712 27.144 63.4695C25.5524 55.4679 26.3692 47.1739 29.4914 39.6364C32.6135 32.099 37.9005 25.6567 44.684 21.1241C51.4675 16.5915 59.4428 14.1722 67.6012 14.1722C78.5371 14.1862 89.021 18.5367 96.7538 26.2695C104.487 34.0023 108.837 44.4862 108.851 55.4221V55.4221Z" fill="black"/>
<path d="M82.1114 41.5086C80.3917 39.7449 78.3285 38.3528 76.0493 37.4183C73.7701 36.4838 71.3234 36.0269 68.8606 36.0758C66.4427 36.0242 64.0398 36.4678 61.7998 37.3793C59.5597 38.2908 57.5299 39.651 55.835 41.3762C53.4808 43.6901 51.8352 46.6273 51.0912 49.8434H46.9569L45.6318 52.8911H50.6274C50.6274 53.3814 50.6274 53.8982 50.6274 54.415C50.6274 54.9318 50.6274 55.4353 50.6274 55.9388H46.9569L45.6318 58.9865H51.0912C51.8389 62.1973 53.4842 65.1293 55.835 67.4405C59.1422 70.6107 63.4871 72.4735 68.0636 72.683C72.64 72.8926 77.137 71.4348 80.7201 68.5801V64.0881C79.2804 65.8398 77.4697 67.25 75.4188 68.217C73.368 69.184 71.128 69.6837 68.8606 69.6799C65.6116 69.6862 62.4456 68.6549 59.8238 66.7362C57.2019 64.8175 55.2613 62.1117 54.2846 59.013H74.6777L76.0028 55.9653H53.7281C53.7281 55.4618 53.6618 54.9582 53.6618 54.4415C53.6618 53.9247 53.6618 53.4079 53.7281 52.9176H77.3146L78.6397 49.8699H54.2846C55.2571 46.7677 57.1963 44.0578 59.8187 42.1362C62.4412 40.2147 65.6095 39.1822 68.8606 39.1897C71.1133 39.1957 73.3383 39.6864 75.3846 40.6284C77.4309 41.5704 79.2506 42.9416 80.7201 44.6491L82.1114 41.5086Z" fill="black"/>
</svg>
