<svg width="128" height="111" viewBox="0 0 128 111" fill="none" xmlns="http://www.w3.org/2000/svg">
<path d="M72.4026 0C71.4485 0 70.5077 -3.23329e-06 69.5669 0.0795018C68.6261 0.159007 67.6853 0 66.7445 0C65.8037 0 64.8496 -3.23329e-06 63.9088 0.0795018C62.968 0.159007 62.0272 0 61.0731 0C60.1191 0 59.1783 -3.23329e-06 58.2507 0.0795018C57.3232 0.159007 56.3691 0 55.415 0C40.718 4.38004e-07 26.623 5.83833 16.2307 16.2307C5.83837 26.623 0 40.718 0 55.415C0 70.112 5.83837 84.207 16.2307 94.5993C26.623 104.992 40.718 110.83 55.415 110.83C56.3691 110.83 57.3099 110.83 58.2507 110.751C59.1915 110.671 60.1323 110.83 61.0731 110.83C62.0139 110.83 62.968 110.83 63.9088 110.751C64.8496 110.671 65.7904 110.83 66.7445 110.83C67.6985 110.83 68.6393 110.83 69.5669 110.751C70.4945 110.671 71.4485 110.83 72.4026 110.83C79.6798 110.83 86.8857 109.397 93.609 106.612C100.332 103.827 106.441 99.7451 111.587 94.5993C116.733 89.4536 120.815 83.3447 123.599 76.6214C126.384 69.8982 127.818 62.6922 127.818 55.415C127.818 48.1378 126.384 40.9318 123.599 34.2086C120.815 27.4853 116.733 21.3764 111.587 16.2307C106.441 11.0849 100.332 7.00307 93.609 4.21821C86.8857 1.43334 79.6798 -2.16877e-07 72.4026 0V0ZM7.65898 55.3885C7.67127 44.0577 11.2812 33.0234 17.9683 23.8762C24.6554 14.7291 34.0743 7.9415 44.8674 4.49201C34.9121 8.76591 26.4287 15.8655 20.4675 24.912C14.5064 33.9585 11.3291 44.5546 11.3291 55.3885C11.3291 66.2224 14.5064 76.8185 20.4675 85.865C26.4287 94.9114 34.9121 102.011 44.8674 106.285C34.0743 102.835 24.6554 96.0479 17.9683 86.9008C11.2812 77.7536 7.67127 66.7193 7.65898 55.3885V55.3885ZM17.0008 55.3885C17.0099 66.2186 20.1893 76.8092 26.1467 85.8536C32.1041 94.898 40.5788 102.001 50.5255 106.285C39.7258 102.846 30.2999 96.0616 23.6109 86.912C16.922 77.7624 13.3168 66.7224 13.3168 55.3885C13.3168 44.0546 16.922 33.0146 23.6109 23.865C30.2999 14.7154 39.7258 7.93064 50.5255 4.49201C40.5788 8.77646 32.1041 15.879 26.1467 24.9234C20.1893 33.9678 17.0099 44.5584 17.0008 55.3885ZM5.72437 55.3885C5.73346 66.2186 8.9128 76.8092 14.8702 85.8536C20.8276 94.898 29.3024 102.001 39.249 106.285C28.4493 102.846 19.0234 96.0616 12.3345 86.912C5.64553 77.7624 2.04036 66.7224 2.04036 55.3885C2.04036 44.0546 5.64553 33.0146 12.3345 23.865C19.0234 14.7154 28.4493 7.93064 39.249 4.49201C29.3024 8.77646 20.8276 15.879 14.8702 24.9234C8.9128 33.9678 5.73346 44.5584 5.72437 55.3885V55.3885ZM72.4556 108.816C61.8864 108.826 51.5516 105.702 42.7585 99.8375C33.9654 93.9732 27.1093 85.6327 23.0573 75.871C19.0054 66.1094 17.9398 55.3652 19.9954 44.9979C22.0509 34.6305 27.1352 25.1057 34.605 17.6284C42.0748 10.1512 51.5946 5.05744 61.9599 2.99163C72.3253 0.925822 83.0704 1.98074 92.8361 6.02297C102.602 10.0652 110.949 16.9131 116.822 25.7003C122.695 34.4875 125.83 44.8193 125.83 55.3885C125.823 69.5586 120.193 83.1467 110.175 93.169C100.158 103.191 86.5727 108.828 72.4026 108.842L72.4556 108.816Z" fill="black"/>
<path d="M97.6059 97.7119C97.8198 97.5751 97.9741 97.3626 98.038 97.1169C98.1019 96.8711 98.0706 96.6104 97.9504 96.3868C97.8538 96.2174 97.7089 96.0807 97.5342 95.9941C97.3595 95.9075 97.1629 95.875 96.9697 95.9006C96.7764 95.9263 96.5951 96.009 96.449 96.1382C96.303 96.2674 96.1988 96.4372 96.1497 96.6259C96.1007 96.8146 96.109 97.0137 96.1736 97.1976C96.2382 97.3816 96.3562 97.5422 96.5125 97.6587C96.6688 97.7753 96.8564 97.8426 97.0511 97.8521C97.2459 97.8615 97.439 97.8127 97.6059 97.7119V97.7119Z" fill="black"/>
<path d="M112.513 80.3662C112.422 80.5179 112.373 80.6907 112.37 80.8674C112.367 81.0441 112.411 81.2184 112.497 81.3729C112.583 81.5273 112.708 81.6564 112.86 81.7472C113.011 81.8379 113.184 81.8872 113.361 81.8901C113.531 81.8875 113.697 81.8425 113.846 81.7592C113.994 81.6759 114.119 81.5569 114.209 81.4131C114.348 81.1881 114.392 80.9173 114.331 80.6601C114.27 80.4029 114.109 80.1804 113.884 80.0416C113.659 79.9028 113.389 79.859 113.131 79.9199C112.874 79.9808 112.652 80.1413 112.513 80.3662V80.3662Z" fill="black"/>
<path d="M110.406 83.467C110.327 83.5715 110.269 83.6909 110.237 83.8181C110.204 83.9453 110.198 84.0777 110.218 84.2075C110.238 84.3372 110.283 84.4617 110.352 84.5735C110.421 84.6853 110.511 84.7821 110.618 84.8583C110.786 84.9863 110.99 85.0561 111.201 85.0571C111.355 85.0571 111.508 85.0211 111.646 84.9522C111.784 84.8832 111.904 84.783 111.996 84.6595V84.6595C112.13 84.4512 112.182 84.201 112.143 83.9566C112.104 83.7121 111.976 83.4907 111.784 83.3345C111.582 83.173 111.325 83.0965 111.068 83.1213C110.811 83.146 110.573 83.27 110.406 83.467Z" fill="black"/>
<path d="M105.318 20.1542C105.132 20.3406 105.027 20.5932 105.027 20.8565C105.027 21.1199 105.132 21.3725 105.318 21.5588C105.409 21.6483 105.516 21.719 105.635 21.7668C105.753 21.8145 105.879 21.8384 106.007 21.8371C106.141 21.8363 106.273 21.8089 106.395 21.7566C106.518 21.7043 106.629 21.628 106.723 21.5323C106.909 21.346 107.013 21.0934 107.013 20.8301C107.013 20.5667 106.909 20.3141 106.723 20.1278V20.1278C106.531 19.9483 106.277 19.8507 106.015 19.8556C105.753 19.8606 105.503 19.9677 105.318 20.1542Z" fill="black"/>
<path d="M102.456 17.6498C102.29 17.8524 102.211 18.1122 102.236 18.3727C102.261 18.6332 102.387 18.8734 102.588 19.0411C102.765 19.1939 102.99 19.2784 103.224 19.2796C103.372 19.2787 103.517 19.245 103.65 19.1808C103.783 19.1166 103.9 19.0236 103.993 18.9086C104.158 18.7059 104.237 18.4462 104.212 18.1857C104.187 17.9252 104.061 17.685 103.86 17.5173C103.655 17.351 103.393 17.2717 103.131 17.2964C102.868 17.3212 102.626 17.4481 102.456 17.6498V17.6498Z" fill="black"/>
<path d="M85.4548 9.01074C85.3801 9.26377 85.4076 9.536 85.5315 9.76892C85.6554 10.0018 85.8658 10.1769 86.1174 10.2563C86.2141 10.2693 86.3122 10.2693 86.4089 10.2563C86.6493 10.2596 86.8827 10.1756 87.0659 10.02C87.2492 9.86429 87.3697 9.64748 87.4053 9.40971C87.4409 9.17193 87.3891 8.92932 87.2595 8.72683C87.1299 8.52434 86.9312 8.37569 86.7004 8.30845C86.5725 8.27035 86.4383 8.25841 86.3057 8.27331C86.173 8.28821 86.0448 8.32965 85.9285 8.39519C85.8123 8.46073 85.7104 8.54901 85.629 8.65477C85.5477 8.76052 85.4884 8.88159 85.4548 9.01074V9.01074Z" fill="black"/>
<path d="M83.1226 103.462C83.315 103.421 83.4908 103.323 83.6277 103.182C83.7645 103.04 83.8562 102.861 83.8912 102.668C83.9262 102.474 83.9029 102.274 83.8242 102.094C83.7455 101.913 83.615 101.76 83.4492 101.654C83.2835 101.548 83.0899 101.493 82.8931 101.497C82.6963 101.501 82.5051 101.564 82.3437 101.676C82.1824 101.789 82.0582 101.947 81.9869 102.131C81.9156 102.314 81.9004 102.515 81.9432 102.707C81.9937 102.927 82.1164 103.123 82.2918 103.265C82.4672 103.407 82.6851 103.486 82.9106 103.489L83.1226 103.462Z" fill="black"/>
<path d="M71.2233 6.24116C70.9597 6.24116 70.7069 6.34586 70.5206 6.53224C70.3342 6.71861 70.2295 6.9714 70.2295 7.23497C70.2295 7.49855 70.3342 7.75133 70.5206 7.93771C70.7069 8.12409 70.9597 8.22879 71.2233 8.22879V8.22879C71.4869 8.21473 71.7341 8.09654 71.9105 7.90022C72.087 7.70391 72.1782 7.44553 72.1641 7.18196C72.1501 6.91838 72.0319 6.67118 71.8356 6.49475C71.6393 6.31831 71.3809 6.2271 71.1173 6.24116H71.2233Z" fill="black"/>
<path d="M66.4793 7.6853C66.5055 7.92658 66.6203 8.14954 66.8014 8.31108C66.9825 8.47263 67.2171 8.56128 67.4598 8.55986H67.5791C67.7784 8.5398 67.9672 8.46076 68.1214 8.33284C68.2755 8.20491 68.388 8.03391 68.4445 7.84172C68.5009 7.64952 68.4988 7.44484 68.4383 7.25386C68.3779 7.06289 68.2618 6.89429 68.105 6.76961C67.9482 6.64494 67.7578 6.56985 67.5581 6.55396C67.3585 6.53806 67.1586 6.5821 66.984 6.68041C66.8095 6.77871 66.6682 6.92681 66.5783 7.10582C66.4884 7.28482 66.4539 7.48659 66.4793 7.6853Z" fill="black"/>
<path d="M78.7897 8.59965H78.9221C79.1635 8.59902 79.3966 8.51171 79.5791 8.35363C79.7615 8.19554 79.881 7.9772 79.9159 7.73836C79.9327 7.60869 79.9236 7.47701 79.8894 7.35084C79.8551 7.22467 79.7963 7.10647 79.7163 7.00307C79.6363 6.89967 79.5367 6.8131 79.4231 6.74827C79.3096 6.68343 79.1844 6.64165 79.0547 6.62529C78.9199 6.59405 78.7801 6.59127 78.6442 6.61716C78.5083 6.64305 78.3794 6.69704 78.2655 6.77564C78.1517 6.85424 78.0555 6.95573 77.9832 7.07363C77.9108 7.19153 77.8639 7.32326 77.8454 7.46034C77.8269 7.59743 77.8371 7.73687 77.8756 7.86974C77.9141 8.00262 77.9798 8.12599 78.0687 8.23199C78.1576 8.33798 78.2676 8.42427 78.3918 8.48529C78.5159 8.54632 78.6514 8.58074 78.7897 8.58639V8.59965Z" fill="black"/>
<path d="M75.1586 6.26764C74.8971 6.25312 74.6404 6.3424 74.4444 6.5161C74.2484 6.68979 74.1288 6.93387 74.1117 7.19522C74.1007 7.45938 74.1925 7.71752 74.368 7.91526C74.5435 8.11301 74.789 8.2349 75.0526 8.25527C75.3162 8.25527 75.5689 8.15057 75.7553 7.96419C75.9417 7.77782 76.0464 7.52503 76.0464 7.26146C76.0464 6.99788 75.9417 6.7451 75.7553 6.55872C75.5689 6.37234 75.3162 6.26764 75.0526 6.26764H75.1586Z" fill="black"/>
<path d="M67.566 104.271H67.6852C67.9283 104.267 68.1615 104.174 68.3417 104.011C68.5219 103.848 68.637 103.625 68.6658 103.384C68.6881 103.188 68.652 102.991 68.562 102.816C68.4721 102.641 68.3323 102.497 68.1604 102.402C67.9885 102.306 67.7922 102.264 67.5963 102.28C67.4004 102.296 67.2137 102.37 67.0598 102.493C66.906 102.615 66.7919 102.78 66.7319 102.968C66.672 103.155 66.6689 103.356 66.7231 103.545C66.7772 103.734 66.8862 103.902 67.0363 104.029C67.1863 104.156 67.3706 104.236 67.566 104.258V104.271Z" fill="black"/>
<path d="M79.1471 104.178H79.2797C79.5299 104.161 79.7636 104.047 79.9316 103.861C80.0996 103.675 80.1887 103.43 80.1801 103.18C80.1715 102.929 80.0659 102.692 79.8855 102.517C79.7052 102.343 79.4642 102.246 79.2134 102.246C78.9626 102.246 78.7216 102.343 78.5412 102.517C78.3609 102.692 78.2553 102.929 78.2467 103.18C78.2381 103.43 78.3272 103.675 78.4952 103.861C78.6632 104.047 78.8969 104.161 79.1471 104.178V104.178Z" fill="black"/>
<path d="M96.0688 13.3703C95.942 13.5924 95.9071 13.8553 95.9715 14.1029C96.0359 14.3504 96.1944 14.5631 96.4133 14.6954C96.5654 14.7875 96.7391 14.8378 96.9169 14.8411C97.0914 14.8426 97.2632 14.7982 97.415 14.7123C97.5669 14.6263 97.6935 14.5019 97.782 14.3515C97.8705 14.2012 97.9179 14.0302 97.9194 13.8557C97.9208 13.6812 97.8763 13.5094 97.7903 13.3576C97.7043 13.2057 97.5799 13.0792 97.4295 12.9907C97.2791 12.9022 97.1081 12.8549 96.9336 12.8535C96.7591 12.8521 96.5873 12.8967 96.4355 12.9827C96.2837 13.0688 96.1572 13.1933 96.0688 13.3437V13.3703Z" fill="black"/>
<path d="M91.1527 99.8716C91.108 99.7451 91.0382 99.6289 90.9474 99.5301C90.8567 99.4313 90.7469 99.3518 90.6246 99.2966C90.5024 99.2413 90.3702 99.2115 90.236 99.2087C90.1019 99.2059 89.9686 99.2303 89.8441 99.2805C89.7197 99.3306 89.6067 99.4054 89.5119 99.5004C89.4172 99.5954 89.3426 99.7086 89.2928 99.8332C89.243 99.9577 89.2188 100.091 89.2219 100.225C89.225 100.359 89.2553 100.491 89.3108 100.614C89.3843 100.796 89.5105 100.953 89.6733 101.064C89.8361 101.175 90.0281 101.235 90.2251 101.236C90.3516 101.235 90.4769 101.212 90.5961 101.17C90.8407 101.07 91.0362 100.878 91.1403 100.635C91.2445 100.392 91.2489 100.118 91.1527 99.8716V99.8716Z" fill="black"/>
<path d="M89.1121 10.15C89.0565 10.2729 89.0268 10.406 89.025 10.5409C89.0232 10.6758 89.0491 10.8096 89.1014 10.934C89.1536 11.0583 89.231 11.1706 89.3286 11.2637C89.4262 11.3568 89.5419 11.4288 89.6686 11.4751C89.7835 11.5162 89.9043 11.5386 90.0264 11.5414C90.2276 11.5433 90.4245 11.4834 90.5904 11.3696C90.7563 11.2558 90.8833 11.0937 90.9539 10.9053C91.0183 10.7815 91.0557 10.6455 91.064 10.5061C91.0722 10.3668 91.051 10.2273 91.0018 10.0967C90.9525 9.9661 90.8763 9.84734 90.7781 9.74816C90.6799 9.64898 90.5619 9.5716 90.4318 9.52106C90.3017 9.47051 90.1624 9.44795 90.023 9.45482C89.8836 9.46169 89.7472 9.49784 89.6227 9.56093C89.4982 9.62402 89.3884 9.71263 89.3004 9.82099C89.2124 9.92934 89.1482 10.055 89.1121 10.1898V10.15Z" fill="black"/>
<path d="M86.912 102.468C87.1611 102.386 87.3684 102.21 87.4896 101.978C87.6109 101.745 87.6366 101.474 87.5613 101.223C87.5306 101.09 87.4728 100.965 87.3915 100.855C87.3103 100.745 87.2073 100.653 87.089 100.585C86.9708 100.517 86.8397 100.474 86.7041 100.459C86.5685 100.444 86.4311 100.456 86.3007 100.497C86.1702 100.537 86.0494 100.603 85.9458 100.692C85.8422 100.781 85.758 100.89 85.6985 101.013C85.639 101.136 85.6055 101.27 85.5999 101.406C85.5944 101.543 85.617 101.679 85.6664 101.806C85.7301 102.007 85.8551 102.182 86.0239 102.308C86.1927 102.434 86.3967 102.504 86.6072 102.508C86.7101 102.508 86.8125 102.495 86.912 102.468V102.468Z" fill="black"/>
<path d="M62.703 8.30835C62.7436 8.53882 62.8642 8.74758 63.0436 8.89787C63.223 9.04815 63.4496 9.13032 63.6836 9.1299H63.8691C64.1292 9.0807 64.359 8.93021 64.5081 8.71153C64.6572 8.49284 64.7134 8.22388 64.6642 7.96382C64.615 7.70376 64.4645 7.47391 64.2458 7.32481C64.0271 7.17571 63.7582 7.11956 63.4981 7.16876C63.2446 7.22024 63.0206 7.36733 62.8726 7.57949C62.7245 7.79166 62.6638 8.05265 62.703 8.30835Z" fill="black"/>
<path d="M63.8822 103.728C64.1162 103.728 64.3429 103.646 64.5223 103.496C64.7016 103.346 64.8222 103.137 64.8628 102.906C64.8876 102.778 64.8866 102.647 64.86 102.519C64.8333 102.391 64.7814 102.27 64.7074 102.163C64.6333 102.056 64.5386 101.964 64.4288 101.894C64.319 101.823 64.1962 101.776 64.0677 101.753C63.8077 101.706 63.5394 101.764 63.322 101.914C63.1045 102.065 62.9557 102.295 62.9083 102.555C62.8608 102.815 62.9186 103.084 63.069 103.301C63.2193 103.518 63.4499 103.667 63.71 103.715L63.8822 103.728Z" fill="black"/>
<path d="M121.457 51.2805C121.446 51.15 121.409 51.0231 121.349 50.9068C121.288 50.7906 121.205 50.6873 121.105 50.603C121.005 50.5188 120.889 50.4551 120.764 50.4156C120.639 50.3761 120.508 50.3616 120.377 50.3729C120.247 50.3842 120.12 50.4211 120.003 50.4815C119.887 50.5419 119.784 50.6246 119.7 50.7248C119.615 50.8251 119.552 50.941 119.512 51.0659C119.473 51.1908 119.458 51.3223 119.47 51.4528C119.495 51.7001 119.611 51.9295 119.794 52.0979C119.977 52.2662 120.215 52.362 120.463 52.3671H120.543C120.675 52.3572 120.803 52.321 120.921 52.2607C121.039 52.2004 121.143 52.1172 121.228 52.016C121.314 51.9148 121.378 51.7976 121.417 51.6713C121.456 51.5451 121.47 51.4122 121.457 51.2805V51.2805Z" fill="black"/>
<path d="M118.993 42.8403C118.755 42.8964 118.545 43.0383 118.405 43.2389C118.265 43.4396 118.204 43.6848 118.234 43.9276C118.263 44.1705 118.381 44.3939 118.565 44.5552C118.749 44.7164 118.987 44.8041 119.231 44.8014H119.47C119.725 44.7357 119.944 44.5726 120.08 44.3472C120.216 44.1218 120.259 43.852 120.198 43.5956C120.139 43.3357 119.978 43.1102 119.752 42.9686C119.526 42.827 119.253 42.7808 118.993 42.8403V42.8403Z" fill="black"/>
<path d="M119.84 46.5772C119.594 46.6177 119.373 46.7493 119.219 46.9457C119.066 47.1421 118.991 47.389 119.012 47.6375C119.032 47.886 119.144 48.1179 119.327 48.2872C119.51 48.4565 119.75 48.5509 119.999 48.5515H120.158C120.42 48.5094 120.655 48.3649 120.81 48.15C120.965 47.935 121.029 47.6672 120.987 47.4054C120.944 47.1435 120.8 46.9092 120.585 46.7539C120.37 46.5986 120.102 46.535 119.84 46.5772V46.5772Z" fill="black"/>
<path d="M121.006 63.2065C121.045 62.945 120.979 62.679 120.822 62.4658C120.666 62.2526 120.432 62.1094 120.172 62.0669C119.912 62.0249 119.645 62.0878 119.432 62.2418C119.218 62.3959 119.074 62.6285 119.032 62.8885C118.994 63.15 119.06 63.416 119.216 63.6292C119.372 63.8424 119.606 63.9856 119.867 64.028H120.013C120.249 64.0316 120.479 63.9509 120.661 63.8003C120.843 63.6498 120.965 63.4392 121.006 63.2065V63.2065Z" fill="black"/>
<path d="M120.623 54.1958C120.36 54.2027 120.111 54.3119 119.928 54.5C119.744 54.6881 119.642 54.9403 119.642 55.2028V55.3884C119.642 55.6519 119.747 55.9047 119.933 56.0911C120.12 56.2775 120.372 56.3822 120.636 56.3822C120.899 56.3822 121.152 56.2775 121.339 56.0911C121.525 55.9047 121.63 55.6519 121.63 55.3884C121.637 55.3534 121.637 55.3173 121.63 55.2824C121.636 55.2429 121.636 55.2026 121.63 55.1631C121.619 54.9029 121.509 54.6569 121.321 54.4766C121.133 54.2962 120.883 54.1956 120.623 54.1958V54.1958Z" fill="black"/>
<path d="M119.178 70.7993C119.238 70.6127 119.242 70.4122 119.189 70.2233C119.136 70.0344 119.028 69.8654 118.879 69.7377C118.73 69.61 118.547 69.5293 118.352 69.5057C118.157 69.4822 117.96 69.5168 117.784 69.6053C117.609 69.6938 117.464 69.8322 117.368 70.0031C117.271 70.1739 117.227 70.3695 117.241 70.5652C117.256 70.7609 117.328 70.9481 117.448 71.1029C117.569 71.2578 117.733 71.3734 117.919 71.4354C118.02 71.4532 118.123 71.4532 118.224 71.4354C118.429 71.439 118.63 71.3801 118.8 71.2664C118.971 71.1528 119.102 70.9898 119.178 70.7993Z" fill="black"/>
<path d="M117.8 74.4699C117.854 74.3484 117.883 74.2172 117.886 74.0841C117.889 73.951 117.864 73.8188 117.815 73.6952C117.766 73.5716 117.692 73.4592 117.598 73.3646C117.504 73.2701 117.393 73.1953 117.27 73.1448C117.148 73.0885 117.017 73.0577 116.883 73.0541C116.75 73.0505 116.617 73.0742 116.493 73.1238C116.368 73.1735 116.256 73.248 116.162 73.3427C116.067 73.4375 115.993 73.5505 115.944 73.6748C115.89 73.7964 115.861 73.9276 115.858 74.0607C115.855 74.1937 115.88 74.326 115.929 74.4496C115.978 74.5732 116.052 74.6856 116.146 74.7801C116.24 74.8747 116.351 74.9494 116.474 74.9999C116.596 75.0528 116.727 75.0798 116.859 75.0794C117.059 75.0843 117.255 75.0287 117.423 74.92C117.591 74.8112 117.722 74.6544 117.8 74.4699Z" fill="black"/>
<path d="M109.452 86.3028C109.253 86.1271 108.993 86.0375 108.728 86.0536C108.464 86.0698 108.216 86.1904 108.041 86.3889C107.865 86.5875 107.775 86.8477 107.791 87.1124C107.808 87.377 107.928 87.6244 108.127 87.8001C108.304 87.9629 108.536 88.0528 108.776 88.0519C108.919 88.0515 109.061 88.0205 109.191 87.9611C109.321 87.9017 109.437 87.8152 109.531 87.7074C109.618 87.61 109.686 87.4964 109.729 87.3731C109.772 87.2497 109.79 87.1191 109.783 86.9886C109.776 86.8582 109.742 86.7304 109.686 86.6128C109.629 86.4951 109.549 86.3897 109.452 86.3028V86.3028Z" fill="black"/>
<path d="M114.699 32.1995C114.498 32.3007 114.337 32.4671 114.243 32.6717C114.149 32.8762 114.127 33.1067 114.181 33.3254C114.235 33.544 114.361 33.7379 114.54 33.8752C114.718 34.0125 114.938 34.0851 115.163 34.0812C115.325 34.0809 115.485 34.0399 115.627 33.9619C115.861 33.8389 116.036 33.6281 116.114 33.3759C116.192 33.1236 116.167 32.8507 116.044 32.617C115.921 32.3833 115.711 32.208 115.458 32.1297C115.206 32.0514 114.933 32.0765 114.699 32.1995V32.1995Z" fill="black"/>
<path d="M112.725 28.8863C112.512 29.025 112.362 29.2404 112.305 29.4875C112.248 29.7346 112.289 29.994 112.42 30.2114C112.561 30.4208 112.775 30.5697 113.02 30.6286C113.266 30.6875 113.524 30.6521 113.745 30.5294C113.952 30.3866 114.098 30.1713 114.155 29.9261C114.211 29.6808 114.174 29.4234 114.05 29.2044C113.913 28.9899 113.699 28.8369 113.451 28.7776C113.204 28.7182 112.944 28.7572 112.725 28.8863V28.8863Z" fill="black"/>
<path d="M116.409 35.6317C116.197 35.7217 116.024 35.8823 115.917 36.0859C115.811 36.2896 115.778 36.5238 115.825 36.7487C115.872 36.9737 115.995 37.1755 116.174 37.3197C116.353 37.4639 116.576 37.5417 116.806 37.5398C116.953 37.5386 117.098 37.5048 117.23 37.4408C117.363 37.3769 117.479 37.2844 117.572 37.1699C117.664 37.0555 117.73 36.922 117.764 36.779C117.799 36.6361 117.801 36.4873 117.771 36.3433C117.741 36.1994 117.679 36.064 117.591 35.9467C117.502 35.8294 117.388 35.7333 117.258 35.6652C117.128 35.5971 116.984 35.5588 116.837 35.553C116.69 35.5472 116.544 35.5741 116.409 35.6317V35.6317Z" fill="black"/>
<path d="M119.509 65.8437C119.383 65.8122 119.252 65.8061 119.123 65.8257C118.995 65.8454 118.871 65.8905 118.76 65.9583C118.649 66.0262 118.553 66.1154 118.477 66.2208C118.401 66.3263 118.346 66.4458 118.317 66.5725C118.256 66.8288 118.299 67.0987 118.435 67.3241C118.571 67.5495 118.791 67.7125 119.046 67.7783H119.284C119.508 67.7758 119.724 67.6989 119.899 67.5598C120.075 67.4206 120.198 67.2271 120.251 67.0097C120.303 66.7571 120.255 66.4942 120.116 66.2766C119.978 66.059 119.76 65.9038 119.509 65.8437V65.8437Z" fill="black"/>
<path d="M108.021 22.8845C107.871 23.0179 107.765 23.1933 107.717 23.3879C107.669 23.5825 107.681 23.7871 107.751 23.9748C107.821 24.1626 107.947 24.3247 108.111 24.4399C108.275 24.5551 108.47 24.618 108.67 24.6204C108.861 24.621 109.047 24.5667 109.208 24.4641C109.369 24.3615 109.496 24.2149 109.576 24.0417C109.656 23.8685 109.684 23.6761 109.657 23.4874C109.63 23.2986 109.55 23.1216 109.425 22.9773C109.339 22.8788 109.235 22.7982 109.118 22.7403C109 22.6823 108.873 22.648 108.742 22.6394C108.612 22.6308 108.481 22.648 108.357 22.69C108.233 22.7321 108.119 22.7982 108.021 22.8845Z" fill="black"/>
<path d="M52.4866 100.441C52.6081 100.493 52.7388 100.52 52.8709 100.521C53.1174 100.522 53.3556 100.432 53.5392 100.267C53.7228 100.103 53.8388 99.876 53.8645 99.6309C53.8903 99.3857 53.824 99.1397 53.6785 98.9407C53.5331 98.7416 53.3189 98.6038 53.0775 98.5538C52.8361 98.5039 52.5847 98.5454 52.3722 98.6704C52.1598 98.7954 52.0014 98.9949 51.9277 99.2301C51.8541 99.4654 51.8705 99.7196 51.9738 99.9434C52.0771 100.167 52.2598 100.345 52.4866 100.441V100.441Z" fill="black"/>
<path d="M48.9486 98.7714C49.0859 98.8494 49.2411 98.8905 49.3991 98.8906C49.5825 98.8895 49.7622 98.8383 49.9186 98.7426C50.0751 98.6469 50.2024 98.5102 50.2869 98.3474C50.3937 98.1153 50.4071 97.851 50.3242 97.6094C50.2413 97.3677 50.0686 97.1673 49.8418 97.0496C49.6151 96.932 49.3517 96.9062 49.1064 96.9776C48.8611 97.049 48.6527 97.2121 48.5245 97.4331C48.4628 97.5485 48.4249 97.675 48.4128 97.8052C48.4008 97.9355 48.415 98.0669 48.4545 98.1916C48.494 98.3163 48.5581 98.4319 48.6429 98.5314C48.7278 98.631 48.8317 98.7126 48.9486 98.7714V98.7714Z" fill="black"/>
<path d="M55.3088 10.3358C55.3753 10.5326 55.5019 10.7037 55.6706 10.8249C55.8394 10.9461 56.0419 11.0114 56.2496 11.0116H56.5677C56.815 10.9242 57.0184 10.7437 57.1347 10.5086C57.251 10.2736 57.271 10.0023 57.1904 9.75273C57.1499 9.62805 57.0852 9.5126 56.9999 9.41305C56.9146 9.3135 56.8104 9.23184 56.6934 9.17272C56.5764 9.1136 56.4489 9.07821 56.3181 9.0686C56.1874 9.05898 56.056 9.07531 55.9316 9.11668C55.6933 9.20399 55.4967 9.37812 55.3812 9.60416C55.2658 9.8302 55.2399 10.0915 55.3088 10.3358V10.3358Z" fill="black"/>
<path d="M59.6818 7.99072C59.4422 8.04681 59.2321 8.18971 59.0918 8.39182C58.9516 8.59394 58.8913 8.84087 58.9226 9.08486C58.954 9.32885 59.0747 9.55256 59.2614 9.7127C59.4481 9.87284 59.6876 9.95804 59.9335 9.95182H60.172C60.3061 9.92727 60.4336 9.87545 60.5467 9.79952C60.6599 9.7236 60.7562 9.62519 60.8297 9.51047C60.9032 9.39575 60.9524 9.26717 60.9741 9.13266C60.9958 8.99814 60.9896 8.86058 60.9559 8.72856C60.9222 8.59653 60.8618 8.47284 60.7783 8.36518C60.6948 8.25751 60.59 8.16816 60.4705 8.10269C60.351 8.03722 60.2193 7.99704 60.0836 7.98461C59.9479 7.97218 59.8112 7.9878 59.6818 8.03047V7.99072Z" fill="black"/>
<path d="M45.5429 96.8371C45.7009 96.9393 45.8848 96.9944 46.073 96.9962C46.2858 96.9893 46.491 96.9151 46.6591 96.7843C46.8271 96.6535 46.9494 96.4728 47.0083 96.2681C47.0671 96.0635 47.0596 95.8454 46.9868 95.6453C46.914 95.4451 46.7796 95.2733 46.603 95.1543C46.3824 95.0316 46.1239 94.9963 45.8785 95.0552C45.6331 95.114 45.4187 95.2629 45.2779 95.4723C45.1348 95.6893 45.0825 95.9537 45.132 96.2088C45.1815 96.4639 45.329 96.6895 45.5429 96.8371Z" fill="black"/>
<path d="M48.326 13.4897C48.4101 13.649 48.5358 13.7825 48.6899 13.8759C48.8439 13.9692 49.0205 14.0189 49.2006 14.0197C49.361 14.0178 49.5191 13.9817 49.6644 13.9137C49.8919 13.7898 50.063 13.583 50.142 13.3362C50.221 13.0894 50.2018 12.8217 50.0884 12.5887C49.9654 12.355 49.7546 12.1797 49.5024 12.1014C49.2501 12.0231 48.9771 12.0483 48.7434 12.1713C48.5097 12.2943 48.3345 12.5051 48.2562 12.7573C48.1779 13.0095 48.203 13.2825 48.326 13.5162V13.4897Z" fill="black"/>
<path d="M42.3235 94.6243C42.5283 94.7654 42.7792 94.8235 43.0253 94.7866C43.2713 94.7497 43.4941 94.6206 43.6485 94.4255C43.7749 94.27 43.8513 94.0798 43.8676 93.8801C43.884 93.6803 43.8395 93.4803 43.7402 93.3062C43.6408 93.1322 43.4911 92.9923 43.3108 92.9048C43.1305 92.8174 42.9279 92.7864 42.7297 92.8162C42.5315 92.8459 42.3469 92.9349 42.2002 93.0714C42.0534 93.2079 41.9514 93.3856 41.9075 93.5811C41.8635 93.7767 41.8798 93.981 41.954 94.1671C42.0282 94.3533 42.157 94.5126 42.3235 94.6243V94.6243Z" fill="black"/>
<path d="M26.197 69.779H26.462C26.7168 69.7087 26.9332 69.5401 27.0637 69.3103C27.1942 69.0804 27.228 68.8081 27.1577 68.5533C27.0874 68.2985 26.9188 68.0821 26.6889 67.9516C26.4591 67.8212 26.1868 67.7874 25.932 67.8577C25.6909 67.9136 25.4793 68.0574 25.3386 68.2611C25.198 68.4648 25.1384 68.7136 25.1716 68.9589C25.2047 69.2042 25.3282 69.4283 25.5179 69.5873C25.7075 69.7463 25.9497 69.8289 26.197 69.8188V69.779Z" fill="black"/>
<path d="M32.4645 83.7054C32.6591 83.7055 32.8489 83.6453 33.0078 83.5331C33.2157 83.3904 33.3605 83.1731 33.4124 82.9264C33.4642 82.6796 33.419 82.4223 33.2861 82.208C33.2204 82.0874 33.1304 81.9817 33.0218 81.8976C32.9132 81.8134 32.7884 81.7528 32.6551 81.7193C32.5219 81.6859 32.3831 81.6804 32.2477 81.7033C32.1122 81.7262 31.983 81.777 31.8681 81.8523C31.7533 81.9277 31.6553 82.026 31.5803 82.1411C31.5054 82.2562 31.4551 82.3857 31.4327 82.5212C31.4103 82.6567 31.4163 82.7955 31.4502 82.9286C31.4841 83.0617 31.5452 83.1863 31.6297 83.2946C31.724 83.4269 31.8496 83.5336 31.9953 83.6053C32.141 83.677 32.3022 83.7114 32.4645 83.7054V83.7054Z" fill="black"/>
<path d="M28.7674 76.9873C28.9081 76.9867 29.0474 76.9597 29.1782 76.9078C29.4109 76.81 29.5991 76.6295 29.7064 76.4011C29.8138 76.1727 29.8326 75.9126 29.7594 75.671C29.6862 75.4295 29.526 75.2236 29.3098 75.0933C29.0937 74.963 28.8369 74.9174 28.5891 74.9654C28.3413 75.0133 28.1201 75.1514 27.9682 75.353C27.8163 75.5546 27.7445 75.8053 27.7666 76.0567C27.7888 76.3081 27.9034 76.5424 28.0882 76.7143C28.273 76.8862 28.515 76.9834 28.7674 76.9873V76.9873Z" fill="black"/>
<path d="M37.0628 23.2552C37.2278 23.2552 37.3902 23.2141 37.5353 23.1356C37.6805 23.0571 37.8038 22.9437 37.8942 22.8057C37.9845 22.6676 38.0391 22.5092 38.053 22.3448C38.0668 22.1804 38.0395 22.015 37.9735 21.8638C37.9075 21.7126 37.8048 21.5802 37.6748 21.4785C37.5448 21.3769 37.3916 21.3092 37.2289 21.2816C37.0662 21.254 36.8992 21.2673 36.743 21.3204C36.5867 21.3735 36.4462 21.4646 36.334 21.5856C36.2025 21.7274 36.1152 21.9045 36.0829 22.0951C36.0505 22.2858 36.0745 22.4818 36.1518 22.659C36.2292 22.8362 36.3566 22.987 36.5184 23.0929C36.6802 23.1988 36.8694 23.2552 37.0628 23.2552V23.2552Z" fill="black"/>
<path d="M30.4769 80.4192C30.643 80.4174 30.8064 80.3765 30.9539 80.2999C31.1858 80.1734 31.358 79.96 31.4326 79.7065C31.5071 79.453 31.4779 79.1803 31.3514 78.9483C31.2249 78.7164 31.0114 78.5442 30.7579 78.4697C30.5045 78.3951 30.2318 78.4243 29.9998 78.5508C29.8048 78.6561 29.6505 78.8235 29.5616 79.0266C29.4726 79.2296 29.4541 79.4565 29.5089 79.6713C29.5637 79.886 29.6888 80.0763 29.8642 80.2118C30.0396 80.3473 30.2552 80.4203 30.4769 80.4192V80.4192Z" fill="black"/>
<path d="M27.3368 73.436C27.4545 73.4332 27.571 73.4109 27.6813 73.3698C27.8599 73.2949 28.0127 73.1695 28.121 73.009C28.2292 72.8484 28.2883 72.6598 28.2908 72.4661C28.2933 72.2725 28.2391 72.0824 28.135 71.9191C28.031 71.7558 27.8814 71.6265 27.7049 71.547C27.5283 71.4675 27.3323 71.4414 27.1411 71.4718C26.9498 71.5022 26.7717 71.5878 26.6284 71.7181C26.4851 71.8483 26.383 72.0176 26.3347 72.2051C26.2863 72.3926 26.2938 72.5902 26.3562 72.7735C26.4288 72.9733 26.5628 73.145 26.7389 73.264C26.915 73.383 27.1243 73.4432 27.3368 73.436V73.436Z" fill="black"/>
<path d="M24.4611 58.4227C24.7235 58.4089 24.9702 58.2932 25.1484 58.1001C25.3267 57.9069 25.4223 57.6518 25.4151 57.3891C25.4117 57.258 25.3821 57.1289 25.328 57.0094C25.2739 56.89 25.1963 56.7826 25.0999 56.6936C25.0036 56.6047 24.8903 56.536 24.7669 56.4915C24.6435 56.4471 24.5125 56.4279 24.3815 56.435C24.1179 56.435 23.8652 56.5397 23.6788 56.7261C23.4924 56.9125 23.3877 57.1653 23.3877 57.4289C23.3877 57.6924 23.4924 57.9452 23.6788 58.1316C23.8652 58.318 24.1179 58.4227 24.3815 58.4227H24.4611Z" fill="black"/>
<path d="M24.4214 54.5934C24.6795 54.5902 24.9264 54.4881 25.1114 54.3081C25.2963 54.1281 25.4051 53.884 25.4152 53.6261C25.4187 53.4956 25.3965 53.3657 25.3498 53.2438C25.3031 53.1218 25.2328 53.0103 25.143 52.9155C25.0532 52.8208 24.9455 52.7446 24.8263 52.6915C24.707 52.6383 24.5785 52.6092 24.4479 52.6058C24.3181 52.6005 24.1884 52.6211 24.0666 52.6663C23.9447 52.7115 23.8331 52.7806 23.7381 52.8693C23.6432 52.9581 23.5668 53.0649 23.5135 53.1834C23.4602 53.302 23.431 53.4299 23.4276 53.5599C23.4241 53.6932 23.4471 53.8259 23.4953 53.9503C23.5435 54.0747 23.6159 54.1883 23.7084 54.2845C23.8009 54.3806 23.9115 54.4574 24.0339 54.5105C24.1563 54.5635 24.288 54.5917 24.4214 54.5934V54.5934Z" fill="black"/>
<path d="M25.3354 65.989H25.5209C25.7648 65.9652 25.9901 65.8485 26.1502 65.6631C26.3104 65.4777 26.393 65.2378 26.3811 64.9931C26.3692 64.7484 26.2636 64.5176 26.0862 64.3487C25.9088 64.1797 25.6732 64.0854 25.4282 64.0854C25.1832 64.0854 24.9476 64.1797 24.7702 64.3487C24.5928 64.5176 24.4872 64.7484 24.4753 64.9931C24.4633 65.2378 24.546 65.4777 24.7062 65.6631C24.8663 65.8485 25.0916 65.9652 25.3354 65.989Z" fill="black"/>
<path d="M41.9522 17.7296C42.044 17.8496 42.1624 17.9467 42.298 18.0134C42.4336 18.08 42.5828 18.1144 42.7339 18.1139C42.9529 18.113 43.1661 18.0435 43.3435 17.9151C43.5494 17.753 43.6839 17.5169 43.7186 17.2571C43.7532 16.9973 43.6852 16.7343 43.529 16.5238C43.3709 16.3335 43.1474 16.2089 42.9024 16.1746C42.6573 16.1403 42.4082 16.1987 42.2039 16.3383C42.094 16.4114 41.9999 16.5059 41.9273 16.6163C41.8548 16.7266 41.8053 16.8504 41.7818 16.9804C41.7583 17.1103 41.7612 17.2436 41.7905 17.3724C41.8198 17.5011 41.8748 17.6226 41.9522 17.7296V17.7296Z" fill="black"/>
<path d="M34.7043 86.806C34.8629 86.8066 35.0193 86.7693 35.1605 86.6972C35.3017 86.6251 35.4236 86.5201 35.516 86.3913C35.6084 86.2624 35.6686 86.1134 35.6916 85.9565C35.7147 85.7996 35.6998 85.6395 35.6483 85.4895C35.5968 85.3395 35.5102 85.204 35.3957 85.0944C35.2812 84.9847 35.1421 84.904 34.99 84.8591C34.838 84.8142 34.6774 84.8063 34.5216 84.8361C34.3659 84.8659 34.2195 84.9325 34.0948 85.0304C33.8871 85.1948 33.7526 85.4344 33.7204 85.6973C33.6881 85.9602 33.7608 86.2252 33.9225 86.435C34.0158 86.5525 34.1348 86.6471 34.2703 86.7114C34.4058 86.7757 34.5543 86.8081 34.7043 86.806V86.806Z" fill="black"/>
<path d="M39.7922 20.5654C40.0358 20.5622 40.2705 20.473 40.4547 20.3136C40.6012 20.1826 40.7055 20.0111 40.7545 19.8209C40.8035 19.6306 40.7951 19.4301 40.7302 19.2446C40.6653 19.0592 40.5468 18.8971 40.3899 18.779C40.2329 18.6608 40.0445 18.5918 39.8483 18.5807C39.6521 18.5696 39.4571 18.6169 39.2878 18.7166C39.1185 18.8163 38.9826 18.9639 38.8971 19.1409C38.8117 19.3178 38.7807 19.5161 38.8079 19.7107C38.8352 19.9053 38.9195 20.0874 39.0502 20.2341C39.1446 20.3372 39.2591 20.4198 39.3868 20.4768C39.5144 20.5338 39.6524 20.5639 39.7922 20.5654Z" fill="black"/>
<path d="M37.2086 89.7083C37.3332 89.7118 37.4573 89.6902 37.5734 89.6447C37.6895 89.5991 37.7953 89.5307 37.8843 89.4433C38.0541 89.2859 38.1636 89.0741 38.1939 88.8446C38.2242 88.6151 38.1734 88.3821 38.0503 88.1861C37.9272 87.99 37.7395 87.843 37.5196 87.7706C37.2997 87.6982 37.0614 87.7048 36.8459 87.7893C36.6303 87.8738 36.451 88.031 36.339 88.2336C36.2269 88.4362 36.1891 88.6716 36.2321 88.8991C36.2751 89.1266 36.3962 89.3319 36.5745 89.4797C36.7527 89.6274 36.977 89.7083 37.2086 89.7083V89.7083Z" fill="black"/>
<path d="M25.8788 43.1977H26.1305C26.3778 43.2078 26.62 43.1252 26.8097 42.9662C26.9994 42.8071 27.1229 42.5831 27.156 42.3378C27.1892 42.0925 27.1296 41.8436 26.9889 41.64C26.8483 41.4363 26.6367 41.2925 26.3956 41.2366C26.1409 41.1714 25.8708 41.2083 25.643 41.3395C25.4153 41.4707 25.2478 41.6858 25.1765 41.9389C25.1363 42.0676 25.1227 42.2032 25.1366 42.3373C25.1505 42.4714 25.1916 42.6013 25.2573 42.7191C25.323 42.8368 25.412 42.94 25.5188 43.0223C25.6257 43.1046 25.7481 43.1642 25.8788 43.1977V43.1977Z" fill="black"/>
<path d="M24.7524 62.2391H24.8717C25.1472 62.2236 25.4058 62.1012 25.5926 61.898C25.7793 61.6947 25.8794 61.4267 25.8717 61.1509C25.8639 60.875 25.7489 60.613 25.551 60.4206C25.3531 60.2282 25.088 60.1206 24.812 60.1206C24.536 60.1206 24.2709 60.2282 24.073 60.4206C23.8752 60.613 23.7601 60.875 23.7524 61.1509C23.7446 61.4267 23.8447 61.6947 24.0315 61.898C24.2182 62.1012 24.4768 62.2236 24.7524 62.2391V62.2391Z" fill="black"/>
<path d="M24.6202 50.764H24.7262C24.9727 50.7546 25.2068 50.6538 25.3831 50.4814C25.5594 50.3089 25.6653 50.077 25.6802 49.8308C25.695 49.5846 25.6179 49.3417 25.4636 49.1493C25.3093 48.9569 25.089 48.8287 24.8454 48.7896C24.7155 48.773 24.5836 48.7827 24.4574 48.8179C24.3313 48.8531 24.2135 48.9133 24.111 48.9948C24.0084 49.0763 23.9233 49.1776 23.8606 49.2925C23.7978 49.4075 23.7587 49.5339 23.7456 49.6642C23.7158 49.926 23.7912 50.189 23.9552 50.3952C24.1192 50.6014 24.3584 50.7341 24.6202 50.764V50.764Z" fill="black"/>
<path d="M25.1103 46.9612H25.2826C25.5154 46.9649 25.7418 46.8855 25.9215 46.7374C26.1011 46.5893 26.2222 46.3821 26.2631 46.1529C26.2994 45.9594 26.2773 45.7595 26.1998 45.5786C26.1223 45.3976 25.9928 45.2438 25.8277 45.1365C25.6626 45.0293 25.4694 44.9735 25.2726 44.9762C25.0757 44.9789 24.8841 45.04 24.7221 45.1518C24.56 45.2635 24.4348 45.4209 24.3623 45.6039C24.2898 45.787 24.2733 45.9874 24.3149 46.1798C24.3565 46.3722 24.4543 46.548 24.5959 46.6847C24.7375 46.8215 24.9165 46.9131 25.1103 46.948V46.9612Z" fill="black"/>
<path d="M28.6748 36.0022C28.9003 36.0003 29.1185 35.9217 29.2935 35.7794C29.4685 35.6371 29.5899 35.4394 29.6377 35.219C29.6854 34.9986 29.6568 34.7684 29.5565 34.5664C29.4561 34.3643 29.2901 34.2025 29.0856 34.1073C28.9659 34.051 28.8362 34.0191 28.704 34.0136C28.5719 34.008 28.4399 34.0289 28.3159 34.075C28.1919 34.1211 28.0784 34.1915 27.982 34.282C27.8856 34.3725 27.8082 34.4814 27.7544 34.6023C27.7006 34.7231 27.6714 34.8535 27.6687 34.9857C27.6659 35.118 27.6896 35.2494 27.7383 35.3724C27.787 35.4954 27.8597 35.6074 27.9523 35.7019C28.0448 35.7964 28.1553 35.8715 28.2772 35.9227C28.4034 35.9745 28.5384 36.0015 28.6748 36.0022Z" fill="black"/>
<path d="M111.082 27.5614C111.297 27.5623 111.506 27.4925 111.678 27.3626C111.889 27.2045 112.028 26.969 112.066 26.7081C112.103 26.4472 112.035 26.1821 111.877 25.9712C111.798 25.8668 111.7 25.7789 111.588 25.7124C111.476 25.6459 111.351 25.6022 111.222 25.5837C111.093 25.5653 110.961 25.5724 110.835 25.6048C110.709 25.6372 110.59 25.6942 110.485 25.7725C110.381 25.8508 110.293 25.9489 110.227 26.0612C110.16 26.1735 110.116 26.2978 110.098 26.427C110.079 26.5562 110.087 26.6877 110.119 26.8142C110.151 26.9406 110.208 27.0594 110.287 27.1638C110.381 27.2858 110.501 27.3849 110.639 27.4537C110.776 27.5226 110.928 27.5594 111.082 27.5614V27.5614Z" fill="black"/>
<path d="M105.477 89.1382C105.338 89.2771 105.243 89.4541 105.205 89.6468C105.167 89.8395 105.186 90.0392 105.262 90.2207C105.337 90.4021 105.464 90.5573 105.627 90.6665C105.791 90.7757 105.983 90.8341 106.179 90.8343C106.306 90.8356 106.433 90.8117 106.551 90.7639C106.67 90.7162 106.777 90.6455 106.868 90.556C106.966 90.4659 107.045 90.3569 107.101 90.2356C107.156 90.1142 107.186 89.983 107.19 89.8497C107.193 89.7164 107.17 89.5837 107.121 89.4596C107.072 89.3356 106.999 89.2225 106.906 89.1274C106.812 89.0322 106.701 88.9567 106.578 88.9056C106.454 88.8545 106.322 88.8286 106.189 88.8296C106.056 88.8306 105.924 88.8585 105.801 88.9115C105.679 88.9645 105.569 89.0416 105.477 89.1382V89.1382Z" fill="black"/>
<path d="M119.496 59.1648C119.485 59.2954 119.5 59.4268 119.54 59.5516C119.581 59.6763 119.645 59.7919 119.73 59.8917C119.815 59.9914 119.919 60.0734 120.036 60.1328C120.152 60.1923 120.28 60.2281 120.41 60.2381H120.49C120.683 60.2375 120.872 60.1807 121.033 60.0746C121.194 59.9685 121.321 59.8177 121.398 59.6407C121.475 59.4637 121.499 59.2681 121.466 59.0778C121.434 58.8875 121.347 58.7107 121.216 58.5691C121.085 58.4275 120.915 58.3271 120.728 58.2802C120.541 58.2333 120.344 58.2421 120.161 58.3052C119.979 58.3684 119.819 58.4833 119.701 58.636C119.583 58.7886 119.512 58.9724 119.496 59.1648V59.1648Z" fill="black"/>
<path d="M114.381 77.1066C114.264 77.339 114.243 77.6079 114.323 77.8556C114.402 78.1034 114.575 78.3102 114.805 78.4316C114.946 78.4993 115.1 78.5355 115.256 78.5376C115.481 78.5416 115.701 78.469 115.879 78.3316C116.058 78.1943 116.184 78.0004 116.238 77.7818C116.292 77.5631 116.27 77.3327 116.176 77.1282C116.082 76.9236 115.921 76.7571 115.72 76.656C115.602 76.5971 115.474 76.562 115.343 76.5528C115.212 76.5435 115.081 76.5603 114.956 76.6022C114.832 76.6441 114.717 76.7102 114.618 76.7968C114.52 76.8834 114.439 76.9887 114.381 77.1066V77.1066Z" fill="black"/>
<path d="M118.157 41.1177C118.263 41.1304 118.37 41.1304 118.475 41.1177C118.723 41.0302 118.926 40.8498 119.043 40.6147C119.159 40.3796 119.179 40.1084 119.098 39.8588C119.038 39.6872 118.931 39.5355 118.79 39.4204C118.649 39.3052 118.479 39.231 118.299 39.2058C118.118 39.1807 117.935 39.2055 117.768 39.2776C117.6 39.3497 117.456 39.4663 117.351 39.6148C117.246 39.7632 117.183 39.9377 117.17 40.1193C117.157 40.3008 117.194 40.4825 117.277 40.6444C117.361 40.8063 117.487 40.9422 117.642 41.0374C117.797 41.1325 117.975 41.1832 118.157 41.1839V41.1177Z" fill="black"/>
<path d="M93.1001 12.9861C93.2373 13.0486 93.3866 13.0803 93.5374 13.0789C93.7149 13.0797 93.8894 13.033 94.0427 12.9436C94.1961 12.8541 94.3226 12.7253 94.4093 12.5704C94.496 12.4154 94.5396 12.2401 94.5356 12.0627C94.5316 11.8852 94.4801 11.712 94.3865 11.5612C94.2929 11.4103 94.1607 11.2873 94.0035 11.2049C93.8462 11.1225 93.6698 11.0837 93.4925 11.0925C93.3152 11.1014 93.1435 11.1575 92.9953 11.2552C92.847 11.3528 92.7277 11.4884 92.6496 11.6478C92.5342 11.8854 92.5167 12.1588 92.601 12.4092C92.6852 12.6595 92.8645 12.8667 93.1001 12.9861Z" fill="black"/>
<path d="M93.286 97.7916C93.0858 97.8922 92.9256 98.0575 92.8313 98.2607C92.7369 98.4639 92.7139 98.6929 92.7661 98.9108C92.8182 99.1286 92.9425 99.3225 93.1186 99.4609C93.2948 99.5993 93.5125 99.6741 93.7365 99.6732C93.889 99.676 94.0395 99.6395 94.1738 99.5672C94.297 99.513 94.408 99.4343 94.5 99.336C94.5919 99.2376 94.6629 99.1215 94.7086 98.9949C94.7543 98.8683 94.7738 98.7336 94.7659 98.5992C94.758 98.4648 94.7229 98.3334 94.6627 98.2129C94.6025 98.0925 94.5184 97.9856 94.4156 97.8986C94.3128 97.8117 94.1934 97.7465 94.0647 97.7071C93.9359 97.6677 93.8005 97.6548 93.6666 97.6694C93.5328 97.6839 93.4033 97.7255 93.286 97.7916V97.7916Z" fill="black"/>
<path d="M75.2648 102.561C75.0012 102.561 74.7484 102.666 74.5621 102.852C74.3757 103.039 74.271 103.292 74.271 103.555C74.271 103.819 74.3757 104.072 74.5621 104.258C74.7484 104.444 75.0012 104.549 75.2648 104.549V104.549C75.5284 104.533 75.7749 104.413 75.9501 104.216C76.1253 104.018 76.2148 103.759 76.199 103.496C76.1832 103.232 76.0633 102.985 75.8657 102.81C75.6682 102.635 75.4091 102.546 75.1456 102.561H75.2648Z" fill="black"/>
<path d="M82.4865 9.24917C82.5566 9.26212 82.6285 9.26212 82.6985 9.24917C82.9253 9.25081 83.1456 9.17379 83.322 9.03124C83.4984 8.8887 83.6199 8.68944 83.6659 8.46737C83.7065 8.33595 83.7195 8.19753 83.7039 8.06084C83.6883 7.92416 83.6445 7.7922 83.5752 7.67332C83.506 7.55445 83.4128 7.45124 83.3016 7.37024C83.1904 7.28924 83.0636 7.2322 82.9292 7.20274C82.7949 7.17329 82.6559 7.17204 82.521 7.1991C82.3861 7.22617 82.2583 7.28095 82.1457 7.35997C82.033 7.43899 81.9381 7.54053 81.8667 7.65816C81.7954 7.77579 81.7492 7.90695 81.7312 8.04333C81.698 8.17225 81.6914 8.30658 81.7118 8.43813C81.7321 8.56969 81.7791 8.69573 81.8498 8.80855C81.9204 8.92137 82.0133 9.01862 82.1228 9.09437C82.2323 9.17012 82.356 9.22279 82.4865 9.24917V9.24917Z" fill="black"/>
<path d="M102.575 93.0611C102.669 93.1689 102.785 93.2554 102.915 93.3148C103.046 93.3742 103.187 93.4052 103.33 93.4056C103.557 93.4049 103.777 93.3268 103.953 93.1842C104.129 93.0415 104.251 92.843 104.299 92.6214C104.347 92.3998 104.317 92.1686 104.216 91.966C104.114 91.7634 103.946 91.6017 103.74 91.5076C103.534 91.4135 103.301 91.3928 103.082 91.4488C102.862 91.5048 102.668 91.6343 102.532 91.8156C102.396 91.997 102.326 92.2194 102.334 92.4459C102.342 92.6724 102.427 92.8895 102.575 93.0611Z" fill="black"/>
<path d="M99.7257 93.9485C99.5541 94.0712 99.4261 94.2453 99.36 94.4456C99.294 94.6459 99.2934 94.8621 99.3583 95.0627C99.4232 95.2634 99.5503 95.4382 99.7212 95.5619C99.892 95.6855 100.098 95.7516 100.309 95.7506C100.514 95.7545 100.715 95.6892 100.879 95.5651C101.08 95.4164 101.217 95.1963 101.261 94.95C101.305 94.7036 101.254 94.4496 101.117 94.24C101.046 94.1283 100.953 94.032 100.844 93.9567C100.735 93.8814 100.612 93.8286 100.483 93.8014C100.353 93.7742 100.219 93.7733 100.089 93.7985C99.9593 93.8238 99.8357 93.8748 99.7257 93.9485V93.9485Z" fill="black"/>
<path d="M100.137 16.961C100.296 16.9635 100.454 16.926 100.595 16.8519C100.736 16.7778 100.856 16.6695 100.945 16.5369C101.066 16.3775 101.136 16.1853 101.146 15.9855C101.155 15.7857 101.105 15.5876 101 15.4171C100.896 15.2466 100.742 15.1116 100.559 15.0298C100.377 14.948 100.174 14.9232 99.9769 14.9586C99.78 14.994 99.5985 15.0881 99.4559 15.2284C99.3133 15.3687 99.2164 15.5488 99.1778 15.7451C99.1393 15.9414 99.1608 16.1448 99.2397 16.3286C99.3186 16.5124 99.4511 16.6681 99.6199 16.7754C99.7717 16.884 99.9506 16.9482 100.137 16.961Z" fill="black"/>
<path d="M71.5544 102.614C71.308 102.624 71.0738 102.724 70.8975 102.897C70.7212 103.069 70.6153 103.301 70.6004 103.547C70.5856 103.794 70.6628 104.037 70.8171 104.229C70.9713 104.421 71.1916 104.55 71.4352 104.589H71.5014C71.7436 104.561 71.9669 104.444 72.129 104.262C72.2911 104.08 72.3807 103.845 72.3807 103.601C72.3807 103.358 72.2911 103.122 72.129 102.94C71.9669 102.758 71.7436 102.642 71.5014 102.614H71.5544Z" fill="black"/>
<path d="M56.7664 99.9112C56.6429 99.87 56.5125 99.8538 56.3827 99.8636C56.2528 99.8734 56.1263 99.9089 56.0103 99.9681C55.8944 100.027 55.7914 100.109 55.7073 100.208C55.6233 100.308 55.5599 100.423 55.5208 100.547C55.4403 100.797 55.4603 101.068 55.5766 101.303C55.6929 101.538 55.8963 101.719 56.1436 101.806V101.806C56.2488 101.825 56.3565 101.825 56.4617 101.806C56.6958 101.803 56.9212 101.716 57.098 101.563C57.2749 101.409 57.3918 101.198 57.4283 100.967C57.4647 100.736 57.4183 100.499 57.2972 100.298C57.1761 100.098 56.9881 99.9468 56.7664 99.8715V99.9112Z" fill="black"/>
<path d="M60.3842 100.958C60.1276 100.893 59.8557 100.933 59.6284 101.068C59.401 101.204 59.2367 101.424 59.1717 101.68C59.1067 101.937 59.1463 102.209 59.2817 102.436C59.4171 102.664 59.6373 102.828 59.8939 102.893H60.1456C60.3903 102.896 60.6273 102.808 60.8113 102.647C60.9954 102.485 61.1134 102.262 61.143 102.019C61.1725 101.776 61.1114 101.531 60.9714 101.33C60.8314 101.13 60.6223 100.988 60.3842 100.932V100.958Z" fill="black"/>
<path d="M53.0565 12.3102C53.1849 12.2657 53.3027 12.1953 53.4028 12.1034C53.5029 12.0116 53.5831 11.9002 53.6385 11.7761C53.6938 11.652 53.7231 11.5179 53.7246 11.382C53.7261 11.2461 53.6996 11.1114 53.647 10.9862C53.5943 10.8609 53.5166 10.7478 53.4185 10.6538C53.3204 10.5598 53.2041 10.4869 53.0768 10.4396C52.9494 10.3923 52.8137 10.3716 52.678 10.3788C52.5423 10.3861 52.4096 10.421 52.288 10.4816C52.0776 10.5712 51.9046 10.7306 51.7981 10.9329C51.6915 11.1351 51.658 11.368 51.7032 11.5921C51.7483 11.8162 51.8693 12.0179 52.0459 12.1632C52.2224 12.3085 52.4436 12.3885 52.6722 12.3897C52.8044 12.3901 52.9353 12.363 53.0565 12.3102V12.3102Z" fill="black"/>
<path d="M33.1667 28.887C33.2818 28.7239 33.3451 28.53 33.3483 28.3304C33.3516 28.1308 33.2947 27.9349 33.185 27.7681C33.0754 27.6013 32.918 27.4714 32.7335 27.3953C32.5489 27.3193 32.3458 27.3005 32.1504 27.3415C31.9551 27.3825 31.7766 27.4815 31.6383 27.6254C31.4999 27.7692 31.4081 27.9514 31.3748 28.1482C31.3415 28.345 31.3682 28.5473 31.4515 28.7287C31.5347 28.9101 31.6707 29.0623 31.8416 29.1653C32.0017 29.2736 32.1917 29.3292 32.3849 29.3243C32.5408 29.3198 32.6934 29.2777 32.8295 29.2016C32.9656 29.1255 33.0813 29.0176 33.1667 28.887V28.887Z" fill="black"/>
<path d="M46.4174 15.7816C46.6246 15.6387 46.7708 15.4235 46.8272 15.1782C46.8836 14.933 46.8461 14.6755 46.7222 14.4565C46.5836 14.2443 46.3681 14.094 46.121 14.0372C45.874 13.9803 45.6145 14.0214 45.3971 14.1518C45.1877 14.2926 45.0389 14.507 44.98 14.7523C44.9211 14.9977 44.9565 15.2563 45.0791 15.4768C45.1726 15.6158 45.2989 15.7295 45.4468 15.8081C45.5947 15.8867 45.7597 15.9276 45.9271 15.9274C46.1007 15.9237 46.27 15.8733 46.4174 15.7816V15.7816Z" fill="black"/>
<path d="M40.6138 90.6621C40.4142 90.4925 40.157 90.4063 39.8956 90.4211C39.6341 90.4359 39.3884 90.5506 39.2092 90.7416C39.122 90.839 39.055 90.9526 39.0118 91.0759C38.9687 91.1993 38.9503 91.3299 38.9576 91.4604C38.965 91.5908 38.9981 91.7186 39.0549 91.8362C39.1117 91.9539 39.1911 92.0592 39.2887 92.1462C39.3825 92.2473 39.4965 92.3278 39.6231 92.3825C39.7498 92.4372 39.8865 92.4649 40.0245 92.4639C40.1625 92.4629 40.2987 92.4331 40.4245 92.3765C40.5504 92.32 40.6631 92.2378 40.7555 92.1353C40.8478 92.0328 40.9178 91.9121 40.961 91.7811C41.0042 91.65 41.0196 91.5114 41.0063 91.3741C40.9929 91.2367 40.9511 91.1037 40.8836 90.9834C40.816 90.8631 40.7241 90.7582 40.6138 90.6753V90.6621Z" fill="black"/>
<path d="M30.3711 32.5707C30.5506 32.5671 30.726 32.5162 30.8795 32.4231C31.0331 32.3301 31.1594 32.1981 31.2456 32.0406C31.3721 31.8087 31.4013 31.536 31.3268 31.2825C31.2522 31.029 31.08 30.8155 30.8481 30.689C30.6161 30.5625 30.3434 30.5333 30.09 30.6079C29.8365 30.6824 29.623 30.8546 29.4965 31.0866C29.3741 31.3151 29.3472 31.5828 29.4217 31.8312C29.4962 32.0795 29.666 32.2882 29.894 32.4117C30.0347 32.5089 30.2002 32.564 30.3711 32.5707V32.5707Z" fill="black"/>
<path d="M35.1811 24.3948C35.0797 24.3035 34.9606 24.2341 34.8312 24.1909C34.7018 24.1476 34.5649 24.1315 34.4291 24.1435C34.2932 24.1555 34.1612 24.1953 34.0414 24.2605C33.9215 24.3257 33.8164 24.4148 33.7325 24.5224C33.6487 24.63 33.5878 24.7537 33.5538 24.8858C33.5198 25.0179 33.5134 25.1556 33.5349 25.2903C33.5565 25.425 33.6055 25.5538 33.679 25.6688C33.7524 25.7837 33.8488 25.8823 33.962 25.9584C34.1374 26.0923 34.351 26.1666 34.5716 26.1704C34.7779 26.1696 34.979 26.1045 35.1467 25.9842C35.3144 25.864 35.4405 25.6945 35.5075 25.4993C35.5746 25.3041 35.5791 25.0928 35.5206 24.8949C35.4621 24.697 35.3435 24.5222 35.1811 24.3948V24.3948Z" fill="black"/>
<path d="M26.9258 39.4872C27.0353 39.5073 27.1475 39.5073 27.257 39.4872C27.4614 39.4872 27.6607 39.4233 27.827 39.3045C27.9933 39.1857 28.1183 39.018 28.1846 38.8246C28.2373 38.699 28.2636 38.5638 28.2618 38.4275C28.26 38.2913 28.2303 38.1568 28.1744 38.0325C28.1185 37.9083 28.0375 37.7968 27.9367 37.7051C27.8359 37.6135 27.7173 37.5435 27.5883 37.4996C27.3247 37.4117 27.0371 37.4322 26.7886 37.5564C26.5401 37.6807 26.3511 37.8985 26.2632 38.1621C26.1754 38.4257 26.1958 38.7133 26.3201 38.9618C26.4443 39.2103 26.6622 39.3993 26.9258 39.4872V39.4872Z" fill="black"/>
<path d="M115.706 55.3884C115.706 46.8368 113.171 38.4773 108.42 31.3669C103.669 24.2565 96.9158 18.7147 89.0152 15.4422C81.1146 12.1696 72.421 11.3134 64.0337 12.9817C55.6465 14.65 47.9423 18.768 41.8955 24.8148C35.8486 30.8617 31.7306 38.5659 30.0623 46.9532C28.3939 55.3404 29.2502 64.034 32.5227 71.9347C35.7953 79.8353 41.3371 86.588 48.4475 91.339C55.5578 96.09 63.9174 98.6259 72.4689 98.6259C83.9319 98.6118 94.9214 94.0519 103.027 85.9464C111.133 77.8408 115.692 66.8514 115.706 55.3884V55.3884ZM72.4689 96.6382C64.3077 96.6514 56.3259 94.2432 49.5337 89.7186C42.7415 85.194 37.4441 78.7563 34.3118 71.22C31.1796 63.6837 30.3532 55.3877 31.9374 47.3816C33.5215 39.3756 37.4449 32.0193 43.2112 26.2438C48.9774 20.4683 56.3274 16.533 64.3308 14.936C72.3343 13.339 80.6317 14.152 88.173 17.2722C95.7143 20.3923 102.161 25.6794 106.696 32.4643C111.232 39.2493 113.653 47.2271 113.653 55.3884C113.646 66.3288 109.298 76.8195 101.565 84.5581C93.831 92.2966 83.3431 96.6507 72.4027 96.6647L72.4689 96.6382Z" fill="black"/>
<path d="M85.5874 68.5333V64.0412C84.1368 65.7953 82.3141 67.2048 80.2515 68.1674C78.1888 69.1299 75.9378 69.6216 73.6616 69.6066C70.4112 69.6192 67.2422 68.5902 64.6192 66.6706C61.9961 64.751 60.0568 62.0416 59.0857 58.9397H79.4788L80.8038 55.892H58.5424C58.4936 55.3855 58.4715 54.8769 58.4762 54.3681C58.4712 53.8594 58.4933 53.3507 58.5424 52.8443H82.1157L83.4408 49.7966H59.1122C60.0847 46.6943 62.0239 43.9845 64.6463 42.0629C67.2688 40.1414 70.4371 39.1089 73.6882 39.1164C75.9512 39.1181 78.1874 39.6065 80.245 40.5485C82.3027 41.4904 84.1337 42.8639 85.6139 44.5757L86.939 41.5015C85.2208 39.7359 83.1578 38.3425 80.8782 37.4079C78.5987 36.4733 76.1513 36.0175 73.6882 36.0687C71.2701 36.0156 68.8668 36.4584 66.6265 37.37C64.3862 38.2816 62.3565 39.6427 60.6626 41.3691C58.3046 43.6749 56.6582 46.6091 55.9188 49.8231H51.7977L50.4727 52.8708H55.4815C55.4815 53.3743 55.4152 53.8778 55.4152 54.3946C55.4152 54.9114 55.4152 55.4149 55.4815 55.9185H51.811L50.4859 58.9662H55.9453C56.693 62.177 58.3382 65.1089 60.6891 67.4202C63.9998 70.5888 68.3466 72.4503 72.9245 72.6598C77.5024 72.8693 82.0011 71.4127 85.5874 68.5598V68.5333Z" fill="black"/>
</svg>
