<svg width="133" height="111" viewBox="0 0 133 111" fill="none" xmlns="http://www.w3.org/2000/svg">
<path d="M78.6417 0.0066016C77.6912 0.0066016 76.7538 0.00660562 75.8164 0.0726171C74.879 0.138629 73.9417 0.0066016 72.9911 0.0066016C72.0406 0.0066016 71.1032 0.00660562 70.1658 0.0726171C69.2285 0.138629 68.2911 0.0066016 67.3537 0.0066016C66.4164 0.0066016 65.4658 0.00660562 64.5285 0.0726171C63.5911 0.138629 62.6537 0.0066016 61.7031 0.0066016C60.7526 0.0066016 59.8153 0.00660562 58.8911 0.0726171C57.9669 0.138629 57.0163 0.0066016 56.0658 0.0066016C48.7443 -0.106625 41.4734 1.23766 34.6763 3.96117C27.8793 6.68468 21.6919 10.733 16.4743 15.8705C11.2567 21.0081 7.11311 27.1321 4.28482 33.8863C1.45654 40.6404 0 47.8896 0 55.212C0 62.5344 1.45654 69.7837 4.28482 76.5378C7.11311 83.2919 11.2567 89.416 16.4743 94.5535C21.6919 99.691 27.8793 103.739 34.6763 106.463C41.4734 109.186 48.7443 110.531 56.0658 110.417C57.0163 110.417 57.9537 110.417 58.8911 110.351C59.8285 110.285 60.7658 110.417 61.7031 110.417C62.6405 110.417 63.5911 110.417 64.5285 110.351C65.4658 110.285 66.4032 110.417 67.3537 110.417C68.3043 110.417 69.2417 110.417 70.1658 110.351C71.09 110.285 72.0406 110.417 72.9911 110.417C73.9417 110.417 74.879 110.417 75.8164 110.351C76.7538 110.285 77.6912 110.417 78.6417 110.417C93.1353 110.193 106.959 104.278 117.129 93.9498C127.3 83.6212 133 69.7073 133 55.212C133 40.7168 127.3 26.8029 117.129 16.4742C106.959 6.1456 93.1353 0.230743 78.6417 0.0066016V0.0066016ZM8.48468 55.2186C8.4982 43.928 12.0952 32.9331 18.7574 23.8176C25.4196 14.7021 34.8033 7.93652 45.5568 4.4954C35.6388 8.75623 27.1878 15.8315 21.2495 24.8458C15.3113 33.86 12.1463 44.4176 12.1463 55.212C12.1463 66.0065 15.3113 76.564 21.2495 85.5783C27.1878 94.5925 35.6388 101.668 45.5568 105.929C34.8044 102.49 25.4211 95.7269 18.7588 86.6136C12.0964 77.5004 8.49896 66.5075 8.48468 55.2186V55.2186ZM23.4297 55.2186C23.4449 66.0094 26.6167 76.56 32.5541 85.5705C38.4915 94.581 46.9351 101.658 56.8447 105.929C46.0864 102.499 36.6975 95.7368 30.0351 86.6199C23.3727 77.5031 19.782 66.5038 19.782 55.212C19.782 43.9202 23.3727 32.921 30.0351 23.8041C36.6975 14.6873 46.0864 7.92523 56.8447 4.4954C46.933 8.76726 38.488 15.846 32.5504 24.859C26.6129 33.8721 23.4424 44.4256 23.4297 55.2186V55.2186ZM14.1881 55.2186C14.2036 43.9285 17.8014 32.9346 24.4633 23.8195C31.1253 14.7043 40.5078 7.93831 51.2601 4.4954C41.3422 8.75623 32.8912 15.8315 26.953 24.8458C21.0147 33.86 17.8497 44.4176 17.8497 55.212C17.8497 66.0065 21.0147 76.564 26.953 85.5783C32.8912 94.5925 41.3422 101.668 51.2601 105.929C40.4965 102.5 31.1 95.741 24.4253 86.6272C17.7507 77.5133 14.1429 66.5152 14.1221 55.2186H14.1881ZM6.57037 55.2186C6.58281 66.0083 9.75189 76.5586 15.687 85.5692C21.6222 94.5799 30.064 101.657 39.9722 105.929C29.2139 102.499 19.825 95.7368 13.1626 86.6199C6.50016 77.5031 2.90944 66.5038 2.90944 55.212C2.90944 43.9202 6.50016 32.921 13.1626 23.8041C19.825 14.6873 29.2139 7.92523 39.9722 4.4954C30.0595 8.76586 21.6135 15.8442 15.6757 24.8576C9.73796 33.871 6.56813 44.4252 6.55715 55.2186H6.57037ZM78.7077 108.437C68.1784 108.44 57.8847 105.32 49.1288 99.4715C40.3729 93.6233 33.548 85.3098 29.5174 75.5824C25.4868 65.855 24.4315 55.1508 26.485 44.8237C28.5386 34.4965 33.6087 25.0103 41.054 17.5649C48.4994 10.1196 57.9856 5.04947 68.3128 2.99593C78.6399 0.9424 89.3441 1.99768 99.0715 6.0283C108.799 10.0589 117.112 16.8838 122.961 25.6397C128.809 34.3957 131.929 44.6893 131.926 55.2186C131.909 69.3391 126.287 82.8753 116.296 92.8538C106.305 102.832 92.7622 108.437 78.6417 108.437H78.7077Z" fill="black"/>
<path d="M114.116 22.7937C113.973 22.9314 113.875 23.1089 113.834 23.3031C113.793 23.4974 113.812 23.6994 113.887 23.883C113.963 24.0665 114.092 24.2232 114.257 24.3327C114.423 24.4421 114.617 24.4993 114.816 24.4968C115.054 24.4916 115.283 24.4028 115.463 24.2459C115.561 24.1592 115.641 24.0541 115.698 23.9365C115.755 23.8189 115.789 23.6912 115.797 23.5607C115.805 23.4301 115.787 23.2993 115.744 23.1756C115.702 23.0519 115.635 22.9378 115.549 22.8399C115.462 22.7419 115.357 22.662 115.239 22.6047C115.122 22.5473 114.994 22.5137 114.863 22.5058C114.733 22.4978 114.602 22.5156 114.478 22.5582C114.355 22.6008 114.24 22.6674 114.142 22.754L114.116 22.7937Z" fill="black"/>
<path d="M116.493 83.168C116.34 83.3809 116.277 83.6451 116.316 83.9041C116.356 84.1632 116.495 84.3965 116.704 84.5542C116.875 84.6836 117.084 84.7532 117.298 84.7523C117.453 84.7497 117.605 84.7114 117.742 84.6404C117.88 84.5694 117.999 84.4676 118.09 84.3429C118.168 84.2381 118.224 84.1191 118.255 83.9926C118.286 83.8662 118.292 83.7348 118.272 83.606C118.253 83.4772 118.208 83.3536 118.14 83.2422C118.073 83.1308 117.984 83.0338 117.879 82.9567C117.666 82.8039 117.402 82.7405 117.143 82.78C116.884 82.8195 116.651 82.9587 116.493 83.168V83.168Z" fill="black"/>
<path d="M118.605 80.0788C118.48 80.2978 118.443 80.5564 118.501 80.8017C118.56 81.0471 118.711 81.2607 118.922 81.399C119.075 81.4971 119.254 81.5476 119.437 81.5442C119.61 81.5467 119.781 81.5035 119.933 81.4191C120.084 81.3347 120.211 81.212 120.3 81.0633C120.389 80.9145 120.438 80.745 120.441 80.5716C120.444 80.3982 120.401 80.227 120.317 80.0752C120.233 79.9234 120.111 79.7963 119.963 79.7067C119.814 79.617 119.645 79.5678 119.471 79.5642C119.298 79.5605 119.127 79.6025 118.975 79.6859C118.823 79.7692 118.695 79.891 118.605 80.0392V80.0788Z" fill="black"/>
<path d="M111.437 20.0872C111.251 20.2729 111.147 20.5245 111.147 20.7869C111.147 21.0493 111.251 21.301 111.437 21.4867C111.626 21.6652 111.876 21.7644 112.136 21.7639C112.267 21.7628 112.397 21.7354 112.517 21.6832C112.637 21.631 112.746 21.5552 112.836 21.4602C113.021 21.2746 113.126 21.0229 113.126 20.7605C113.126 20.4981 113.021 20.2465 112.836 20.0608C112.647 19.8788 112.393 19.7794 112.131 19.7844C111.868 19.7893 111.619 19.8982 111.437 20.0872Z" fill="black"/>
<path d="M108.545 17.5786C108.461 17.6789 108.398 17.7949 108.36 17.9197C108.321 18.0445 108.308 18.1757 108.32 18.3058C108.332 18.4359 108.37 18.5623 108.431 18.6776C108.493 18.793 108.576 18.8951 108.677 18.978C108.851 19.1246 109.071 19.2042 109.298 19.2025C109.465 19.2039 109.629 19.163 109.776 19.0837C109.923 19.0044 110.048 18.8892 110.138 18.7488C110.229 18.6085 110.282 18.4475 110.294 18.2809C110.305 18.1143 110.275 17.9475 110.204 17.796C110.134 17.6445 110.027 17.5132 109.892 17.4143C109.758 17.3155 109.6 17.2523 109.435 17.2306C109.269 17.2089 109.101 17.2294 108.945 17.2903C108.79 17.3511 108.652 17.4503 108.545 17.5786V17.5786Z" fill="black"/>
<path d="M103.74 97.3467C103.941 97.2227 104.09 97.0301 104.16 96.8044C104.23 96.5787 104.216 96.3353 104.12 96.1193C104.024 95.9033 103.854 95.7293 103.64 95.6295C103.425 95.5297 103.182 95.5109 102.955 95.5766C102.728 95.6423 102.533 95.788 102.405 95.9868C102.277 96.1856 102.226 96.4239 102.26 96.6576C102.295 96.8914 102.413 97.1047 102.593 97.2581C102.772 97.4115 103.002 97.4946 103.238 97.492C103.416 97.4952 103.591 97.4445 103.74 97.3467V97.3467Z" fill="black"/>
<path d="M89.3226 103.09C89.5703 103.061 89.7977 102.939 89.9582 102.748C90.1187 102.557 90.2001 102.312 90.1857 102.063C90.1714 101.814 90.0624 101.58 89.881 101.409C89.6997 101.238 89.4598 101.143 89.2104 101.143C88.961 101.143 88.7211 101.238 88.5397 101.409C88.3584 101.58 88.2494 101.814 88.235 102.063C88.2207 102.312 88.3021 102.557 88.4626 102.748C88.6231 102.939 88.8504 103.061 89.0982 103.09H89.3226Z" fill="black"/>
<path d="M91.6459 8.9311C91.5897 9.08073 91.571 9.24184 91.5916 9.40034C91.6122 9.55885 91.6713 9.70989 91.7639 9.84021C91.8564 9.97054 91.9795 10.0762 92.1223 10.1478C92.2652 10.2195 92.4235 10.2551 92.5832 10.2513C92.7646 10.2506 92.9423 10.2001 93.0969 10.1053C93.2515 10.0106 93.3772 9.87511 93.4601 9.7138C93.543 9.55249 93.58 9.3715 93.5671 9.19059C93.5542 9.00969 93.4918 8.83582 93.3868 8.68793C93.2818 8.54005 93.1382 8.42384 92.9716 8.35199C92.8051 8.28015 92.6221 8.25543 92.4424 8.28052C92.2628 8.30561 92.0935 8.37955 91.9531 8.49428C91.8126 8.60901 91.7063 8.76011 91.6459 8.9311V8.9311Z" fill="black"/>
<path d="M84.1468 7.46619C84.1301 7.59538 84.1392 7.72658 84.1733 7.85229C84.2074 7.978 84.266 8.09573 84.3457 8.19875C84.4255 8.30177 84.5247 8.38804 84.6378 8.45264C84.751 8.51723 84.8757 8.55888 85.005 8.57518H85.137C85.376 8.57413 85.6065 8.48667 85.7861 8.32894C85.9656 8.17122 86.0821 7.95388 86.114 7.71702C86.1325 7.58855 86.1253 7.45768 86.0927 7.33204C86.0601 7.2064 86.0028 7.08851 85.9241 6.98527C85.8455 6.88202 85.747 6.79548 85.6345 6.73071C85.5221 6.66594 85.3978 6.62424 85.269 6.60803C85.1388 6.58949 85.0062 6.59709 84.879 6.63035C84.7517 6.66361 84.6324 6.72188 84.5279 6.80176C84.4235 6.88165 84.336 6.98154 84.2705 7.09562C84.2051 7.2097 84.163 7.33568 84.1468 7.46619V7.46619Z" fill="black"/>
<path d="M73.8096 103.895H73.8889C74.1318 103.88 74.3593 103.77 74.523 103.59C74.6868 103.41 74.7741 103.173 74.7663 102.93C74.7586 102.687 74.6565 102.456 74.4817 102.287C74.3068 102.117 74.0729 102.022 73.8294 102.022C73.586 102.022 73.3521 102.117 73.1772 102.287C73.0024 102.456 72.9003 102.687 72.8926 102.93C72.8848 103.173 72.9721 103.41 73.1359 103.59C73.2996 103.77 73.5271 103.88 73.77 103.895H73.8096Z" fill="black"/>
<path d="M72.7271 7.65048C72.7532 7.89438 72.869 8.11988 73.0519 8.2833C73.2348 8.44672 73.4719 8.53643 73.7172 8.53503H73.8889C74.0835 8.51288 74.2671 8.4335 74.4166 8.30695C74.5661 8.18041 74.6747 8.01236 74.7287 7.82409C74.7826 7.63582 74.7796 7.43578 74.7198 7.24925C74.6601 7.06273 74.5464 6.8981 74.3931 6.7762C74.2398 6.65431 74.0538 6.5806 73.8586 6.56442C73.6634 6.54824 73.4678 6.59031 73.2966 6.68531C73.1253 6.78031 72.986 6.92398 72.8964 7.09812C72.8068 7.27227 72.7708 7.46909 72.7931 7.66368L72.7271 7.65048Z" fill="black"/>
<path d="M76.5296 7.33344C76.543 7.58453 76.6514 7.82111 76.8328 7.99519C77.0143 8.16927 77.2552 8.26782 77.5066 8.27082H77.5726C77.8352 8.25681 78.0815 8.13906 78.2573 7.94346C78.4331 7.74786 78.524 7.49043 78.51 7.22782C78.496 6.96521 78.3782 6.71892 78.1826 6.54313C77.987 6.36734 77.7296 6.27647 77.467 6.29047C77.3363 6.29547 77.2079 6.32663 77.0895 6.38215C76.9711 6.43767 76.8651 6.51639 76.7777 6.61366C76.6903 6.71093 76.6233 6.82475 76.5807 6.94839C76.5381 7.07203 76.5207 7.20297 76.5296 7.33344V7.33344Z" fill="black"/>
<path d="M81.5462 104.173C81.7417 104.162 81.9295 104.094 82.0861 103.976C82.2427 103.859 82.361 103.698 82.426 103.513C82.491 103.328 82.4999 103.129 82.4515 102.939C82.4031 102.749 82.2995 102.578 82.154 102.448C82.0084 102.317 81.8273 102.232 81.6336 102.204C81.4399 102.176 81.2423 102.206 81.0657 102.29C80.889 102.375 80.7413 102.509 80.6412 102.678C80.5411 102.846 80.4931 103.04 80.5033 103.235C80.5115 103.37 80.5467 103.501 80.6067 103.621C80.6667 103.742 80.7503 103.849 80.8525 103.936C80.9547 104.024 81.0735 104.09 81.2018 104.13C81.33 104.171 81.4651 104.185 81.5991 104.173H81.5462Z" fill="black"/>
<path d="M77.7308 104.212C77.9846 104.212 78.2287 104.115 78.413 103.941C78.5972 103.766 78.7075 103.528 78.721 103.274C78.7319 103.013 78.6399 102.757 78.4648 102.562C78.2896 102.367 78.0452 102.248 77.7837 102.231C77.521 102.217 77.2636 102.308 77.068 102.484C76.8724 102.66 76.7547 102.906 76.7407 103.169C76.7267 103.431 76.8175 103.689 76.9933 103.884C77.1691 104.08 77.4154 104.198 77.678 104.212H77.7308Z" fill="black"/>
<path d="M85.3485 103.79H85.4806C85.6093 103.774 85.7336 103.732 85.8461 103.667C85.9586 103.602 86.057 103.516 86.1357 103.413C86.2143 103.309 86.2717 103.191 86.3043 103.066C86.3368 102.94 86.3441 102.809 86.3255 102.681C86.2888 102.42 86.1499 102.184 85.9394 102.026C85.729 101.868 85.4642 101.799 85.2033 101.836C84.9425 101.873 84.7069 102.012 84.5484 102.222C84.3899 102.432 84.3216 102.697 84.3584 102.958C84.3988 103.191 84.5204 103.403 84.7016 103.555C84.8828 103.707 85.1119 103.79 85.3485 103.79V103.79Z" fill="black"/>
<path d="M87.923 8.04668C87.8959 8.17413 87.8942 8.30568 87.9181 8.43377C87.9419 8.56186 87.9908 8.68398 88.062 8.79314C88.1331 8.9023 88.2251 8.99633 88.3326 9.06987C88.4402 9.14342 88.5612 9.195 88.6887 9.22169H88.9C89.1246 9.21851 89.3417 9.14002 89.5165 8.99878C89.6912 8.85755 89.8135 8.66175 89.8637 8.44276C89.8927 8.3152 89.8957 8.18313 89.8726 8.05438C89.8496 7.92563 89.8009 7.80284 89.7295 7.69326C89.658 7.58368 89.5654 7.48953 89.4569 7.41644C89.3484 7.34335 89.2264 7.29279 89.098 7.26775C88.8391 7.21702 88.5706 7.27031 88.3506 7.4161C88.1307 7.56189 87.9771 7.78843 87.923 8.04668V8.04668Z" fill="black"/>
<path d="M97.3097 99.5124C97.2635 99.3862 97.1918 99.2709 97.099 99.1736C97.0063 99.0764 96.8944 98.9993 96.7705 98.9473C96.6466 98.8952 96.5132 98.8694 96.3789 98.8712C96.2445 98.873 96.1119 98.9025 95.9895 98.9579C95.7724 99.0413 95.5917 99.1985 95.4789 99.4018C95.366 99.6051 95.3284 99.8416 95.3725 100.07C95.4165 100.298 95.5396 100.504 95.72 100.65C95.9004 100.797 96.1266 100.876 96.3591 100.872C96.5146 100.866 96.6664 100.824 96.8027 100.748C96.9389 100.673 97.0559 100.568 97.1442 100.44C97.2326 100.312 97.2899 100.165 97.3118 100.011C97.3336 99.8566 97.3193 99.6996 97.2701 99.552L97.3097 99.5124Z" fill="black"/>
<path d="M102.208 13.3143C102.103 13.4824 102.052 13.678 102.059 13.8758C102.067 14.0737 102.134 14.2647 102.251 14.4241C102.369 14.5836 102.531 14.7043 102.718 14.7705C102.904 14.8367 103.106 14.8455 103.298 14.7957C103.49 14.7458 103.662 14.6397 103.793 14.491C103.923 14.3423 104.006 14.1578 104.031 13.9613C104.056 13.7649 104.021 13.5656 103.932 13.389C103.842 13.2125 103.702 13.0669 103.528 12.971C103.306 12.8481 103.045 12.8152 102.8 12.879C102.554 12.9429 102.342 13.0987 102.208 13.3143V13.3143Z" fill="black"/>
<path d="M93.0851 102.1C93.3373 102.023 93.5484 101.849 93.6722 101.616C93.796 101.383 93.8223 101.111 93.7453 100.859C93.6682 100.607 93.4942 100.395 93.2615 100.272C93.0287 100.148 92.7563 100.122 92.5042 100.199C92.3791 100.236 92.2627 100.298 92.1617 100.381C92.0607 100.464 91.9771 100.566 91.9158 100.682C91.8544 100.797 91.8165 100.923 91.8042 101.054C91.7919 101.184 91.8055 101.315 91.8441 101.44C91.9083 101.642 92.0348 101.818 92.2056 101.944C92.3764 102.07 92.5826 102.138 92.7947 102.139C92.8928 102.139 92.9905 102.126 93.0851 102.1V102.1Z" fill="black"/>
<path d="M98.8149 11.5718C98.7005 11.8065 98.6835 12.077 98.7675 12.3243C98.8516 12.5716 99.03 12.7756 99.2638 12.892C99.4005 12.9542 99.5492 12.9857 99.6995 12.9844C99.8846 12.9867 100.066 12.9356 100.223 12.8373C100.38 12.739 100.505 12.5975 100.584 12.4299C100.656 12.3125 100.702 12.1814 100.721 12.0449C100.739 11.9085 100.729 11.7697 100.691 11.6375C100.652 11.5053 100.587 11.3825 100.498 11.277C100.41 11.1715 100.3 11.0856 100.177 11.0248C100.053 10.9639 99.9187 10.9295 99.7811 10.9237C99.6436 10.9179 99.5064 10.9409 99.3782 10.9911C99.25 11.0413 99.1337 11.1177 99.0367 11.2154C98.9397 11.3132 98.8642 11.43 98.8149 11.5585V11.5718Z" fill="black"/>
<path d="M70.1524 103.341C70.4024 103.317 70.6336 103.198 70.7981 103.009C70.9626 102.819 71.0477 102.573 71.0358 102.322C71.024 102.071 70.9159 101.835 70.7342 101.662C70.5525 101.488 70.3111 101.392 70.06 101.392C69.8089 101.392 69.5674 101.488 69.3857 101.662C69.204 101.835 69.096 102.071 69.0841 102.322C69.0722 102.573 69.1574 102.819 69.3219 103.009C69.4864 103.198 69.7176 103.317 69.9675 103.341H70.1524Z" fill="black"/>
<path d="M68.9647 8.28433C69.0047 8.51174 69.1229 8.71801 69.2989 8.86747C69.4749 9.01694 69.6976 9.1002 69.9285 9.10287H70.1133C70.3064 9.06813 70.4847 8.97684 70.6258 8.84058C70.7669 8.70432 70.8643 8.52923 70.9058 8.33752C70.9472 8.1458 70.9308 7.9461 70.8585 7.76374C70.7863 7.58138 70.6615 7.42459 70.5001 7.31324C70.3386 7.20188 70.1477 7.14098 69.9516 7.13828C69.7555 7.13557 69.563 7.19117 69.3985 7.29803C69.234 7.40489 69.105 7.55818 69.0277 7.73848C68.9505 7.91878 68.9286 8.11796 68.9647 8.31074V8.28433Z" fill="black"/>
<path d="M127.068 62.9815C127.106 62.7209 127.04 62.4559 126.884 62.2435C126.729 62.0311 126.496 61.8883 126.236 61.8461C126.108 61.8254 125.978 61.8303 125.852 61.8603C125.727 61.8904 125.608 61.945 125.504 62.0212C125.4 62.0973 125.311 62.1933 125.244 62.3038C125.177 62.4142 125.133 62.5369 125.114 62.6646C125.072 62.9237 125.135 63.1888 125.288 63.4017C125.442 63.6146 125.673 63.7579 125.932 63.8H126.091C126.323 63.7979 126.548 63.7151 126.726 63.5658C126.904 63.4165 127.025 63.2099 127.068 62.9815Z" fill="black"/>
<path d="M127.504 51.0989C127.488 50.9072 127.417 50.7241 127.3 50.5721C127.182 50.42 127.022 50.3055 126.841 50.2425C126.659 50.1796 126.463 50.1709 126.276 50.2176C126.09 50.2643 125.921 50.3643 125.79 50.5054C125.659 50.6466 125.573 50.8227 125.54 51.0123C125.508 51.2019 125.532 51.3968 125.609 51.5731C125.685 51.7495 125.812 51.8997 125.972 52.0054C126.133 52.1111 126.321 52.1677 126.513 52.1683H126.606C126.735 52.1584 126.862 52.1227 126.978 52.0633C127.093 52.0039 127.196 51.922 127.279 51.8224C127.363 51.7228 127.426 51.6075 127.464 51.4832C127.503 51.359 127.516 51.2284 127.504 51.0989V51.0989Z" fill="black"/>
<path d="M125.233 70.5464C125.285 70.4205 125.311 70.2853 125.309 70.149C125.307 70.0127 125.276 69.8783 125.22 69.7543C125.163 69.6304 125.081 69.5194 124.98 69.4284C124.878 69.3373 124.759 69.2683 124.63 69.2255C124.501 69.1826 124.364 69.167 124.228 69.1795C124.092 69.192 123.961 69.2324 123.841 69.2981C123.722 69.3639 123.617 69.4535 123.534 69.5616C123.451 69.6696 123.391 69.7936 123.358 69.9258V69.9258C123.306 70.0536 123.282 70.1908 123.286 70.3286C123.29 70.4663 123.323 70.6017 123.383 70.726C123.443 70.8503 123.528 70.9607 123.633 71.0503C123.737 71.1398 123.86 71.2065 123.992 71.2461C124.097 71.2588 124.203 71.2588 124.309 71.2461C124.517 71.2413 124.718 71.1712 124.884 71.0456C125.05 70.92 125.172 70.7453 125.233 70.5464V70.5464Z" fill="black"/>
<path d="M125.893 46.4125C125.648 46.4529 125.427 46.5839 125.274 46.7796C125.121 46.9753 125.047 47.2213 125.067 47.4689C125.087 47.7165 125.199 47.9475 125.382 48.1162C125.564 48.2849 125.803 48.3789 126.051 48.3796H126.21C126.341 48.3623 126.468 48.3188 126.582 48.2517C126.696 48.1845 126.796 48.0952 126.875 47.9888C126.954 47.8825 127.011 47.7614 127.043 47.6327C127.074 47.5039 127.079 47.3702 127.058 47.2394C127.037 47.1086 126.99 46.9834 126.919 46.8712C126.849 46.7589 126.756 46.662 126.648 46.5861C126.539 46.5103 126.416 46.4569 126.287 46.4294C126.157 46.4018 126.023 46.4005 125.893 46.4256V46.4125Z" fill="black"/>
<path d="M126.698 54.0039C126.567 54.0039 126.437 54.0299 126.316 54.0805C126.195 54.1311 126.085 54.2052 125.993 54.2986C125.901 54.3919 125.828 54.5026 125.779 54.6243C125.73 54.746 125.706 54.8761 125.708 55.0073C125.7 55.0421 125.7 55.0781 125.708 55.1129C125.701 55.1478 125.701 55.1836 125.708 55.2185C125.708 55.4811 125.812 55.733 125.998 55.9187C126.183 56.1044 126.435 56.2087 126.698 56.2087C126.961 56.2087 127.212 56.1044 127.398 55.9187C127.584 55.733 127.688 55.4811 127.688 55.2185V54.9941C127.685 54.7325 127.579 54.4827 127.394 54.2977C127.209 54.1127 126.959 54.0073 126.698 54.0039V54.0039Z" fill="black"/>
<path d="M125.048 42.6895C124.811 42.7453 124.602 42.8867 124.463 43.0866C124.323 43.2865 124.262 43.5309 124.292 43.7728C124.321 44.0148 124.439 44.2374 124.622 44.3981C124.806 44.5587 125.042 44.6461 125.286 44.6434H125.523C125.65 44.6122 125.769 44.5564 125.874 44.4791C125.979 44.4018 126.068 44.3047 126.135 44.1931C126.203 44.0815 126.247 43.9578 126.267 43.8289C126.287 43.7 126.281 43.5686 126.249 43.442C126.218 43.3154 126.162 43.1963 126.085 43.0913C126.008 42.9863 125.911 42.8976 125.799 42.8301C125.687 42.7627 125.564 42.7179 125.435 42.6983C125.306 42.6787 125.175 42.6847 125.048 42.7159V42.6895Z" fill="black"/>
<path d="M123.859 74.2034C123.933 74.0234 123.952 73.8257 123.915 73.6349C123.877 73.4441 123.783 73.2687 123.647 73.1305C123.51 72.9924 123.335 72.8976 123.145 72.8581C122.954 72.8185 122.756 72.836 122.576 72.9082C122.395 72.9805 122.24 73.1043 122.129 73.2643C122.018 73.4243 121.957 73.6133 121.953 73.8078C121.949 74.0023 122.003 74.1936 122.107 74.3579C122.211 74.5222 122.362 74.6521 122.539 74.7315C122.661 74.7818 122.791 74.8087 122.922 74.8107C123.121 74.8138 123.316 74.7577 123.483 74.6495C123.65 74.5414 123.781 74.3861 123.859 74.2034Z" fill="black"/>
<path d="M120.783 32.0878C120.583 32.1886 120.423 32.3544 120.329 32.5582C120.235 32.762 120.213 32.9916 120.267 33.2095C120.32 33.4274 120.446 33.6205 120.624 33.7573C120.802 33.8941 121.021 33.9665 121.245 33.9625C121.403 33.9607 121.557 33.9198 121.694 33.8437C121.816 33.7877 121.925 33.7076 122.015 33.6082C122.105 33.5088 122.173 33.3922 122.217 33.2655C122.26 33.1388 122.278 33.0046 122.268 32.871C122.258 32.7374 122.221 32.6072 122.159 32.4883C122.097 32.3694 122.012 32.2642 121.909 32.1792C121.805 32.0941 121.686 32.031 121.557 31.9936C121.428 31.9561 121.293 31.9452 121.16 31.9614C121.027 31.9776 120.899 32.0206 120.783 32.0878V32.0878Z" fill="black"/>
<path d="M115.556 85.9928C115.458 85.9061 115.344 85.8396 115.22 85.797C115.096 85.7544 114.965 85.7366 114.835 85.7445C114.704 85.7525 114.576 85.7861 114.459 85.8434C114.341 85.9008 114.236 85.9807 114.15 86.0786C114.063 86.1766 113.996 86.2906 113.954 86.4143C113.911 86.538 113.893 86.6688 113.901 86.7994C113.909 86.93 113.943 87.0577 114 87.1753C114.057 87.2928 114.137 87.398 114.235 87.4847C114.421 87.6377 114.655 87.7217 114.895 87.7223C115.037 87.7245 115.176 87.6947 115.304 87.6353C115.432 87.5758 115.545 87.4882 115.635 87.3791C115.721 87.2831 115.788 87.171 115.831 87.0492C115.873 86.9274 115.892 86.7983 115.884 86.6694C115.877 86.5405 115.844 86.4143 115.788 86.2982C115.731 86.1821 115.652 86.0783 115.556 85.9928Z" fill="black"/>
<path d="M122.486 35.5079C122.277 35.5972 122.104 35.756 121.998 35.9576C121.892 36.1591 121.859 36.3911 121.904 36.6144C121.949 36.8377 122.069 37.0387 122.245 37.1834C122.421 37.3282 122.641 37.4079 122.869 37.4091C123.001 37.4095 123.131 37.3825 123.252 37.3299C123.374 37.2781 123.484 37.2028 123.576 37.1083C123.669 37.0139 123.741 36.9021 123.79 36.7794C123.84 36.6568 123.864 36.5256 123.862 36.3935C123.86 36.2614 123.833 36.131 123.78 36.0096C123.673 35.7731 123.478 35.588 123.236 35.4942C122.994 35.4004 122.725 35.4053 122.486 35.5079Z" fill="black"/>
<path d="M118.777 28.8142C118.57 28.9566 118.425 29.171 118.368 29.4154C118.312 29.6597 118.349 29.9163 118.473 30.1345C118.561 30.276 118.683 30.3927 118.829 30.4736C118.974 30.5545 119.138 30.5968 119.305 30.5965C119.492 30.5971 119.676 30.5419 119.833 30.4381C120.044 30.2999 120.194 30.0862 120.253 29.8409C120.312 29.5955 120.275 29.3369 120.15 29.1179C120.006 28.8974 119.782 28.7421 119.525 28.6853C119.268 28.6285 119 28.6748 118.777 28.8142V28.8142Z" fill="black"/>
<path d="M125.576 65.5953C125.319 65.5391 125.05 65.5848 124.826 65.7226C124.602 65.8605 124.44 66.0799 124.374 66.3346C124.343 66.4603 124.337 66.5911 124.356 66.7192C124.376 66.8473 124.421 66.9702 124.489 67.0808C124.556 67.1914 124.645 67.2874 124.75 67.3633C124.855 67.4392 124.974 67.4934 125.1 67.5228C125.179 67.5354 125.259 67.5354 125.338 67.5228C125.577 67.5136 125.804 67.4197 125.979 67.258C126.155 67.0963 126.267 66.8774 126.295 66.6405C126.324 66.4037 126.267 66.1644 126.135 65.9655C126.003 65.7667 125.805 65.6214 125.576 65.5557V65.5953Z" fill="black"/>
<path d="M55.2607 98.4294C55.3992 98.5014 55.5535 98.5377 55.7096 98.535C55.9486 98.5332 56.1786 98.444 56.3563 98.2841C56.5339 98.1242 56.6467 97.9047 56.6734 97.6672C56.7001 97.4297 56.6388 97.1906 56.5011 96.9953C56.3635 96.7999 56.159 96.6618 55.9263 96.607C55.6937 96.5523 55.449 96.5847 55.2387 96.6982C55.0283 96.8117 54.8669 96.9983 54.7849 97.2228C54.7029 97.4473 54.706 97.6941 54.7937 97.9164C54.8814 98.1388 55.0475 98.3213 55.2607 98.4294V98.4294Z" fill="black"/>
<path d="M54.6399 13.4467C54.7269 13.6055 54.8548 13.7382 55.0103 13.8311C55.1658 13.9239 55.3433 13.9735 55.5244 13.9747C55.6858 13.9729 55.8443 13.9321 55.9865 13.8559C56.2193 13.7334 56.394 13.5233 56.472 13.272C56.5499 13.0207 56.5249 12.7487 56.4024 12.5159C56.2798 12.2831 56.0698 12.1084 55.8185 12.0304C55.5672 11.9524 55.2952 11.9775 55.0623 12.1C54.8288 12.2236 54.6534 12.4344 54.5743 12.6865C54.4952 12.9386 54.5188 13.2118 54.6399 13.4467V13.4467Z" fill="black"/>
<path d="M51.8808 96.4884C52.0391 96.5869 52.2226 96.6373 52.4089 96.6336C52.5772 96.6337 52.7428 96.5914 52.8904 96.5106C53.0381 96.4299 53.1631 96.3133 53.2539 96.1716C53.3792 95.9526 53.4163 95.694 53.3574 95.4486C53.2985 95.2032 53.1481 94.9896 52.937 94.8513C52.7157 94.736 52.4589 94.7085 52.2182 94.7743C51.9775 94.8402 51.7705 94.9945 51.6387 95.2064C51.5068 95.4183 51.4599 95.6722 51.5072 95.9173C51.5546 96.1623 51.6927 96.3805 51.894 96.528L51.8808 96.4884Z" fill="black"/>
<path d="M48.6593 94.2707C48.8302 94.4001 49.0389 94.4697 49.2533 94.4687C49.4067 94.4667 49.5576 94.4301 49.6948 94.3615C49.832 94.2929 49.9519 94.1942 50.0455 94.0727C50.1647 93.9172 50.2351 93.7298 50.2478 93.5342C50.2605 93.3387 50.2149 93.1438 50.1167 92.9742C50.0186 92.8046 49.8723 92.668 49.6964 92.5815C49.5206 92.4951 49.3231 92.4628 49.1288 92.4887C48.9346 92.5146 48.7525 92.5975 48.6054 92.727C48.4583 92.8565 48.353 93.0267 48.3027 93.2161C48.2524 93.4055 48.2594 93.6055 48.3229 93.7909C48.3864 93.9763 48.5035 94.1387 48.6593 94.2575V94.2707Z" fill="black"/>
<path d="M65.9675 7.96758C65.7406 8.03347 65.5447 8.17832 65.4153 8.37598C65.2858 8.57364 65.2313 8.81108 65.2616 9.0454C65.2919 9.27973 65.405 9.4955 65.5804 9.65375C65.7559 9.81199 65.9821 9.90228 66.2183 9.90832C66.3015 9.92061 66.386 9.92061 66.4692 9.90832C66.5991 9.87937 66.7219 9.82453 66.8301 9.74706C66.9384 9.66958 67.0299 9.57107 67.0992 9.45741C67.1685 9.34376 67.2142 9.21729 67.2336 9.08557C67.2529 8.95386 67.2455 8.81961 67.2117 8.69083C67.178 8.56205 67.1186 8.4414 67.0371 8.33609C66.9557 8.23079 66.8539 8.14298 66.7377 8.07793C66.6216 8.01288 66.4935 7.97191 66.3611 7.95749C66.2288 7.94306 66.0949 7.95548 65.9675 7.99399V7.96758Z" fill="black"/>
<path d="M32.5918 69.5166H32.8559C33.108 69.4455 33.3222 69.2787 33.453 69.0518C33.5837 68.8248 33.6206 68.5557 33.5556 68.302C33.5235 68.1753 33.4663 68.0563 33.3874 67.9521C33.3085 67.8479 33.2095 67.7606 33.0962 67.6954C32.983 67.6301 32.8578 67.5883 32.728 67.5723C32.5983 67.5563 32.4667 67.5665 32.341 67.6023C32.1141 67.6682 31.9182 67.813 31.7888 68.0107C31.6593 68.2083 31.6048 68.4458 31.6351 68.6801C31.6654 68.9144 31.7785 69.1302 31.9539 69.2884C32.1294 69.4467 32.3556 69.537 32.5918 69.543V69.5166Z" fill="black"/>
<path d="M43.4181 23.1765C43.6521 23.181 43.8802 23.1036 44.0631 22.9577C44.2461 22.8118 44.3722 22.6066 44.4198 22.3775C44.4675 22.1484 44.4335 21.9099 44.3239 21.7032C44.2143 21.4965 44.0359 21.3346 43.8195 21.2455C43.6032 21.1564 43.3624 21.1457 43.139 21.2153C42.9157 21.2849 42.7236 21.4304 42.5961 21.6266C42.4686 21.8228 42.4137 22.0573 42.4409 22.2897C42.468 22.5221 42.5755 22.7377 42.7448 22.8992C42.9244 23.0761 43.1661 23.1757 43.4181 23.1765V23.1765Z" fill="black"/>
<path d="M30.823 54.3866C31.0177 54.3865 31.2081 54.3291 31.3703 54.2214C31.5325 54.1137 31.6594 53.9606 31.7351 53.7812C31.8107 53.6018 31.8318 53.4041 31.7957 53.2128C31.7596 53.0214 31.6678 52.845 31.532 52.7055C31.3961 52.5661 31.2222 52.4697 31.0319 52.4286C30.8416 52.3875 30.6434 52.4033 30.462 52.4743C30.2807 52.5452 30.1243 52.668 30.0124 52.8273C29.9005 52.9866 29.8381 53.1754 29.8329 53.37C29.8293 53.5022 29.8523 53.6339 29.9005 53.7571C29.9487 53.8803 30.0211 53.9925 30.1134 54.0873C30.2057 54.1821 30.316 54.2574 30.4379 54.3088C30.5598 54.3602 30.6908 54.3866 30.823 54.3866V54.3866Z" fill="black"/>
<path d="M36.9226 80.131C37.0885 80.1324 37.2521 80.0914 37.3978 80.0121C37.6224 79.8866 37.7894 79.6787 37.8633 79.4323C37.9372 79.1858 37.9124 78.9203 37.7939 78.6919C37.7381 78.5668 37.657 78.4547 37.5557 78.3625C37.4544 78.2704 37.335 78.2003 37.2052 78.1566C37.0754 78.113 36.9379 78.0967 36.8015 78.1089C36.6651 78.1211 36.5327 78.1615 36.4127 78.2274C36.2926 78.2934 36.1876 78.3835 36.1042 78.4922C36.0208 78.6008 35.9608 78.7255 35.9281 78.8585C35.8954 78.9915 35.8906 79.1299 35.9141 79.2648C35.9375 79.3997 35.9887 79.5283 36.0644 79.6425C36.1501 79.7937 36.2751 79.9189 36.4262 80.0049C36.5773 80.0909 36.7488 80.1345 36.9226 80.131V80.131Z" fill="black"/>
<path d="M38.8365 83.4053C39.0303 83.4055 39.2194 83.3455 39.3778 83.2337C39.5481 83.131 39.6836 82.9795 39.7665 82.7987C39.8495 82.618 39.8761 82.4164 39.8429 82.2204C39.8097 82.0243 39.7183 81.8428 39.5804 81.6994C39.4426 81.5561 39.2648 81.4575 39.0702 81.4167C38.8755 81.3758 38.6731 81.3944 38.4893 81.4702C38.3054 81.546 38.1486 81.6755 38.0393 81.8416C37.9301 82.0078 37.8733 82.203 37.8766 82.4019C37.8798 82.6007 37.9429 82.794 38.0575 82.9565C38.1443 83.086 38.2597 83.1939 38.3947 83.2717C38.5298 83.3495 38.681 83.3952 38.8365 83.4053Z" fill="black"/>
<path d="M33.7408 73.1605C33.85 73.1795 33.9616 73.1795 34.0708 73.1605C34.1994 73.1168 34.3175 73.0471 34.418 72.9557C34.5184 72.8644 34.599 72.7533 34.6548 72.6295C34.7105 72.5057 34.7401 72.3717 34.7419 72.2359C34.7436 72.1002 34.7174 71.9655 34.6649 71.8403C34.5644 71.6112 34.3809 71.4287 34.1513 71.3294C33.9217 71.2301 33.6631 71.2214 33.4273 71.305C33.1916 71.3886 32.9961 71.5583 32.8804 71.7801C32.7647 72.0018 32.7372 72.2592 32.8034 72.5004V72.5004C32.8735 72.693 33.0009 72.8595 33.1685 72.9775C33.3361 73.0955 33.5358 73.1594 33.7408 73.1605V73.1605Z" fill="black"/>
<path d="M35.1667 76.7119C35.3042 76.7127 35.4399 76.681 35.5628 76.6194C35.7971 76.5091 35.9789 76.3114 36.0692 76.0686C36.1594 75.8259 36.1509 75.5574 36.0456 75.3208C35.9402 75.0842 35.7464 74.8983 35.5056 74.8029C35.2648 74.7076 34.9962 74.7104 34.7574 74.8107C34.5456 74.9008 34.3719 75.0618 34.2659 75.2661C34.16 75.4705 34.1285 75.7053 34.177 75.9303C34.2254 76.1553 34.3507 76.3564 34.5313 76.499C34.7119 76.6417 34.9366 76.7169 35.1667 76.7119V76.7119Z" fill="black"/>
<path d="M31.7339 65.7936H31.9187C32.0535 65.7775 32.1836 65.7338 32.3008 65.6652C32.418 65.5967 32.5199 65.5048 32.6001 65.3952C32.6802 65.2856 32.737 65.1607 32.7669 65.0282C32.7968 64.8958 32.7991 64.7586 32.7737 64.6252C32.7483 64.4918 32.6957 64.3651 32.6192 64.2529C32.5427 64.1407 32.444 64.0454 32.3292 63.973C32.2143 63.9005 32.0858 63.8525 31.9516 63.8318C31.8174 63.8112 31.6804 63.8183 31.549 63.8529C31.3155 63.9071 31.1096 64.0442 30.9695 64.2387C30.8293 64.4332 30.7645 64.672 30.7871 64.9107C30.8097 65.1493 30.9181 65.3717 31.0922 65.5365C31.2663 65.7013 31.4943 65.7974 31.7339 65.8068V65.7936Z" fill="black"/>
<path d="M48.2898 17.658C48.3678 17.7621 48.4656 17.8497 48.5775 17.9159C48.6894 17.9822 48.8132 18.0257 48.942 18.0441C49.0707 18.0625 49.2018 18.0554 49.3277 18.0231C49.4537 17.9908 49.5721 17.9341 49.6761 17.8561C49.7801 17.778 49.8677 17.6803 49.934 17.5684C50.0002 17.4565 50.0438 17.3327 50.0622 17.2039C50.0806 17.0752 50.0734 16.9441 50.0412 16.8182C50.0089 16.6922 49.9521 16.5738 49.8741 16.4698C49.7166 16.2597 49.482 16.1208 49.222 16.0837C48.9621 16.0465 48.698 16.1142 48.4879 16.2718C48.2778 16.4293 48.1389 16.6639 48.1018 16.9239C48.0646 17.1838 48.1323 17.4479 48.2898 17.658V17.658Z" fill="black"/>
<path d="M41.0811 86.5476C41.3016 86.5477 41.5156 86.4733 41.6884 86.3364C41.8424 86.2149 41.9569 86.0504 42.0173 85.8638C42.0776 85.6772 42.0812 85.4768 42.0275 85.2881C41.9739 85.0995 41.8654 84.931 41.7158 84.8041C41.5663 84.6772 41.3824 84.5975 41.1876 84.5753C40.9927 84.553 40.7956 84.5891 40.6213 84.679C40.447 84.7689 40.3033 84.9086 40.2084 85.0802C40.1136 85.2519 40.0719 85.4479 40.0886 85.6433C40.1053 85.8388 40.1796 86.0249 40.3022 86.178C40.3964 86.2936 40.5152 86.3868 40.65 86.4507C40.7847 86.5147 40.932 86.5478 41.0811 86.5476Z" fill="black"/>
<path d="M43.5239 89.3855C43.7729 89.3818 44.0121 89.2881 44.1972 89.1215C44.3826 88.9359 44.4868 88.6842 44.4868 88.4218C44.4868 88.1594 44.3826 87.9077 44.1972 87.7221C44.1189 87.6014 44.0151 87.4991 43.8932 87.4226C43.7713 87.3461 43.6342 87.297 43.4914 87.2789C43.3486 87.2608 43.2036 87.2739 43.0665 87.3176C42.9293 87.3612 42.8033 87.4342 42.6973 87.5315C42.5912 87.6288 42.5076 87.7481 42.4524 87.881C42.3971 88.0139 42.3715 88.1572 42.3773 88.3011C42.3831 88.4449 42.4202 88.5857 42.4859 88.7137C42.5517 88.8417 42.6446 88.9539 42.7582 89.0423C42.8546 89.1501 42.9725 89.2363 43.1045 89.2955C43.2364 89.3546 43.3793 89.3853 43.5239 89.3855V89.3855Z" fill="black"/>
<path d="M46.1643 20.5364C46.4132 20.5327 46.6525 20.4389 46.8376 20.2724C47.029 20.0938 47.143 19.8475 47.1553 19.5861C47.1676 19.3246 47.0773 19.0687 46.9036 18.8729C46.7922 18.7528 46.6527 18.6622 46.4976 18.6093C46.3426 18.5563 46.1768 18.5427 46.0152 18.5696C45.8536 18.5965 45.7012 18.663 45.5716 18.7633C45.442 18.8636 45.3394 18.9945 45.2728 19.1442C45.2063 19.2939 45.1779 19.4578 45.1903 19.6212C45.2027 19.7845 45.2555 19.9423 45.3438 20.0802C45.4321 20.2182 45.5533 20.3321 45.6965 20.4117C45.8397 20.4914 46.0004 20.5342 46.1643 20.5364V20.5364Z" fill="black"/>
<path d="M80.3448 7.17566C80.3359 7.30613 80.3532 7.43705 80.3958 7.56069C80.4384 7.68433 80.5054 7.79816 80.5928 7.89542C80.6803 7.99269 80.7863 8.07141 80.9047 8.12693C81.0231 8.18245 81.1515 8.21363 81.2822 8.21863V8.21863C81.4757 8.21835 81.6649 8.16137 81.8264 8.05473C81.9879 7.94808 82.1146 7.79646 82.1908 7.61859C82.2671 7.44071 82.2895 7.2444 82.2554 7.0539C82.2213 6.8634 82.1321 6.68708 81.9988 6.54673C81.8656 6.40637 81.6942 6.30813 81.5057 6.26417C81.3172 6.22021 81.12 6.23243 80.9384 6.29934C80.7568 6.36626 80.5988 6.48492 80.4839 6.64066C80.3691 6.7964 80.3023 6.9824 80.292 7.17566H80.3448Z" fill="black"/>
<path d="M31.0344 50.5712H31.14C31.4026 50.5852 31.66 50.4943 31.8556 50.3185C32.0512 50.1427 32.169 49.8964 32.183 49.6338C32.197 49.3712 32.1061 49.1138 31.9303 48.9182C31.7545 48.7226 31.5082 48.6048 31.2456 48.5908C30.9834 48.5649 30.7215 48.6431 30.5164 48.8086C30.3114 48.9741 30.1797 49.2136 30.1498 49.4754C30.1333 49.6058 30.1433 49.7383 30.1793 49.8648C30.2152 49.9913 30.2763 50.1092 30.3589 50.2115C30.4415 50.3139 30.5439 50.3985 30.66 50.4603C30.776 50.5221 30.9034 50.5598 31.0344 50.5712V50.5712Z" fill="black"/>
<path d="M31.5096 46.7827H31.6944C31.9269 46.7805 32.1514 46.6977 32.3295 46.5484C32.5077 46.3991 32.6286 46.1926 32.6714 45.9641C32.7069 45.7719 32.6847 45.5734 32.6077 45.3938C32.5306 45.2141 32.4021 45.0613 32.2383 44.9546C32.0746 44.8478 31.8829 44.792 31.6874 44.794C31.4919 44.796 31.3014 44.8559 31.1399 44.966C30.9784 45.0761 30.8531 45.2316 30.7798 45.4128C30.7065 45.594 30.6884 45.7929 30.728 45.9844C30.7675 46.1758 30.8628 46.3513 31.0019 46.4886C31.141 46.626 31.3176 46.7191 31.5096 46.7563V46.7827Z" fill="black"/>
<path d="M30.8757 58.2152C31.1371 58.2016 31.3829 58.0862 31.5605 57.8938C31.7381 57.7014 31.8335 57.4472 31.8262 57.1855V57.1855C31.8357 57.0467 31.8158 56.9076 31.7679 56.777C31.72 56.6465 31.6451 56.5275 31.5481 56.4278C31.4512 56.3281 31.3344 56.2499 31.2052 56.1984C31.076 56.1469 30.9374 56.1231 30.7985 56.1287C30.6595 56.1343 30.5233 56.1691 30.3987 56.2309C30.2741 56.2926 30.1639 56.3799 30.0753 56.4871C29.9867 56.5942 29.9216 56.7189 29.8844 56.8528C29.8471 56.9868 29.8385 57.1272 29.859 57.2647C29.8624 57.3942 29.8916 57.5216 29.9447 57.6398C29.9978 57.7579 30.0738 57.8642 30.1684 57.9527C30.263 58.0411 30.3743 58.1099 30.4957 58.155C30.6171 58.2001 30.7463 58.2205 30.8757 58.2152V58.2152Z" fill="black"/>
<path d="M32.2885 43.0462C32.3716 43.06 32.4563 43.06 32.5394 43.0462C32.7242 43.0451 32.905 42.9923 33.0614 42.8938C33.2177 42.7953 33.3434 42.655 33.4241 42.4888C33.5049 42.3226 33.5375 42.1371 33.5183 41.9533C33.4991 41.7695 33.4289 41.5947 33.3155 41.4488C33.2022 41.3028 33.0503 41.1915 32.8769 41.1274C32.7036 41.0633 32.5158 41.049 32.3348 41.0861C32.1537 41.1232 31.9867 41.2102 31.8525 41.3373C31.7184 41.4644 31.6225 41.6265 31.5757 41.8052C31.5398 41.9335 31.5298 42.0677 31.5463 42.1999C31.5629 42.3321 31.6055 42.4597 31.6719 42.5752C31.7383 42.6907 31.827 42.7919 31.9329 42.8727C32.0387 42.9536 32.1596 43.0126 32.2885 43.0462V43.0462Z" fill="black"/>
<path d="M31.1667 62.018H31.2723C31.5331 61.9882 31.7714 61.856 31.9348 61.6505C32.0982 61.445 32.1733 61.183 32.1436 60.9222C32.1306 60.7923 32.0917 60.6664 32.0291 60.5519C31.9666 60.4374 31.8818 60.3365 31.7796 60.2553C31.6775 60.174 31.5601 60.1141 31.4344 60.079C31.3087 60.0439 31.1773 60.0343 31.0478 60.0508C30.8052 60.0897 30.5857 60.2174 30.432 60.4092C30.2783 60.6009 30.2013 60.843 30.2162 61.0882C30.231 61.3335 30.3365 61.5645 30.5122 61.7364C30.6878 61.9082 30.9211 62.0086 31.1667 62.018V62.018Z" fill="black"/>
<path d="M35.0742 35.8773C35.3032 35.8791 35.5256 35.8016 35.7039 35.6579C35.8821 35.5142 36.005 35.3132 36.0517 35.0891C36.0984 34.865 36.0659 34.6316 35.9599 34.4287C35.8539 34.2257 35.6809 34.0658 35.4703 33.9761C35.2269 33.8697 34.9512 33.8642 34.7037 33.9607C34.4562 34.0572 34.2571 34.2479 34.1501 34.491C34.0952 34.6105 34.0646 34.7397 34.0601 34.8711C34.0557 35.0024 34.0775 35.1334 34.1242 35.2563C34.1709 35.3792 34.2416 35.4916 34.3321 35.5868C34.4227 35.6821 34.5314 35.7584 34.6518 35.8113C34.7867 35.8615 34.9304 35.8839 35.0742 35.8773V35.8773Z" fill="black"/>
<path d="M125.55 58.9544C125.532 59.215 125.617 59.4723 125.788 59.6701C125.958 59.868 126.2 59.9903 126.461 60.0106H126.54C126.791 60.0081 127.031 59.9118 127.214 59.7408C127.398 59.5697 127.51 59.3363 127.53 59.0864C127.549 58.8238 127.464 58.5643 127.291 58.365C127.119 58.1657 126.875 58.0429 126.613 58.0237C126.35 58.0044 126.09 58.0902 125.891 58.2623C125.692 58.4344 125.569 58.6786 125.55 58.9412V58.9544Z" fill="black"/>
<path d="M111.595 88.8051C111.457 88.9428 111.363 89.1179 111.325 89.3087C111.286 89.4994 111.305 89.6973 111.378 89.8776C111.451 90.0579 111.576 90.2126 111.737 90.3224C111.897 90.4322 112.087 90.4922 112.281 90.495C112.443 90.4951 112.603 90.4554 112.746 90.3794C112.889 90.3034 113.012 90.1934 113.103 90.0591C113.193 89.9248 113.25 89.7703 113.267 89.6091C113.284 89.4479 113.261 89.285 113.2 89.1346C113.14 88.9843 113.043 88.8511 112.919 88.7468C112.795 88.6425 112.647 88.5703 112.489 88.5365C112.33 88.5026 112.166 88.5082 112.01 88.5527C111.854 88.5973 111.712 88.6794 111.595 88.7919V88.8051Z" fill="black"/>
<path d="M120.454 76.8175C120.341 77.0497 120.322 77.3164 120.4 77.5623C120.479 77.8082 120.649 78.0143 120.876 78.1378C121.021 78.2055 121.178 78.2415 121.338 78.2434C121.519 78.2428 121.697 78.1919 121.851 78.0963C122.005 78.0007 122.129 77.8642 122.21 77.7021C122.316 77.4709 122.329 77.2075 122.247 76.9668C122.164 76.726 121.992 76.5263 121.766 76.4091C121.54 76.2919 121.278 76.2662 121.033 76.3373C120.789 76.4084 120.581 76.571 120.454 76.7911V76.8175Z" fill="black"/>
<path d="M117.179 27.507C117.393 27.5043 117.601 27.4351 117.773 27.309C117.931 27.1928 118.05 27.0325 118.117 26.8484C118.183 26.6644 118.194 26.4647 118.147 26.2747C118.1 26.0847 117.998 25.9128 117.853 25.7809C117.709 25.6489 117.528 25.5628 117.335 25.5333C117.141 25.5038 116.943 25.5323 116.766 25.6152C116.589 25.6981 116.44 25.8317 116.339 25.9991C116.237 26.1666 116.188 26.3603 116.196 26.5558C116.205 26.7513 116.271 26.9399 116.387 27.0977C116.477 27.2239 116.596 27.3268 116.734 27.398C116.871 27.4692 117.024 27.5065 117.179 27.507V27.507Z" fill="black"/>
<path d="M124.216 40.9733C124.321 40.9923 124.428 40.9923 124.533 40.9733C124.657 40.9329 124.772 40.8684 124.872 40.7834C124.971 40.6984 125.052 40.5946 125.111 40.4781C125.17 40.3615 125.205 40.2344 125.215 40.1041C125.224 39.9739 125.208 39.843 125.167 39.7191C125.107 39.5486 125.001 39.3979 124.861 39.2833C124.721 39.1688 124.552 39.0946 124.373 39.0691C124.194 39.0435 124.012 39.0674 123.846 39.1382C123.679 39.209 123.535 39.324 123.43 39.4707C123.324 39.6174 123.261 39.7903 123.246 39.9705C123.232 40.1507 123.267 40.3314 123.348 40.4931C123.429 40.6547 123.553 40.791 123.706 40.8873C123.859 40.9836 124.035 41.0362 124.216 41.0393V40.9733Z" fill="black"/>
<path d="M95.8441 11.3868C95.9556 11.4393 96.0773 11.4663 96.2005 11.466C96.4541 11.4757 96.7021 11.3902 96.8958 11.2263C97.0895 11.0624 97.215 10.832 97.2475 10.5803C97.28 10.3287 97.2172 10.074 97.0714 9.86625C96.9256 9.65854 96.7075 9.51285 96.4598 9.45781C96.2121 9.40276 95.9527 9.44234 95.7327 9.56876C95.5127 9.69519 95.3479 9.89932 95.2708 10.141C95.1936 10.3828 95.2097 10.6446 95.3158 10.8751C95.4218 11.1056 95.6103 11.2882 95.8441 11.3868V11.3868Z" fill="black"/>
<path d="M98.973 98.7594C99.0516 98.927 99.1769 99.0684 99.3337 99.1667C99.4906 99.2651 99.6725 99.3162 99.8576 99.3139C100.008 99.3152 100.157 99.2837 100.293 99.2215V99.2215C100.504 99.0926 100.659 98.8896 100.727 98.6524C100.796 98.4152 100.774 98.1609 100.665 97.9394C100.556 97.7179 100.368 97.5451 100.138 97.455C99.9078 97.3649 99.6525 97.364 99.4219 97.4524C99.3054 97.5073 99.201 97.585 99.1151 97.681C99.0291 97.777 98.9632 97.8892 98.9214 98.0111C98.8795 98.1329 98.8626 98.2619 98.8714 98.3904C98.8803 98.519 98.9148 98.6444 98.973 98.7594Z" fill="black"/>
<path d="M106.261 16.8919C106.501 16.895 106.734 16.8119 106.918 16.6579C107.102 16.5038 107.225 16.2889 107.264 16.0522C107.303 15.8154 107.256 15.5725 107.131 15.3675C107.007 15.1624 106.813 15.0088 106.585 14.9345C106.356 14.8603 106.109 14.8702 105.888 14.9626C105.666 15.0549 105.485 15.2236 105.377 15.438C105.27 15.6524 105.242 15.8983 105.3 16.1311C105.358 16.3639 105.498 16.5683 105.693 16.7071C105.861 16.8214 106.058 16.8855 106.261 16.8919V16.8919Z" fill="black"/>
<path d="M105.852 93.6111C105.681 93.7334 105.553 93.9068 105.487 94.1064C105.422 94.306 105.421 94.5213 105.486 94.7213C105.55 94.9212 105.677 95.0953 105.847 95.2186C106.017 95.3418 106.222 95.4076 106.433 95.4066C106.588 95.4058 106.742 95.3683 106.88 95.2972C107.019 95.226 107.138 95.1232 107.23 94.997C107.321 94.8708 107.381 94.7249 107.406 94.571C107.43 94.4172 107.418 94.2598 107.37 94.1117C107.322 93.9635 107.24 93.8287 107.13 93.7182C107.02 93.6078 106.886 93.5249 106.738 93.4761C106.59 93.4273 106.432 93.4141 106.279 93.4376C106.125 93.461 105.978 93.5205 105.852 93.6111V93.6111Z" fill="black"/>
<path d="M108.69 92.7132C108.784 92.8247 108.901 92.9143 109.034 92.9758C109.166 93.0374 109.31 93.0694 109.456 93.0696C109.687 93.0745 109.913 92.9946 110.09 92.8451C110.19 92.7613 110.272 92.6585 110.332 92.5426C110.392 92.4268 110.429 92.3002 110.44 92.1702C110.451 92.0401 110.436 91.9091 110.397 91.7848C110.357 91.6605 110.293 91.5452 110.208 91.4457C110.126 91.3461 110.024 91.2639 109.909 91.204C109.795 91.144 109.669 91.1074 109.54 91.0963C109.411 91.0853 109.281 91.1 109.158 91.1395C109.035 91.1791 108.921 91.2428 108.822 91.3269C108.622 91.494 108.496 91.7334 108.471 91.9929C108.447 92.2524 108.525 92.5112 108.69 92.7132V92.7132Z" fill="black"/>
<path d="M62.5478 10.9909C62.6526 11.01 62.7599 11.01 62.8647 10.9909C63.0503 10.9283 63.2132 10.8121 63.3327 10.6569C63.4523 10.5017 63.5231 10.3145 63.5362 10.1191C63.5494 9.9236 63.5042 9.72864 63.4065 9.55884C63.3088 9.38905 63.1629 9.25206 62.9874 9.16519C62.8118 9.07832 62.6144 9.04547 62.4201 9.07083C62.2259 9.09618 62.0435 9.17861 61.8961 9.30763C61.7487 9.43666 61.6429 9.6065 61.592 9.79569C61.5412 9.98487 61.5476 10.1849 61.6105 10.3704C61.6838 10.5578 61.8132 10.7179 61.981 10.829C62.1487 10.9401 62.3467 10.9966 62.5478 10.9909Z" fill="black"/>
<path d="M59.551 98.2446C59.3133 98.1622 59.053 98.1733 58.8232 98.2758C58.5934 98.3783 58.4112 98.5645 58.3137 98.7965C58.2162 99.0285 58.2107 99.2889 58.2982 99.5248C58.3858 99.7607 58.56 99.9544 58.7853 100.067C58.9068 100.117 59.0367 100.144 59.1682 100.146C59.3644 100.145 59.556 100.087 59.72 99.9788C59.884 99.871 60.0133 99.7181 60.0923 99.5385C60.1419 99.418 60.1673 99.2889 60.1669 99.1586C60.1665 99.0283 60.1405 98.8994 60.0902 98.7792C60.0399 98.659 59.9664 98.5499 59.8739 98.4582C59.7814 98.3665 59.6717 98.2939 59.551 98.2446V98.2446Z" fill="black"/>
<path d="M63.0632 99.5521C62.9392 99.5109 62.8084 99.4946 62.6781 99.5041C62.5478 99.5137 62.4208 99.549 62.3042 99.6079C62.1876 99.6668 62.0838 99.7482 61.9988 99.8474C61.9138 99.9465 61.8493 100.062 61.809 100.186C61.7679 100.309 61.7518 100.439 61.7615 100.568C61.7713 100.697 61.8067 100.824 61.8657 100.939C61.9246 101.055 62.0061 101.157 62.1051 101.241C62.2042 101.325 62.3189 101.388 62.4427 101.427C62.543 101.446 62.646 101.446 62.7463 101.427C62.9567 101.426 63.1618 101.36 63.3323 101.237C63.5029 101.114 63.6304 100.94 63.6969 100.74C63.7606 100.499 63.7306 100.242 63.6131 100.022C63.4956 99.8015 63.2992 99.6337 63.0632 99.5521Z" fill="black"/>
<path d="M66.6538 100.595C66.5239 100.55 66.3861 100.533 66.249 100.544C66.112 100.555 65.9789 100.595 65.8581 100.661C65.7373 100.726 65.6314 100.816 65.5473 100.925C65.4632 101.034 65.4026 101.159 65.3695 101.292C65.3364 101.426 65.3314 101.564 65.3549 101.7C65.3784 101.835 65.4298 101.964 65.5059 102.079C65.582 102.193 65.6811 102.291 65.7969 102.365C65.9128 102.439 66.0427 102.488 66.1786 102.509C66.2573 102.522 66.3375 102.522 66.4162 102.509C66.6367 102.505 66.8501 102.43 67.0239 102.294C67.1978 102.158 67.3227 101.97 67.38 101.757C67.4287 101.507 67.3809 101.248 67.2461 101.033C67.1113 100.817 66.8996 100.66 66.6538 100.595Z" fill="black"/>
<path d="M59.3661 12.2709C59.4876 12.2191 59.5977 12.1438 59.6901 12.0494C59.7825 11.9549 59.8553 11.8432 59.9044 11.7205C59.9534 11.5978 59.9778 11.4667 59.976 11.3346C59.9743 11.2025 59.9465 11.072 59.8942 10.9507C59.7727 10.7365 59.5767 10.5745 59.3434 10.4955C59.1102 10.4164 58.8561 10.4259 58.6294 10.5221C58.4027 10.6183 58.2193 10.7946 58.1142 11.0172C58.009 11.2399 57.9894 11.4934 58.0591 11.7296C58.1394 11.9083 58.269 12.0603 58.4327 12.1678C58.5964 12.2754 58.7873 12.3341 58.9832 12.3369C59.1138 12.3391 59.2437 12.3167 59.3661 12.2709V12.2709Z" fill="black"/>
<path d="M52.7655 15.73C52.8755 15.6607 52.9709 15.5703 53.0461 15.4641C53.1212 15.3579 53.1748 15.238 53.2036 15.1111C53.2324 14.9842 53.2359 14.8529 53.214 14.7246C53.1921 14.5964 53.145 14.4737 53.0757 14.3636C53.0063 14.2535 52.916 14.1581 52.8098 14.083C52.7036 14.0078 52.5836 13.9543 52.4567 13.9255C52.3299 13.8967 52.1985 13.8931 52.0703 13.9151C51.942 13.937 51.8194 13.984 51.7093 14.0533C51.5294 14.1695 51.3921 14.3408 51.3178 14.5416C51.2436 14.7424 51.2364 14.9619 51.2974 15.1671C51.3583 15.3723 51.4842 15.5523 51.656 15.6799C51.8279 15.8076 52.0365 15.8761 52.2505 15.8753C52.4319 15.8724 52.6094 15.8224 52.7655 15.73V15.73Z" fill="black"/>
<path d="M46.9564 90.3233C46.8605 90.2369 46.7484 90.1704 46.6266 90.1276C46.5048 90.0847 46.3757 90.0665 46.2468 90.0739C46.1179 90.0812 45.9917 90.114 45.8756 90.1705C45.7594 90.2269 45.6556 90.3058 45.5702 90.4026C45.3965 90.5984 45.3062 90.8543 45.3185 91.1157C45.3308 91.3772 45.4448 91.6235 45.6362 91.802C45.8179 91.9639 46.0529 92.0532 46.2963 92.0529C46.4361 92.0548 46.5746 92.0262 46.7023 91.9692C46.83 91.9122 46.9437 91.8282 47.0356 91.7228C47.1224 91.6258 47.1892 91.5126 47.2322 91.3897C47.2752 91.2668 47.2936 91.1366 47.2862 91.0067C47.2789 90.8767 47.246 90.7494 47.1894 90.6322C47.1328 90.5149 47.0536 90.41 46.9564 90.3233V90.3233Z" fill="black"/>
<path d="M33.3317 39.3754C33.4414 39.388 33.5521 39.388 33.6618 39.3754C33.8431 39.3747 34.0208 39.3242 34.1755 39.2294C34.3301 39.1346 34.4557 38.9991 34.5386 38.8378C34.6215 38.6765 34.6585 38.4955 34.6456 38.3146C34.6327 38.1337 34.5703 37.9598 34.4653 37.812C34.3603 37.6641 34.2167 37.5479 34.0502 37.476C33.8837 37.4042 33.7006 37.3795 33.521 37.4045C33.3413 37.4296 33.1721 37.5036 33.0316 37.6183C32.8911 37.733 32.7849 37.8841 32.7244 38.0551C32.6742 38.1814 32.6501 38.3165 32.6537 38.4524C32.6572 38.5882 32.6883 38.7219 32.7451 38.8454C32.8019 38.9688 32.8832 39.0795 32.984 39.1706C33.0849 39.2617 33.2031 39.3313 33.3317 39.3754Z" fill="black"/>
<path d="M36.751 32.4182C36.9294 32.4201 37.1049 32.3731 37.2585 32.2824C37.4121 32.1916 37.5379 32.0605 37.6223 31.9033C37.7026 31.789 37.7577 31.659 37.7841 31.5219C37.8106 31.3848 37.8077 31.2436 37.7758 31.1077C37.7438 30.9717 37.6834 30.8441 37.5986 30.7331C37.5138 30.6222 37.4065 30.5304 37.2837 30.4639C37.1609 30.3973 37.0254 30.3575 36.8862 30.347C36.7469 30.3365 36.6071 30.3556 36.4757 30.4031C36.3444 30.4505 36.2245 30.5251 36.1241 30.6221C36.0236 30.7191 35.9448 30.8363 35.8928 30.9659C35.8139 31.1155 35.7745 31.2828 35.7786 31.4519C35.7827 31.621 35.83 31.7863 35.916 31.9319C36.0021 32.0775 36.124 32.1987 36.2701 32.2838C36.4163 32.3689 36.5818 32.4152 36.751 32.4182V32.4182Z" fill="black"/>
<path d="M41.5432 24.2988C41.3352 24.1417 41.0741 24.0718 40.8153 24.1038C40.5566 24.1358 40.3205 24.2673 40.157 24.4704C39.9966 24.6773 39.9246 24.9392 39.9567 25.199C39.9889 25.4588 40.1226 25.6952 40.3286 25.8567C40.5338 26.0186 40.7947 26.0928 41.0544 26.0631C41.3141 26.0334 41.5515 25.9023 41.7149 25.6983C41.7964 25.5955 41.8566 25.4775 41.8921 25.3512C41.9276 25.2249 41.9377 25.0928 41.9217 24.9626C41.9058 24.8324 41.864 24.7067 41.7991 24.5927C41.7341 24.4788 41.6471 24.3789 41.5432 24.2988V24.2988Z" fill="black"/>
<path d="M38.7176 29.1704C38.8823 29.1686 39.044 29.1267 39.1889 29.0485C39.3338 28.9703 39.4575 28.8581 39.5494 28.7216C39.6621 28.5579 39.7229 28.3641 39.724 28.1654C39.725 27.9667 39.6663 27.7723 39.5554 27.6074C39.4444 27.4425 39.2865 27.3148 39.102 27.2409C38.9176 27.167 38.7151 27.1504 38.5211 27.1931C38.327 27.2357 38.1503 27.3358 38.0139 27.4803C37.8774 27.6248 37.7876 27.807 37.7562 28.0032C37.7247 28.1994 37.7529 28.4006 37.8373 28.5805C37.9217 28.7604 38.0582 28.9107 38.2292 29.012C38.3752 29.1069 38.5437 29.1615 38.7176 29.1704Z" fill="black"/>
<path d="M121.708 55.2188C121.71 46.6974 119.185 38.3667 114.453 31.2804C109.72 24.194 102.992 18.6704 95.1202 15.4082C87.248 12.146 78.5851 11.2918 70.2274 12.9536C61.8696 14.6154 54.1924 18.7185 48.1669 24.7441C42.1414 30.7696 38.0382 38.4468 36.3764 46.8045C34.7146 55.1623 35.5689 63.8251 38.8311 71.6974C42.0933 79.5696 47.6169 86.2975 54.7032 91.0301C61.7896 95.7626 70.1203 98.2873 78.6416 98.2847C90.0602 98.2742 101.008 93.7336 109.082 85.6594C117.156 77.5853 121.697 66.6374 121.708 55.2188V55.2188ZM78.6416 96.3044C70.512 96.307 62.5641 93.8985 55.8034 89.3835C49.0427 84.8685 43.773 78.4499 40.6607 70.9395C37.5484 63.4291 36.7334 55.1645 38.3188 47.1909C39.9041 39.2172 43.8187 31.8929 49.5672 26.1444C55.3158 20.3958 62.6401 16.4813 70.6137 14.8959C78.5873 13.3105 86.852 14.1255 94.3624 17.2378C101.873 20.3501 108.291 25.6199 112.806 32.3806C117.321 39.1413 119.73 47.0891 119.727 55.2188C119.713 66.1111 115.38 76.5532 107.678 84.2552C99.9761 91.9572 89.5339 96.2904 78.6416 96.3044V96.3044Z" fill="black"/>
<path d="M91.7649 68.2754V63.813C90.3209 65.5621 88.5051 66.9674 86.4497 67.9266C84.3943 68.8857 82.151 69.3747 79.8828 69.358C76.6541 69.3687 73.5058 68.3507 70.8946 66.4516C68.2833 64.5525 66.3449 61.8711 65.3603 58.7961H85.771L87.0913 55.7464H64.819C64.819 55.2579 64.753 54.7562 64.753 54.2281C64.753 53.7 64.753 53.2115 64.819 52.7098H88.3059L89.6261 49.6733H65.3999C66.373 46.586 68.3065 43.8901 70.9187 41.9784C73.531 40.0667 76.6854 39.0392 79.9224 39.0455C82.178 39.042 84.4077 39.5263 86.4586 40.4651C88.5095 41.404 90.3331 42.7752 91.8045 44.4848L93.1247 41.4219C91.4147 39.6602 89.3596 38.2702 87.088 37.3388C84.8163 36.4074 82.377 35.9547 79.9224 36.0089C77.511 35.9541 75.114 36.3945 72.8795 37.3028C70.645 38.2112 68.6206 39.5681 66.9314 41.2899C64.5975 43.5969 62.9635 46.517 62.2181 49.7129H58.099L56.7788 52.7495H61.7561C61.7561 53.2511 61.6901 53.7528 61.6901 54.2677C61.6901 54.7826 61.69 55.2975 61.7561 55.786H58.099L56.7788 58.8357H62.2181C62.9635 62.0317 64.5975 64.9517 66.9314 67.2588C70.2289 70.419 74.5614 72.2747 79.1241 72.4811C83.6867 72.6875 88.1691 71.2306 91.7385 68.381L91.7649 68.2754Z" fill="black"/>
</svg>
