<svg width="119" height="111" viewBox="0 0 119 111" fill="none" xmlns="http://www.w3.org/2000/svg">
<path d="M61.93 0.00662587C60.9892 0.00662587 60.0352 0.00660969 59.1076 0.0728639C58.18 0.139118 57.226 0.00662587 56.2719 0.00662587C48.9235 -0.107017 41.6258 1.24221 34.8038 3.97573C27.9817 6.70925 21.7716 10.7725 16.5348 15.9289C11.2981 21.0853 7.13926 27.2319 4.30058 34.0108C1.46189 40.7898 0 48.0657 0 55.415C0 62.7643 1.46189 70.0402 4.30058 76.8192C7.13926 83.5981 11.2981 89.7447 16.5348 94.9011C21.7716 100.058 27.9817 104.121 34.8038 106.854C41.6258 109.588 48.9235 110.937 56.2719 110.823C57.226 110.823 58.1668 110.823 59.1076 110.823C60.0484 110.823 60.9892 110.823 61.93 110.823C69.2784 110.937 76.5761 109.588 83.3981 106.854C90.2201 104.121 96.4303 100.058 101.667 94.9011C106.904 89.7447 111.063 83.5981 113.901 76.8192C116.74 70.0402 118.202 62.7643 118.202 55.415C118.202 48.0657 116.74 40.7898 113.901 34.0108C111.063 27.2319 106.904 21.0853 101.667 15.9289C96.4303 10.7725 90.2201 6.70925 83.3981 3.97573C76.5761 1.24221 69.2784 -0.107017 61.93 0.00662587ZM6.58126 55.4084C6.59116 66.24 9.77068 76.832 15.7278 85.8783C21.6849 94.9247 30.1592 102.03 40.1059 106.318C29.308 102.876 19.8846 96.0887 13.1977 86.9384C6.51079 77.788 2.90687 66.7483 2.90687 55.415C2.90687 44.0817 6.51079 33.042 13.1977 23.8916C19.8846 14.7413 29.308 7.95439 40.1059 4.51194C30.1613 8.79921 21.6884 15.9024 15.7314 24.9462C9.77447 33.9899 6.59374 44.579 6.58126 55.4084V55.4084ZM61.983 108.836C51.4161 108.836 41.0864 105.702 32.3003 99.8316C23.5142 93.9609 16.6663 85.6167 12.6225 75.8542C8.57875 66.0916 7.52072 55.3491 9.58223 44.9852C11.6437 34.6213 16.7322 25.1014 24.2042 17.6295C31.6761 10.1575 41.196 5.06914 51.5599 3.00764C61.9238 0.946129 72.6662 2.00416 82.4288 6.04795C92.1914 10.0917 100.536 16.9397 106.406 25.7257C112.277 34.5118 115.41 44.8414 115.41 55.4084C115.396 69.5831 109.756 83.1724 99.7276 93.1905C89.6996 103.209 76.1047 108.836 61.93 108.836H61.983Z" fill="black"/>
<path d="M91.9428 17.6434C91.7798 17.8495 91.7025 18.1106 91.7272 18.3723C91.7519 18.6339 91.8766 18.876 92.0753 19.048C92.2528 19.1981 92.479 19.2781 92.7114 19.2732C92.8581 19.2749 93.0033 19.2437 93.1363 19.1818C93.2693 19.1199 93.3867 19.0289 93.4799 18.9155C93.5669 18.8146 93.6332 18.6975 93.675 18.571C93.7167 18.4445 93.7331 18.3109 93.7233 18.178C93.7134 18.0451 93.6775 17.9154 93.6176 17.7964C93.5576 17.6774 93.4748 17.5714 93.3739 17.4844C93.273 17.3974 93.1559 17.3311 93.0294 17.2893C92.9028 17.2476 92.7693 17.2312 92.6364 17.2411C92.5035 17.2509 92.3739 17.2868 92.2548 17.3468C92.1358 17.4067 92.0298 17.4895 91.9428 17.5904V17.6434Z" fill="black"/>
<path d="M97.5482 22.8777C97.4007 23.0074 97.2949 23.1779 97.2441 23.3677C97.1934 23.5574 97.2001 23.7579 97.2633 23.9439C97.3265 24.1299 97.4434 24.293 97.5992 24.4126C97.755 24.5322 97.9428 24.6029 98.1388 24.6159C98.3348 24.6288 98.5302 24.5834 98.7004 24.4853C98.8706 24.3873 99.0079 24.241 99.095 24.0649C99.1821 23.8889 99.2151 23.6909 99.1898 23.4961C99.1645 23.3013 99.082 23.1184 98.9528 22.9705C98.7772 22.7747 98.5319 22.6553 98.2694 22.6379C98.0069 22.6206 97.7481 22.7067 97.5482 22.8777Z" fill="black"/>
<path d="M101.418 26.0044C101.316 25.8689 101.182 25.7616 101.027 25.6927C100.872 25.6238 100.702 25.5957 100.533 25.611C100.365 25.6262 100.203 25.6842 100.063 25.7797C99.9228 25.8751 99.8096 26.0048 99.7338 26.1563C99.6581 26.3078 99.6223 26.4761 99.6299 26.6454C99.6375 26.8146 99.6882 26.9791 99.7773 27.1232C99.8664 27.2673 99.9908 27.3863 100.139 27.4688C100.287 27.5513 100.453 27.5945 100.623 27.5945C100.834 27.5936 101.038 27.5238 101.206 27.3957C101.416 27.2374 101.556 27.0033 101.595 26.7433C101.635 26.4833 101.571 26.2181 101.418 26.0044V26.0044Z" fill="black"/>
<path d="M79.9248 9.58713C79.8022 9.52944 79.6688 9.49818 79.5334 9.49533C79.3979 9.49248 79.2634 9.51816 79.1384 9.57063C79.0135 9.6231 78.901 9.70119 78.8082 9.79991C78.7154 9.89864 78.6444 10.0158 78.5997 10.1437C78.5461 10.2669 78.518 10.3996 78.5171 10.5339C78.5162 10.6683 78.5426 10.8014 78.5946 10.9252C78.6466 11.0491 78.7233 11.1611 78.8198 11.2546C78.9163 11.348 79.0308 11.4209 79.1562 11.4688C79.2694 11.5161 79.3914 11.5387 79.514 11.535C79.7133 11.5362 79.9082 11.4774 80.0736 11.3663C80.239 11.2553 80.3672 11.097 80.4416 10.9122C80.4982 10.7918 80.5297 10.6612 80.5342 10.5282C80.5387 10.3952 80.5161 10.2627 80.4678 10.1387C80.4194 10.0147 80.3464 9.90193 80.253 9.80711C80.1597 9.71229 80.048 9.63741 79.9248 9.58713V9.58713Z" fill="black"/>
<path d="M83.5026 11.1635C83.3862 11.1049 83.2594 11.07 83.1294 11.061C82.9994 11.0519 82.8689 11.0688 82.7455 11.1108C82.6222 11.1527 82.5084 11.2188 82.4109 11.3052C82.3133 11.3916 82.234 11.4967 82.1775 11.6141C82.0636 11.8513 82.0484 12.1241 82.1354 12.3725C82.2223 12.621 82.4043 12.8247 82.6413 12.9392C82.7748 13.0132 82.9259 13.0499 83.0786 13.0452C83.2634 13.0428 83.444 12.9896 83.6006 12.8915C83.7571 12.7933 83.8837 12.6539 83.9664 12.4886C84.0246 12.3714 84.0588 12.2438 84.0669 12.1133C84.0751 11.9827 84.057 11.8518 84.0138 11.7284C83.9705 11.6049 83.9031 11.4913 83.8153 11.3943C83.7275 11.2973 83.6211 11.2188 83.5026 11.1635Z" fill="black"/>
<path d="M76.2278 8.3014C76.1026 8.26072 75.9704 8.24567 75.8393 8.25716C75.7081 8.26865 75.5806 8.30645 75.4644 8.36828C75.3481 8.43011 75.2455 8.51472 75.1627 8.61706C75.0799 8.7194 75.0185 8.83737 74.9822 8.96394C74.9079 9.21521 74.9358 9.48563 75.0599 9.71642C75.184 9.94721 75.3942 10.1197 75.6448 10.1963H75.9363C76.1694 10.1898 76.3928 10.1015 76.5674 9.947C76.742 9.79246 76.8567 9.5815 76.8914 9.35093C76.9262 9.12036 76.8787 8.88493 76.7574 8.6858C76.6361 8.48668 76.4486 8.33647 76.2278 8.26161V8.3014Z" fill="black"/>
<path d="M72.4378 7.30729C72.1795 7.25106 71.9094 7.29971 71.687 7.4426C71.4646 7.58548 71.308 7.81092 71.2518 8.06923C71.1956 8.32753 71.2443 8.5976 71.3872 8.82001C71.5301 9.04242 71.7555 9.19889 72.0138 9.25512H72.2258C72.4813 9.27131 72.7332 9.18826 72.929 9.02325C73.1248 8.85824 73.2493 8.62403 73.2767 8.36944C73.304 8.11485 73.232 7.8595 73.0757 7.65668C72.9195 7.45386 72.6909 7.3192 72.4378 7.28076V7.30729Z" fill="black"/>
<path d="M64.6996 6.26118C64.436 6.24712 64.1777 6.33829 63.9813 6.51473C63.785 6.69116 63.6668 6.93836 63.6528 7.20194C63.6387 7.46551 63.7299 7.72389 63.9064 7.9202C64.0828 8.11652 64.33 8.23475 64.5936 8.24881H64.6598C64.9234 8.24881 65.1762 8.14411 65.3626 7.95773C65.5489 7.77135 65.6536 7.51857 65.6536 7.25499C65.6536 6.99142 65.5489 6.73863 65.3626 6.55226C65.1762 6.36588 64.9234 6.26118 64.6598 6.26118H64.6996Z" fill="black"/>
<path d="M103.312 30.5766C103.524 30.4378 103.675 30.2234 103.734 29.9771C103.793 29.7309 103.756 29.4713 103.63 29.2515C103.561 29.141 103.47 29.0453 103.363 28.9698C103.257 28.8944 103.136 28.8407 103.009 28.8118C102.882 28.7829 102.75 28.7793 102.621 28.8014C102.492 28.8234 102.369 28.8705 102.259 28.9401C102.148 29.0097 102.053 29.1004 101.977 29.207C101.902 29.3136 101.848 29.434 101.819 29.5614C101.79 29.6887 101.787 29.8205 101.809 29.9492C101.831 30.078 101.878 30.2011 101.947 30.3116C102.036 30.4527 102.16 30.5692 102.306 30.6503C102.451 30.7313 102.615 30.7744 102.782 30.7754C102.975 30.7643 103.16 30.6949 103.312 30.5766V30.5766Z" fill="black"/>
<path d="M88.8559 15.3774C88.7469 15.5248 88.6813 15.6997 88.6667 15.8824C88.6521 16.065 88.6889 16.2482 88.7731 16.411C88.8572 16.5738 88.9853 16.7097 89.1428 16.8034C89.3003 16.8971 89.481 16.9448 89.6642 16.941C89.8237 16.9415 89.9811 16.9046 90.1238 16.8333C90.2665 16.762 90.3904 16.6582 90.4857 16.5303C90.6165 16.3189 90.6645 16.0666 90.6204 15.8219C90.5764 15.5773 90.4435 15.3577 90.2472 15.2052C90.0397 15.0442 89.7767 14.9718 89.516 15.0041C89.2553 15.0364 89.0179 15.1707 88.8559 15.3774V15.3774Z" fill="black"/>
<path d="M99.9333 83.473C99.8557 83.5782 99.7996 83.6977 99.7683 83.8246C99.7369 83.9516 99.7309 84.0834 99.7506 84.2127C99.7703 84.3419 99.8153 84.466 99.883 84.5778C99.9508 84.6897 100.04 84.787 100.145 84.8643C100.314 84.9885 100.519 85.0537 100.728 85.0498C100.937 85.0498 101.14 84.9842 101.309 84.8623C101.479 84.7403 101.605 84.5682 101.671 84.3703C101.737 84.1724 101.739 83.9588 101.677 83.7597C101.615 83.5606 101.492 83.3862 101.325 83.261C101.22 83.1817 101.101 83.1241 100.973 83.0917C100.846 83.0594 100.714 83.053 100.584 83.0727C100.454 83.0925 100.33 83.1381 100.218 83.2068C100.106 83.2756 100.01 83.3661 99.9333 83.473V83.473Z" fill="black"/>
<path d="M86.9607 13.0188C86.7377 12.8954 86.4759 12.8624 86.2293 12.9265C85.9827 12.9906 85.7702 13.147 85.6356 13.3633C85.5154 13.587 85.4842 13.8477 85.548 14.0934C85.6119 14.3391 85.7662 14.5516 85.9801 14.6884C86.1332 14.7766 86.307 14.8223 86.4836 14.8209C86.7002 14.8206 86.9107 14.7496 87.0832 14.6187C87.2556 14.4878 87.3806 14.3041 87.4391 14.0956C87.4976 13.8871 87.4864 13.6652 87.4072 13.4636C87.328 13.2621 87.1852 13.0919 87.0004 12.979L86.9607 13.0188Z" fill="black"/>
<path d="M105.154 33.9683C105.382 33.8444 105.553 33.6375 105.632 33.3907C105.711 33.1439 105.691 32.8762 105.578 32.6432V32.6432C105.454 32.4156 105.247 32.2446 105 32.1656C104.754 32.0866 104.486 32.1058 104.253 32.2191C104.139 32.2791 104.038 32.361 103.956 32.4601C103.873 32.5592 103.811 32.6735 103.773 32.7966C103.735 32.9197 103.721 33.049 103.733 33.1773C103.745 33.3056 103.782 33.4303 103.842 33.5442C103.924 33.7055 104.049 33.8406 104.204 33.9343C104.358 34.028 104.536 34.0765 104.717 34.0743C104.869 34.0743 105.019 34.038 105.154 33.9683Z" fill="black"/>
<path d="M101.988 80.3733C101.864 80.5923 101.826 80.8498 101.883 81.095C101.939 81.3403 102.085 81.5555 102.292 81.6984C102.454 81.7895 102.636 81.8395 102.822 81.8441C102.991 81.8441 103.157 81.8017 103.306 81.7206C103.454 81.6396 103.579 81.5226 103.67 81.3804C103.809 81.1555 103.853 80.8845 103.792 80.6273C103.731 80.3701 103.571 80.1477 103.346 80.0089C103.121 79.8701 102.85 79.8263 102.593 79.8872C102.336 79.948 102.113 80.1086 101.974 80.3335L101.988 80.3733Z" fill="black"/>
<path d="M95.7062 90.8411C95.9394 90.8456 96.1669 90.7691 96.3499 90.6245C96.533 90.48 96.6602 90.2764 96.7098 90.0485C96.7594 89.8207 96.7284 89.5826 96.6221 89.375C96.5158 89.1674 96.3407 89.0032 96.1267 88.9104C95.9128 88.8175 95.6732 88.8018 95.449 88.866C95.2247 88.9301 95.0297 89.07 94.8972 89.2619C94.7646 89.4538 94.7028 89.6858 94.7223 89.9182C94.7417 90.1507 94.8413 90.3691 95.0039 90.5363C95.0945 90.6316 95.2034 90.7077 95.324 90.7601C95.4447 90.8125 95.5747 90.8399 95.7062 90.8411V90.8411Z" fill="black"/>
<path d="M110.985 51.2869C110.975 51.1562 110.939 51.0288 110.879 50.912C110.82 50.7952 110.738 50.6914 110.638 50.6064C110.539 50.5214 110.423 50.457 110.298 50.4169C110.173 50.3768 110.042 50.3617 109.911 50.3726C109.649 50.3962 109.406 50.5218 109.235 50.7225C109.064 50.9232 108.979 51.1829 108.997 51.4459V51.4459C109.017 51.6932 109.129 51.9241 109.31 52.0933C109.491 52.2625 109.73 52.3577 109.978 52.3602H110.057C110.322 52.3398 110.568 52.2156 110.742 52.0145C110.916 51.8135 111.003 51.552 110.985 51.2869V51.2869Z" fill="black"/>
<path d="M109.368 46.583C109.122 46.6236 108.9 46.7551 108.747 46.9515C108.593 47.1479 108.519 47.3948 108.539 47.6433C108.559 47.8918 108.672 48.1237 108.855 48.293C109.038 48.4623 109.277 48.5567 109.527 48.5574H109.686C109.94 48.5084 110.164 48.3625 110.312 48.1506C110.46 47.9388 110.52 47.6775 110.479 47.4224C110.437 47.1673 110.298 46.9384 110.091 46.7841C109.883 46.6299 109.624 46.5625 109.368 46.5963V46.583Z" fill="black"/>
<path d="M108.52 42.8469C108.282 42.903 108.073 43.0449 107.933 43.2456C107.793 43.4462 107.732 43.6914 107.761 43.9342C107.791 44.1771 107.909 44.4005 108.093 44.5618C108.277 44.723 108.514 44.8107 108.759 44.808H108.997C109.252 44.7423 109.471 44.5792 109.607 44.3538C109.744 44.1284 109.786 43.8586 109.726 43.6022C109.698 43.4727 109.644 43.3499 109.568 43.2414C109.492 43.1329 109.394 43.0408 109.282 42.9704C109.17 42.9 109.044 42.8529 108.914 42.8316C108.783 42.8104 108.649 42.8156 108.52 42.8469Z" fill="black"/>
<path d="M110.547 63.2001C110.567 63.0704 110.561 62.9382 110.53 62.8107C110.499 62.6833 110.443 62.5632 110.366 62.4574C110.209 62.2437 109.974 62.1009 109.712 62.0605C109.583 62.0405 109.45 62.0462 109.323 62.0773C109.196 62.1085 109.076 62.1644 108.97 62.2419C108.756 62.3985 108.613 62.6335 108.573 62.8953C108.531 63.1554 108.594 63.4214 108.748 63.6351C108.902 63.8488 109.134 63.9926 109.394 64.0349H109.54C109.78 64.0384 110.013 63.9563 110.198 63.8033C110.382 63.6502 110.506 63.4363 110.547 63.2001V63.2001Z" fill="black"/>
<path d="M108.706 70.8057C108.766 70.619 108.77 70.4186 108.717 70.2297C108.664 70.0408 108.556 69.8718 108.407 69.7441C108.258 69.6164 108.075 69.5356 107.88 69.5121C107.685 69.4885 107.487 69.5232 107.312 69.6117C107.137 69.7002 106.992 69.8386 106.895 70.0095C106.799 70.1803 106.755 70.3759 106.769 70.5716C106.784 70.7674 106.856 70.9544 106.976 71.1093C107.097 71.2642 107.261 71.3798 107.447 71.4418H107.752C107.956 71.4454 108.157 71.3864 108.328 71.2728C108.498 71.1591 108.63 70.9962 108.706 70.8057V70.8057Z" fill="black"/>
<path d="M110.15 54.2022C109.889 54.2057 109.639 54.3119 109.456 54.4979C109.272 54.6839 109.169 54.9348 109.169 55.1961V55.1961V55.3948C109.169 55.6583 109.274 55.9111 109.461 56.0975C109.647 56.2839 109.9 56.3886 110.163 56.3886C110.427 56.3886 110.68 56.2839 110.866 56.0975C111.052 55.9111 111.157 55.6583 111.157 55.3948C111.163 55.3597 111.163 55.3239 111.157 55.2888C111.164 55.2538 111.164 55.2178 111.157 55.1828C111.155 55.0523 111.128 54.9234 111.076 54.8035C111.025 54.6836 110.95 54.575 110.857 54.4839C110.763 54.3929 110.653 54.3211 110.531 54.2728C110.41 54.2244 110.28 54.2005 110.15 54.2022V54.2022Z" fill="black"/>
<path d="M107.288 74.4761C107.34 74.3543 107.368 74.2234 107.37 74.0908C107.372 73.9582 107.347 73.8266 107.298 73.7035C107.249 73.5804 107.176 73.4682 107.083 73.3734C106.99 73.2786 106.88 73.203 106.758 73.151C106.636 73.0967 106.505 73.0673 106.372 73.0647C106.239 73.062 106.107 73.0861 105.983 73.1356C105.859 73.185 105.747 73.2588 105.652 73.3525C105.558 73.4462 105.483 73.5579 105.433 73.6811C105.329 73.9236 105.326 74.1973 105.424 74.4421C105.522 74.6868 105.714 74.8826 105.956 74.9863C106.198 75.09 106.472 75.093 106.717 74.9949C106.962 74.8967 107.158 74.7053 107.261 74.4628L107.288 74.4761Z" fill="black"/>
<path d="M109.037 65.8365C108.91 65.806 108.778 65.8009 108.649 65.8214C108.52 65.8419 108.396 65.8876 108.285 65.9559C108.173 66.0242 108.077 66.1137 108 66.2195C107.923 66.3252 107.868 66.4449 107.837 66.5719C107.807 66.6989 107.802 66.8308 107.822 66.9598C107.843 67.0888 107.889 67.2125 107.957 67.3238C108.025 67.4352 108.115 67.532 108.22 67.6087C108.326 67.6855 108.446 67.7407 108.573 67.7712C108.652 67.7842 108.732 67.7842 108.811 67.7712C109.055 67.7705 109.29 67.6805 109.471 67.5182C109.653 67.3559 109.768 67.1326 109.796 66.8907C109.824 66.6488 109.762 66.4052 109.622 66.2059C109.482 66.0067 109.274 65.8659 109.037 65.8101V65.8365Z" fill="black"/>
<path d="M98.9924 86.2958C98.8932 86.2088 98.7779 86.1422 98.6529 86.0997C98.528 86.0573 98.396 86.0399 98.2643 86.0485C98.1326 86.0571 98.004 86.0916 97.8856 86.15C97.7673 86.2083 97.6616 86.2893 97.5746 86.3885C97.4876 86.4877 97.421 86.603 97.3785 86.728C97.3361 86.8529 97.3187 86.985 97.3273 87.1167C97.336 87.2483 97.3704 87.377 97.4288 87.4953C97.4871 87.6137 97.5682 87.7194 97.6673 87.8064C97.8529 87.962 98.0877 88.0465 98.3299 88.0449C98.4711 88.0443 98.6105 88.0132 98.7386 87.9537C98.8666 87.8943 98.9803 87.8078 99.0719 87.7004C99.2446 87.5022 99.333 87.2444 99.3181 86.9819C99.3033 86.7195 99.1864 86.4732 98.9924 86.2958V86.2958Z" fill="black"/>
<path d="M105.963 35.6247C105.719 35.7322 105.528 35.932 105.431 36.1804C105.334 36.4288 105.339 36.7055 105.446 36.9498C105.522 37.1301 105.649 37.284 105.811 37.3925C105.974 37.5009 106.165 37.5589 106.36 37.5594C106.493 37.5598 106.624 37.5327 106.745 37.4799C106.881 37.4397 107.007 37.3712 107.115 37.2788C107.223 37.1865 107.31 37.0724 107.37 36.9441C107.431 36.8157 107.464 36.676 107.467 36.534C107.47 36.3921 107.442 36.2511 107.387 36.1204C107.331 35.9897 107.249 35.8723 107.145 35.7757C107.041 35.6792 106.917 35.6057 106.783 35.5601C106.649 35.5146 106.506 35.4979 106.365 35.5113C106.223 35.5248 106.086 35.5679 105.963 35.638V35.6247Z" fill="black"/>
<path d="M20.3757 30.7086C20.2611 30.6326 20.132 30.5812 19.9966 30.5576C19.8612 30.5341 19.7223 30.5389 19.5889 30.5718C19.4554 30.6046 19.3302 30.6648 19.2211 30.7485C19.1121 30.8322 19.0216 30.9376 18.9554 31.0581C18.8892 31.1786 18.8487 31.3115 18.8365 31.4484C18.8242 31.5853 18.8406 31.7232 18.8844 31.8535C18.9282 31.9838 18.9985 32.1036 19.091 32.2053C19.1835 32.3071 19.2961 32.3884 19.4216 32.4444C19.5691 32.521 19.7325 32.5619 19.8986 32.5637C20.1159 32.5597 20.3259 32.4846 20.4964 32.3498C20.6669 32.215 20.7885 32.028 20.8426 31.8175C20.8968 31.6071 20.8804 31.3847 20.7961 31.1844C20.7117 30.9841 20.5641 30.8169 20.3757 30.7086V30.7086Z" fill="black"/>
<path d="M52.2171 8.31471C52.2624 8.54293 52.3843 8.74881 52.5627 8.89823C52.741 9.04766 52.9651 9.13164 53.1977 9.13625H53.3832C53.6411 9.08793 53.8693 8.93958 54.0183 8.72362C54.1672 8.50766 54.2247 8.24163 54.1783 7.98344C54.156 7.85495 54.1083 7.73215 54.038 7.62232C53.9677 7.51249 53.8762 7.41782 53.7688 7.34378C53.6615 7.26975 53.5404 7.21786 53.4128 7.19117C53.2851 7.16448 53.1534 7.16351 53.0254 7.18834C52.7705 7.23379 52.5434 7.37694 52.3925 7.5873C52.2415 7.79766 52.1786 8.05867 52.2171 8.31471V8.31471Z" fill="black"/>
<path d="M22.8138 82.1614C22.7177 82.0193 22.5865 81.9045 22.4329 81.8281C22.2793 81.7517 22.1085 81.7164 21.9372 81.7255C21.7659 81.7347 21.5999 81.7881 21.4554 81.8804C21.3108 81.9728 21.1926 82.101 21.1123 82.2526C21.032 82.4042 20.9922 82.574 20.997 82.7455C21.0017 82.917 21.0508 83.0842 21.1394 83.2311C21.228 83.378 21.3531 83.4996 21.5025 83.5838C21.652 83.668 21.8207 83.712 21.9922 83.7117C22.1647 83.7133 22.3343 83.6675 22.4825 83.5792C22.6011 83.5114 22.7045 83.4199 22.7862 83.3103C22.8679 83.2008 22.926 83.0756 22.9571 82.9425C22.9882 82.8094 22.9915 82.6714 22.9669 82.537C22.9422 82.4026 22.8901 82.2747 22.8138 82.1614Z" fill="black"/>
<path d="M14.7044 41.9853C14.6397 42.2417 14.6785 42.5134 14.8124 42.7415C14.9463 42.9696 15.1645 43.1359 15.42 43.2044H15.6717C15.8572 43.2033 16.0387 43.1503 16.1956 43.0514C16.3525 42.9525 16.4787 42.8117 16.5597 42.6449C16.6408 42.4781 16.6735 42.2919 16.6543 42.1074C16.635 41.9229 16.5645 41.7475 16.4507 41.601C16.337 41.4545 16.1845 41.3428 16.0105 41.2785C15.8366 41.2142 15.648 41.1998 15.4663 41.237C15.2846 41.2742 15.117 41.3615 14.9823 41.4891C14.8477 41.6167 14.7514 41.7794 14.7044 41.9588V41.9853Z" fill="black"/>
<path d="M49.2094 8.04932C48.9816 8.11545 48.785 8.26082 48.6551 8.4592C48.5252 8.65758 48.4705 8.89594 48.5009 9.13112C48.5313 9.36631 48.6448 9.58283 48.8209 9.74166C48.997 9.90049 49.224 9.99109 49.4611 9.99715H49.6996C49.9387 9.9183 50.139 9.7517 50.2599 9.5309C50.3809 9.3101 50.4136 9.05157 50.3513 8.80762C50.2891 8.56367 50.1366 8.35249 49.9246 8.21665C49.7126 8.08081 49.457 8.03049 49.2094 8.07584V8.04932Z" fill="black"/>
<path d="M21.0382 27.7406C20.9098 27.9573 20.8685 28.2146 20.9226 28.4606C20.9767 28.7066 21.1222 28.9228 21.3297 29.0657C21.5455 29.1973 21.8039 29.2404 22.0508 29.1861C22.2977 29.1318 22.5141 28.9842 22.6548 28.7742C22.7876 28.5599 22.8329 28.3027 22.7811 28.0559C22.7292 27.8092 22.5844 27.5918 22.3765 27.4491C22.1586 27.3168 21.8982 27.2732 21.6491 27.3275C21.4 27.3817 21.1813 27.5296 21.0382 27.7406V27.7406Z" fill="black"/>
<path d="M13.9883 58.4027C14.1189 58.3976 14.2471 58.3667 14.3657 58.312C14.4844 58.2573 14.5911 58.1797 14.6797 58.0837C14.7683 57.9877 14.8371 57.8752 14.8822 57.7526C14.9273 57.63 14.9477 57.4996 14.9424 57.3691C14.9346 57.1744 14.8698 56.9864 14.7559 56.8282C14.6421 56.6701 14.4843 56.5489 14.3022 56.4797C14.12 56.4106 13.9216 56.3965 13.7315 56.4392C13.5414 56.4819 13.3681 56.5796 13.233 56.72C13.098 56.8605 13.0072 57.0375 12.972 57.2292C12.9367 57.4208 12.9586 57.6185 13.0348 57.7978C13.1111 57.9771 13.2383 58.13 13.4008 58.2375C13.5633 58.3451 13.7537 58.4025 13.9486 58.4027H13.9883Z" fill="black"/>
<path d="M58.2596 103.456C58.2762 103.326 58.2666 103.194 58.2314 103.068C58.1961 102.942 58.136 102.824 58.0545 102.722C57.9729 102.619 57.8717 102.534 57.7568 102.471C57.6418 102.408 57.5154 102.369 57.3851 102.356C57.254 102.338 57.1207 102.347 56.993 102.381C56.8653 102.416 56.7457 102.475 56.6413 102.557C56.537 102.638 56.4498 102.739 56.385 102.854C56.3203 102.97 56.2792 103.097 56.2642 103.228C56.2492 103.36 56.2606 103.493 56.2977 103.62C56.3348 103.747 56.3969 103.865 56.4804 103.968C56.5638 104.07 56.6668 104.155 56.7835 104.218C56.9002 104.28 57.0281 104.318 57.1598 104.331H57.2791C57.521 104.329 57.754 104.239 57.9345 104.078C58.115 103.917 58.2306 103.696 58.2596 103.456Z" fill="black"/>
<path d="M14.8632 66.0358H15.0488C15.3077 65.9844 15.536 65.8334 15.6847 65.6154C15.8334 65.3973 15.8905 65.1295 15.8438 64.8698C15.7926 64.6116 15.641 64.3843 15.4224 64.2377C15.2038 64.0911 14.936 64.0373 14.6777 64.0879C14.5492 64.1102 14.4265 64.1579 14.3167 64.2282C14.2068 64.2985 14.1121 64.39 14.0381 64.4974C13.9641 64.6047 13.9122 64.7258 13.8855 64.8534C13.8588 64.9811 13.8579 65.1127 13.8827 65.2407C13.931 65.4652 14.0546 65.6664 14.2329 65.811C14.4113 65.9556 14.6337 66.0349 14.8632 66.0358V66.0358Z" fill="black"/>
<path d="M54.3906 102.913C54.4373 102.653 54.3802 102.385 54.2315 102.167C54.0828 101.949 53.8545 101.798 53.5956 101.747C53.4668 101.724 53.3347 101.727 53.207 101.755C53.0793 101.783 52.9584 101.836 52.8513 101.912C52.7442 101.987 52.653 102.082 52.5829 102.193C52.5128 102.303 52.4651 102.426 52.4427 102.555C52.4179 102.683 52.4189 102.815 52.4456 102.942C52.4722 103.07 52.5241 103.191 52.5982 103.298C52.6722 103.406 52.7669 103.497 52.8767 103.568C52.9865 103.638 53.1093 103.686 53.2378 103.708H53.4101C53.641 103.712 53.8659 103.635 54.0453 103.489C54.2247 103.344 54.347 103.14 54.3906 102.913Z" fill="black"/>
<path d="M56.0066 7.67872C56.0356 7.91885 56.1513 8.14023 56.3318 8.30123C56.5123 8.46223 56.7453 8.55184 56.9872 8.55332H57.1064C57.3683 8.52169 57.6068 8.38733 57.7696 8.17983C57.9323 7.97233 58.006 7.70867 57.9744 7.44685C57.9427 7.18503 57.8084 6.94651 57.6009 6.78374C57.3934 6.62097 57.1298 6.54733 56.8679 6.57896C56.7388 6.5937 56.6138 6.63398 56.5004 6.69744C56.387 6.76091 56.2872 6.84623 56.2071 6.94857C56.127 7.05091 56.068 7.16824 56.0335 7.29359C55.9991 7.41894 55.99 7.5498 56.0066 7.67872V7.67872Z" fill="black"/>
<path d="M13.9487 54.5871C14.2056 54.5873 14.4525 54.4881 14.6378 54.3102C14.823 54.1323 14.9323 53.8897 14.9425 53.6331C14.9497 53.3682 14.8522 53.1111 14.6711 52.9177C14.49 52.7242 14.24 52.6098 13.9752 52.5995C13.8447 52.596 13.7148 52.6182 13.5928 52.6649C13.4709 52.7116 13.3594 52.7819 13.2646 52.8717C13.1699 52.9615 13.0937 53.0692 13.0406 53.1884C12.9875 53.3077 12.9583 53.4362 12.9549 53.5668C12.9495 53.7 12.9713 53.8329 13.019 53.9574C13.0666 54.0819 13.1392 54.1954 13.2322 54.2909C13.3253 54.3864 13.4368 54.4618 13.56 54.5128C13.6831 54.5637 13.8154 54.589 13.9487 54.5871Z" fill="black"/>
<path d="M18.2024 36.009C18.4333 36.0141 18.6589 35.9386 18.8402 35.7954C19.0214 35.6523 19.1472 35.4504 19.1958 35.2246C19.2444 34.9988 19.2129 34.7631 19.1065 34.558C19.0002 34.353 18.8258 34.1913 18.6132 34.1009C18.3689 33.9941 18.0922 33.9886 17.8438 34.0855C17.5954 34.1823 17.3956 34.3737 17.2881 34.6177C17.233 34.7376 17.2023 34.8673 17.1978 34.9991C17.1934 35.131 17.2152 35.2625 17.2621 35.3858C17.309 35.5091 17.3799 35.6219 17.4708 35.7176C17.5618 35.8132 17.6708 35.8898 17.7916 35.9428C17.9228 35.9918 18.0624 36.0143 18.2024 36.009Z" fill="black"/>
<path d="M14.6379 46.9542H14.8235C15.0561 46.9496 15.2801 46.8656 15.4585 46.7162C15.6368 46.5668 15.7588 46.3609 15.804 46.1327C15.8515 45.8726 15.7937 45.6043 15.6433 45.3869C15.5689 45.2792 15.474 45.1873 15.364 45.1163C15.254 45.0453 15.1311 44.9967 15.0024 44.9732C14.7423 44.9258 14.4741 44.9836 14.2566 45.1339C14.0392 45.2843 13.8904 45.5148 13.8429 45.7749C13.816 45.9046 13.8154 46.0386 13.841 46.1686C13.8666 46.2986 13.9179 46.4222 13.992 46.532C14.0661 46.6419 14.1614 46.7359 14.2723 46.8084C14.3833 46.8809 14.5076 46.9305 14.6379 46.9542V46.9542Z" fill="black"/>
<path d="M14.2802 62.2454H14.3995C14.675 62.2299 14.9337 62.1075 15.1204 61.9043C15.3071 61.7011 15.4073 61.433 15.3995 61.1572C15.3917 60.8813 15.2767 60.6193 15.0788 60.4269C14.8809 60.2345 14.6158 60.127 14.3399 60.127C14.0639 60.127 13.7988 60.2345 13.6009 60.4269C13.403 60.6193 13.288 60.8813 13.2802 61.1572C13.2724 61.433 13.3726 61.7011 13.5593 61.9043C13.7461 62.1075 14.0047 62.2299 14.2802 62.2454Z" fill="black"/>
<path d="M15.7242 69.7721H15.9893C16.1789 69.7209 16.3492 69.6146 16.4784 69.4666C16.6077 69.3187 16.6903 69.1357 16.7157 68.9409C16.741 68.7461 16.7081 68.5481 16.621 68.372C16.5338 68.1959 16.3965 68.0496 16.2262 67.9515C16.056 67.8534 15.8605 67.808 15.6645 67.821C15.4684 67.834 15.2806 67.9048 15.1248 68.0244C14.969 68.1441 14.8521 68.3073 14.789 68.4934C14.7259 68.6794 14.7193 68.88 14.7702 69.0698C14.8363 69.2715 14.9638 69.4476 15.1348 69.5735C15.3059 69.6994 15.5119 69.7689 15.7242 69.7721Z" fill="black"/>
<path d="M94.8717 21.5527C94.961 21.6452 95.068 21.7187 95.1864 21.7688C95.3048 21.8189 95.4321 21.8446 95.5607 21.8442C95.6945 21.8449 95.827 21.8183 95.95 21.7658C96.0731 21.7134 96.1841 21.6364 96.2763 21.5395C96.3914 21.3447 96.4366 21.1165 96.4044 20.8925C96.3722 20.6686 96.2646 20.4623 96.0993 20.3078C95.934 20.1533 95.7209 20.0598 95.4953 20.0428C95.2697 20.0259 95.045 20.0864 94.8584 20.2144C94.6936 20.399 94.6036 20.6386 94.606 20.8861C94.6085 21.1337 94.7032 21.3714 94.8717 21.5527Z" fill="black"/>
<path d="M92.2347 91.6627C92.0809 91.7942 91.9709 91.9695 91.9194 92.1652C91.868 92.3609 91.8774 92.5675 91.9465 92.7577C92.0157 92.9478 92.1412 93.1124 92.3064 93.2293C92.4715 93.3462 92.6684 93.4098 92.8707 93.4118C93.102 93.41 93.3259 93.3307 93.5068 93.1866C93.6072 93.1024 93.6899 92.9992 93.7503 92.883C93.8107 92.7667 93.8474 92.6396 93.8585 92.5091C93.8696 92.3785 93.8548 92.2471 93.8149 92.1223C93.775 91.9975 93.7108 91.8819 93.626 91.782C93.543 91.682 93.441 91.5996 93.3259 91.5394C93.2107 91.4792 93.0848 91.4424 92.9553 91.4313C92.8259 91.4202 92.6955 91.435 92.5718 91.4747C92.448 91.5145 92.3335 91.5783 92.2347 91.6627V91.6627Z" fill="black"/>
<path d="M79.4607 99.3214C79.2513 99.4105 79.0788 99.5687 78.9721 99.7697C78.8653 99.9707 78.8308 100.202 78.8742 100.426C78.9177 100.649 79.0364 100.851 79.2107 100.997C79.385 101.143 79.6042 101.225 79.8317 101.23C79.9543 101.233 80.0763 101.211 80.1894 101.163C80.321 101.123 80.4429 101.057 80.5473 100.967C80.6518 100.878 80.7366 100.768 80.7964 100.644C80.8562 100.521 80.8896 100.386 80.8946 100.248C80.8997 100.111 80.8762 99.9742 80.8256 99.8464C80.7751 99.7186 80.6985 99.6027 80.6009 99.5059C80.5032 99.4092 80.3866 99.3339 80.2583 99.2845C80.13 99.2352 79.9929 99.213 79.8556 99.2193C79.7183 99.2257 79.5838 99.2604 79.4607 99.3214V99.3214Z" fill="black"/>
<path d="M82.8133 97.7978C82.6132 97.8985 82.453 98.0639 82.3586 98.267C82.2642 98.4702 82.2413 98.6993 82.2934 98.9171C82.3456 99.1349 82.4698 99.3288 82.6459 99.4671C82.8221 99.6055 83.0398 99.6804 83.2638 99.6795C83.4155 99.6759 83.5646 99.6397 83.7011 99.5735C83.8244 99.5193 83.9353 99.4406 84.0273 99.3423C84.1192 99.2439 84.1902 99.1279 84.2359 99.0012C84.2817 98.8746 84.3012 98.7399 84.2933 98.6055C84.2854 98.4711 84.2503 98.3397 84.1901 98.2193C84.1299 98.0989 84.0458 97.9919 83.943 97.9049C83.8402 97.818 83.7208 97.7528 83.592 97.7134C83.4633 97.674 83.3279 97.6612 83.194 97.6757C83.0601 97.6902 82.9306 97.7318 82.8133 97.7978V97.7978Z" fill="black"/>
<path d="M75.8564 100.567C75.7309 100.605 75.614 100.668 75.5127 100.751C75.4113 100.834 75.3274 100.936 75.2658 101.052C75.2042 101.168 75.1662 101.295 75.1538 101.425C75.1415 101.556 75.1551 101.688 75.1939 101.813C75.2583 102.016 75.3853 102.193 75.5568 102.319C75.7282 102.445 75.9351 102.514 76.148 102.515C76.2442 102.534 76.3432 102.534 76.4395 102.515C76.6737 102.424 76.8649 102.248 76.9744 102.022C77.084 101.796 77.1038 101.537 77.0299 101.296C76.956 101.056 76.7939 100.853 76.5762 100.728C76.3584 100.602 76.1013 100.564 75.8564 100.62V100.567Z" fill="black"/>
<path d="M89.2533 93.9553C89.0567 94.1079 88.9244 94.3286 88.8827 94.5739C88.841 94.8193 88.8929 95.0714 89.028 95.2804C89.1183 95.4113 89.239 95.5183 89.3799 95.5922C89.5207 95.666 89.6773 95.7046 89.8363 95.7044C89.9926 95.7037 90.1466 95.666 90.2856 95.5946C90.4247 95.5232 90.5449 95.4199 90.6366 95.2933C90.7282 95.1666 90.7887 95.0202 90.8131 94.8658C90.8375 94.7114 90.8252 94.5534 90.777 94.4047C90.7289 94.2559 90.6464 94.1207 90.5362 94.0098C90.426 93.899 90.2911 93.8157 90.1427 93.7668C89.9942 93.7178 89.8363 93.7046 89.6818 93.7281C89.5272 93.7517 89.3805 93.8113 89.2533 93.9023V93.9553Z" fill="black"/>
<path d="M72.226 101.521C71.9728 101.559 71.7443 101.694 71.588 101.897C71.4317 102.1 71.3597 102.355 71.387 102.61C71.4144 102.864 71.5389 103.098 71.7347 103.263C71.9305 103.428 72.1824 103.512 72.438 103.495H72.6632C72.7911 103.467 72.9121 103.413 73.0193 103.338C73.1265 103.262 73.2177 103.166 73.2879 103.056C73.358 102.945 73.4057 102.821 73.4281 102.692C73.4505 102.563 73.4472 102.431 73.4185 102.303C73.3898 102.175 73.3362 102.054 73.2607 101.947C73.1853 101.84 73.0894 101.748 72.9787 101.678C72.8679 101.608 72.7445 101.56 72.6153 101.538C72.4862 101.516 72.3539 101.519 72.226 101.548V101.521Z" fill="black"/>
<path d="M103.909 77.0999C103.792 77.3323 103.771 77.6013 103.85 77.849C103.929 78.0968 104.103 78.3035 104.333 78.4249C104.471 78.5013 104.625 78.5423 104.783 78.5442C104.959 78.545 105.133 78.4989 105.285 78.4106C105.438 78.3224 105.564 78.1952 105.651 78.042C105.738 77.8888 105.783 77.7152 105.781 77.539C105.779 77.3628 105.73 77.1902 105.64 77.0391C105.549 76.888 105.42 76.7637 105.265 76.679C105.111 76.5943 104.936 76.5522 104.76 76.557C104.584 76.5619 104.412 76.6134 104.263 76.7065C104.113 76.7995 103.991 76.9307 103.909 77.0866V77.0999Z" fill="black"/>
<path d="M86.0866 95.9953C85.8727 96.1321 85.7184 96.3446 85.6545 96.5903C85.5906 96.836 85.6219 97.0968 85.742 97.3204C85.8301 97.4703 85.9561 97.5945 86.1072 97.6805C86.2584 97.7666 86.4295 97.8115 86.6034 97.8107C86.7811 97.8074 86.9548 97.7571 87.1069 97.6649C87.3232 97.5303 87.4796 97.3177 87.5437 97.0711C87.6078 96.8245 87.5748 96.5628 87.4514 96.3398C87.314 96.1155 87.0942 95.9539 86.8392 95.8895C86.5841 95.8251 86.314 95.8631 86.0866 95.9953V95.9953Z" fill="black"/>
<path d="M107.685 41.1768C107.791 41.1959 107.898 41.1959 108.004 41.1768C108.133 41.1326 108.251 41.0627 108.352 40.9713C108.454 40.8799 108.535 40.7688 108.592 40.6449C108.649 40.521 108.681 40.3868 108.684 40.2504C108.688 40.1141 108.663 39.9784 108.613 39.8517C108.522 39.6114 108.341 39.416 108.108 39.3064C107.876 39.1967 107.61 39.1814 107.366 39.2637C107.122 39.3461 106.92 39.5195 106.802 39.7478C106.684 39.976 106.658 40.2412 106.731 40.4877C106.798 40.6881 106.926 40.8625 107.097 40.9862C107.269 41.1098 107.474 41.1765 107.685 41.1768Z" fill="black"/>
<path d="M68.3171 8.60626H68.4497C68.6898 8.60886 68.9228 8.52439 69.1055 8.36849C69.2882 8.21258 69.4083 7.99585 69.4435 7.75827C69.4739 7.4955 69.4011 7.23113 69.2404 7.021C69.0797 6.81087 68.8437 6.67137 68.5822 6.6319C68.3203 6.59676 68.0553 6.6671 67.8453 6.82738C67.6353 6.98766 67.4976 7.22479 67.4625 7.48661C67.4273 7.74842 67.4976 8.01349 67.6579 8.22347C67.8182 8.43346 68.0553 8.57112 68.3171 8.60626V8.60626Z" fill="black"/>
<path d="M109.023 59.1717C109.013 59.3016 109.028 59.4323 109.068 59.5563C109.108 59.6802 109.173 59.7949 109.258 59.8936C109.343 59.9923 109.447 60.0731 109.564 60.1312C109.681 60.1892 109.808 60.2234 109.938 60.2318H110.017C110.266 60.2323 110.506 60.1382 110.688 59.9684C110.87 59.7986 110.981 59.5659 110.998 59.3175C111.02 59.1813 111.014 59.042 110.979 58.9084C110.945 58.7748 110.883 58.6498 110.798 58.5414C110.712 58.4331 110.605 58.3437 110.484 58.2789C110.362 58.2142 110.228 58.1754 110.09 58.1653C109.953 58.1551 109.815 58.1738 109.684 58.22C109.554 58.2661 109.436 58.3388 109.335 58.4335C109.235 58.5281 109.155 58.6427 109.102 58.7698C109.048 58.8969 109.021 59.0338 109.023 59.1717V59.1717Z" fill="black"/>
<path d="M68.5288 102.197C68.2693 102.233 68.0345 102.371 67.8757 102.579C67.7169 102.788 67.6468 103.05 67.6807 103.31C67.7157 103.549 67.8353 103.767 68.0177 103.925C68.2001 104.084 68.4332 104.171 68.6746 104.171H68.8071C68.9443 104.164 69.0784 104.127 69.2009 104.065C69.3233 104.002 69.4316 103.915 69.5186 103.809C69.6057 103.703 69.6697 103.579 69.7067 103.447C69.7437 103.314 69.7529 103.176 69.7336 103.04C69.7142 102.904 69.6669 102.773 69.5946 102.656C69.5222 102.539 69.4264 102.439 69.3132 102.361C69.1999 102.283 69.0718 102.229 68.9368 102.203C68.8018 102.177 68.6628 102.18 68.5288 102.21V102.197Z" fill="black"/>
<path d="M64.7923 102.568C64.5287 102.577 64.2794 102.69 64.0993 102.882C63.9191 103.075 63.8228 103.331 63.8316 103.595C63.8404 103.858 63.9535 104.108 64.1461 104.288C64.3387 104.468 64.595 104.564 64.8586 104.556V104.556C65.1234 104.539 65.3709 104.418 65.547 104.219C65.7232 104.021 65.8139 103.761 65.7994 103.496C65.7824 103.241 65.6685 103.003 65.481 102.831C65.2936 102.658 65.0471 102.564 64.7923 102.568Z" fill="black"/>
<path d="M42.1997 12.3824C42.3319 12.3829 42.4628 12.3558 42.584 12.3029C42.8101 12.1904 42.9848 11.9959 43.0728 11.7591C43.1607 11.5223 43.1551 11.261 43.0573 11.0282C42.9594 10.7953 42.7766 10.6085 42.5459 10.5056C42.3152 10.4027 42.054 10.3915 41.8154 10.4743C41.6934 10.5263 41.5829 10.6018 41.4902 10.6966C41.3975 10.7914 41.3244 10.9036 41.2752 11.0267C41.2259 11.1498 41.2015 11.2815 41.2032 11.4141C41.205 11.5467 41.2329 11.6776 41.2854 11.7994C41.3649 11.9747 41.4937 12.1231 41.656 12.2266C41.8183 12.3301 42.0072 12.3842 42.1997 12.3824V12.3824Z" fill="black"/>
<path d="M26.0597 87.9917C25.8736 88.1781 25.769 88.4306 25.769 88.694C25.769 88.9573 25.8736 89.21 26.0597 89.3963C26.1492 89.4976 26.2593 89.5784 26.3828 89.6333C26.5063 89.6882 26.6401 89.7158 26.7752 89.7143C27.0295 89.7126 27.2744 89.6184 27.4643 89.4493C27.6504 89.263 27.7549 89.0104 27.7549 88.747C27.7549 88.4837 27.6504 88.231 27.4643 88.0447C27.3756 87.949 27.2688 87.8717 27.1502 87.8172C27.0316 87.7627 26.9034 87.7322 26.773 87.7273C26.6425 87.7223 26.5124 87.7432 26.39 87.7886C26.2676 87.8339 26.1554 87.903 26.0597 87.9917V87.9917Z" fill="black"/>
<path d="M45.7776 11.0313C45.8828 11.0505 45.9905 11.0505 46.0957 11.0313C46.2284 10.9982 46.3529 10.938 46.4613 10.8546C46.5697 10.7712 46.6597 10.6663 46.7257 10.5465C46.7917 10.4266 46.8322 10.2944 46.8448 10.1582C46.8573 10.022 46.8416 9.88464 46.7986 9.75477C46.7556 9.62489 46.6863 9.50527 46.595 9.40344C46.5036 9.3016 46.3922 9.21979 46.2678 9.16299C46.1433 9.10619 46.0085 9.07566 45.8717 9.07338C45.7349 9.0711 45.5992 9.09711 45.4729 9.14973C45.3403 9.18942 45.2175 9.25629 45.1123 9.34618C45.0072 9.43606 44.9219 9.54697 44.862 9.67171C44.8022 9.79644 44.769 9.9323 44.7646 10.0706C44.7603 10.2089 44.7849 10.3466 44.8368 10.4748C44.9234 10.6483 45.0583 10.7931 45.2252 10.8918C45.3921 10.9905 45.5839 11.039 45.7776 11.0313V11.0313Z" fill="black"/>
<path d="M38.7411 14.0258C38.8988 14.0239 39.0536 13.9829 39.1916 13.9065C39.3987 13.7928 39.557 13.6073 39.6367 13.385C39.7164 13.1626 39.712 12.9188 39.6243 12.6994C39.5366 12.4801 39.3716 12.3005 39.1606 12.1944C38.9495 12.0883 38.7069 12.0631 38.4786 12.1235C38.2502 12.184 38.0519 12.3259 37.921 12.5225C37.79 12.7191 37.7356 12.9568 37.7679 13.1908C37.8002 13.4248 37.917 13.6389 38.0962 13.7927C38.2755 13.9465 38.5049 14.0295 38.7411 14.0258V14.0258Z" fill="black"/>
<path d="M27.3188 22.9438C27.5025 22.7536 27.6053 22.4995 27.6053 22.2349C27.6053 21.9704 27.5025 21.7162 27.3188 21.526C27.1307 21.343 26.8788 21.2407 26.6165 21.2407C26.3541 21.2407 26.1022 21.343 25.9142 21.526C25.7281 21.7123 25.6235 21.9649 25.6235 22.2283C25.6235 22.4917 25.7281 22.7442 25.9142 22.9306C26.0944 23.1081 26.337 23.208 26.59 23.2089C26.723 23.2158 26.8561 23.1959 26.9813 23.1504C27.1065 23.1049 27.2212 23.0346 27.3188 22.9438Z" fill="black"/>
<path d="M29.9823 20.3066C30.0927 20.2238 30.1846 20.1188 30.2521 19.9985C30.3197 19.8782 30.3615 19.7452 30.3748 19.6078C30.3882 19.4705 30.3727 19.3319 30.3295 19.2009C30.2864 19.0698 30.2163 18.9491 30.124 18.8466C30.0316 18.7441 29.919 18.662 29.7931 18.6054C29.6673 18.5489 29.531 18.5191 29.393 18.5181C29.255 18.5171 29.1184 18.5448 28.9917 18.5995C28.865 18.6542 28.7511 18.7346 28.6572 18.8358V18.8358C28.5044 18.9677 28.396 19.1436 28.3468 19.3395C28.2977 19.5353 28.3103 19.7416 28.3828 19.93C28.4552 20.1185 28.5841 20.28 28.7518 20.3925C28.9195 20.5049 29.1179 20.5629 29.3198 20.5584C29.5645 20.5613 29.8013 20.4713 29.9823 20.3066V20.3066Z" fill="black"/>
<path d="M32.8712 17.9212C33.0376 17.8095 33.1664 17.6502 33.2407 17.464C33.3149 17.2778 33.3311 17.0736 33.2872 16.8781C33.2432 16.6825 33.1412 16.5048 32.9945 16.3683C32.8477 16.2318 32.6631 16.1428 32.4649 16.113C32.2667 16.0833 32.0642 16.1142 31.8839 16.2017C31.7035 16.2891 31.5538 16.4291 31.4545 16.6032C31.3551 16.7772 31.3107 16.9772 31.327 17.177C31.3434 17.3767 31.4197 17.5668 31.5461 17.7224C31.6379 17.8466 31.7579 17.9474 31.896 18.0165C32.0342 18.0856 32.1867 18.121 32.3412 18.1199C32.5329 18.1043 32.7164 18.0355 32.8712 17.9212V17.9212Z" fill="black"/>
<path d="M35.945 15.7885C36.1178 15.6896 36.2569 15.541 36.3443 15.3621C36.4317 15.1832 36.4633 14.9822 36.4351 14.7852C36.4069 14.5881 36.3201 14.404 36.1861 14.2568C36.052 14.1096 35.8768 14.006 35.6832 13.9596C35.4896 13.9131 35.2866 13.9259 35.1003 13.9962C34.914 14.0665 34.7532 14.1912 34.6386 14.354C34.524 14.5168 34.461 14.7103 34.4577 14.9094C34.4543 15.1084 34.5109 15.3039 34.6199 15.4704C34.7071 15.6133 34.8298 15.7312 34.9761 15.8125C35.1224 15.8938 35.2874 15.9358 35.4547 15.9342C35.6276 15.9264 35.7959 15.8764 35.945 15.7885V15.7885Z" fill="black"/>
<path d="M36.1304 95.1604C35.9073 95.0198 35.6374 94.9736 35.3802 95.032C35.123 95.0904 34.8996 95.2486 34.759 95.4717C34.6184 95.6949 34.5722 95.9648 34.6306 96.222C34.689 96.4792 34.8472 96.7027 35.0704 96.8432C35.2292 96.9421 35.4133 96.9927 35.6004 96.989C35.8141 96.987 36.0216 96.9162 36.1919 96.787C36.3622 96.6579 36.4863 96.4772 36.5458 96.2719C36.6053 96.0666 36.597 95.8475 36.5222 95.6473C36.4474 95.4471 36.31 95.2763 36.1304 95.1604V95.1604Z" fill="black"/>
<path d="M49.9116 100.965C49.664 100.919 49.4083 100.969 49.1964 101.105C48.9844 101.241 48.8319 101.452 48.7696 101.696C48.7074 101.94 48.74 102.199 48.861 102.42C48.982 102.64 49.1822 102.807 49.4213 102.886C49.5048 102.898 49.5896 102.898 49.6731 102.886C49.9092 102.877 50.1344 102.784 50.3083 102.625C50.4822 102.465 50.5935 102.248 50.6222 102.014C50.6509 101.779 50.5952 101.542 50.465 101.345C50.3347 101.148 50.1386 101.004 49.9116 100.938V100.965Z" fill="black"/>
<path d="M46.3338 99.9176C46.2067 99.8633 46.0695 99.8365 45.9312 99.839C45.793 99.8415 45.6568 99.8731 45.5317 99.932C45.4065 99.9908 45.2953 100.075 45.2051 100.18C45.115 100.285 45.0481 100.408 45.0087 100.54C44.9566 100.668 44.9314 100.805 44.9349 100.942C44.9384 101.08 44.9704 101.215 45.029 101.34C45.0875 101.464 45.1713 101.575 45.2751 101.666C45.3788 101.756 45.5002 101.824 45.6315 101.865C45.7321 101.885 45.8357 101.885 45.9363 101.865C46.1716 101.865 46.399 101.781 46.5781 101.629C46.7573 101.476 46.8766 101.265 46.9147 101.033C46.9529 100.801 46.9075 100.563 46.7866 100.361C46.6656 100.159 46.477 100.007 46.2543 99.9309L46.3338 99.9176Z" fill="black"/>
<path d="M39.3904 97.0154C39.1583 96.9085 38.894 96.8952 38.6524 96.9781C38.4107 97.061 38.2103 97.2337 38.0926 97.4604C37.975 97.6872 37.9492 97.9506 38.0206 98.1958C38.092 98.4411 38.2551 98.6495 38.4761 98.7777C38.6151 98.85 38.7699 98.8864 38.9266 98.8837C39.1471 98.8819 39.3607 98.8067 39.5338 98.6702C39.707 98.5336 39.8298 98.3434 39.8829 98.1294C39.936 97.9153 39.9165 97.6897 39.8273 97.488C39.7381 97.2863 39.5844 97.1201 39.3904 97.0154V97.0154Z" fill="black"/>
<path d="M41.484 99.1361C41.4297 99.2576 41.4003 99.3888 41.3977 99.5219C41.395 99.655 41.4191 99.7873 41.4685 99.9108C41.5179 100.034 41.5917 100.147 41.6854 100.241C41.7791 100.336 41.8909 100.411 42.014 100.461C42.136 100.512 42.2663 100.539 42.3983 100.541C42.5934 100.539 42.7836 100.48 42.9459 100.372C43.1082 100.263 43.2356 100.11 43.3126 99.9312C43.3709 99.8103 43.4034 99.6786 43.408 99.5444C43.4126 99.4102 43.3892 99.2766 43.3394 99.152C43.2895 99.0273 43.2142 98.9144 43.1184 98.8205C43.0225 98.7265 42.9082 98.6535 42.7826 98.6061V98.6061C42.54 98.5048 42.2672 98.5037 42.0238 98.603C41.7805 98.7023 41.5863 98.894 41.484 99.1361Z" fill="black"/>
<path d="M61.0819 102.608C60.8184 102.594 60.56 102.685 60.3637 102.861C60.1674 103.038 60.0492 103.285 60.0351 103.549C60.021 103.812 60.1123 104.071 60.2887 104.267C60.4651 104.463 60.7123 104.581 60.9759 104.595V104.595C61.2395 104.595 61.4923 104.491 61.6786 104.304C61.865 104.118 61.9697 103.865 61.9697 103.602C61.9697 103.338 61.865 103.085 61.6786 102.899C61.4923 102.713 61.2395 102.608 60.9759 102.608H61.0819Z" fill="black"/>
<path d="M31.652 93.2265C31.5716 93.3313 31.5129 93.451 31.4794 93.5788C31.4458 93.7065 31.4381 93.8397 31.4566 93.9705C31.4751 94.1012 31.5195 94.227 31.5872 94.3404C31.6548 94.4538 31.7444 94.5527 31.8507 94.6311C32.0235 94.7571 32.2332 94.8223 32.447 94.8165C32.5998 94.8161 32.7507 94.7814 32.8883 94.7148C33.0259 94.6483 33.1468 94.5518 33.2421 94.4323C33.3212 94.3279 33.3791 94.2089 33.4123 94.0821C33.4455 93.9554 33.4534 93.8233 33.4355 93.6934C33.4177 93.5636 33.3745 93.4386 33.3083 93.3255C33.2421 93.2124 33.1543 93.1135 33.0499 93.0343C32.9455 92.9551 32.8265 92.8973 32.6998 92.8641C32.573 92.8309 32.441 92.823 32.3112 92.8408C32.1814 92.8587 32.0563 92.9019 31.9432 92.9681C31.8301 93.0342 31.7312 93.1221 31.652 93.2265V93.2265Z" fill="black"/>
<path d="M28.7366 90.7351C28.5639 90.9333 28.4755 91.1911 28.4904 91.4536C28.5052 91.716 28.6221 91.9623 28.8161 92.1397C28.9985 92.3022 29.2343 92.3918 29.4786 92.3915C29.6189 92.3934 29.758 92.3647 29.8861 92.3075C30.0142 92.2503 30.1284 92.1659 30.2207 92.0602C30.3964 91.8634 30.4867 91.6048 30.4718 91.3414C30.4569 91.078 30.338 90.8313 30.1412 90.6556C29.9444 90.4799 29.6858 90.3895 29.4224 90.4044C29.159 90.4193 28.9123 90.5383 28.7366 90.7351Z" fill="black"/>
<path d="M60.8037 8.23546C60.9426 8.24223 61.0814 8.21978 61.2111 8.16954C61.3407 8.11931 61.4584 8.0424 61.5565 7.94381C61.6546 7.84523 61.731 7.72719 61.7806 7.59726C61.8302 7.46733 61.8519 7.32843 61.8445 7.18956C61.837 7.05068 61.8005 6.91487 61.7372 6.791C61.674 6.66712 61.5855 6.55791 61.4774 6.4704C61.3693 6.38289 61.2441 6.31907 61.1098 6.28301C60.9754 6.24695 60.835 6.23948 60.6977 6.26109C60.5671 6.26787 60.4391 6.3003 60.3211 6.35661C60.2031 6.41292 60.0974 6.49197 60.01 6.58921C59.9226 6.68646 59.8553 6.79999 59.8118 6.92331C59.7684 7.04663 59.7497 7.17733 59.7569 7.30788C59.7772 7.56797 59.8977 7.81002 60.093 7.98304C60.2882 8.15606 60.543 8.24655 60.8037 8.23546V8.23546Z" fill="black"/>
<path d="M25.0133 85.2091C24.9332 85.1073 24.8339 85.0223 24.721 84.9589C24.6081 84.8954 24.4838 84.8549 24.3552 84.8395C24.2266 84.8241 24.0963 84.8343 23.9716 84.8693C23.8469 84.9042 23.7303 84.9634 23.6285 85.0435C23.5267 85.1235 23.4417 85.2228 23.3783 85.3357C23.3149 85.4487 23.2743 85.573 23.2589 85.7016C23.2436 85.8301 23.2537 85.9605 23.2887 86.0852C23.3236 86.2098 23.3829 86.3264 23.4629 86.4282V86.4282C23.6269 86.633 23.8652 86.7646 24.1258 86.7944C24.3864 86.8241 24.6483 86.7497 24.8543 86.5872C25.0599 86.4209 25.1919 86.1803 25.2216 85.9175C25.2514 85.6547 25.1765 85.3907 25.0133 85.1826V85.2091Z" fill="black"/>
<path d="M19.5276 78.5578C19.3022 78.6838 19.1347 78.8925 19.0605 79.1398C18.9863 79.3872 19.0112 79.6537 19.1301 79.8829C19.217 80.0388 19.3438 80.1688 19.4975 80.2596C19.6511 80.3505 19.8262 80.3987 20.0047 80.3996C20.171 80.3994 20.3348 80.3585 20.4817 80.2804C20.5965 80.2178 20.6979 80.1332 20.7801 80.0313C20.8622 79.9295 20.9235 79.8125 20.9604 79.687C20.9973 79.5615 21.0091 79.4299 20.9952 79.2998C20.9813 79.1697 20.9419 79.0437 20.8792 78.9288C20.8166 78.814 20.7319 78.7126 20.6301 78.6305C20.5283 78.5483 20.4113 78.487 20.2858 78.4501C20.1602 78.4132 20.0287 78.4014 19.8986 78.4153C19.7686 78.4293 19.6425 78.4687 19.5276 78.5313V78.5578Z" fill="black"/>
<path d="M24.7084 24.3879C24.607 24.2967 24.4879 24.2273 24.3586 24.184C24.2292 24.1408 24.0923 24.1247 23.9564 24.1366C23.8205 24.1486 23.6885 24.1884 23.5687 24.2536C23.4488 24.3188 23.3437 24.408 23.2598 24.5156C23.176 24.6231 23.1151 24.7468 23.0811 24.8789C23.0472 25.011 23.0407 25.1488 23.0623 25.2835C23.0838 25.4182 23.1328 25.547 23.2063 25.6619C23.2798 25.7768 23.3761 25.8754 23.4894 25.9515C23.6628 26.0889 23.8776 26.1636 24.0989 26.1635C24.2498 26.163 24.3987 26.1282 24.5341 26.0616C24.6696 25.995 24.7881 25.8985 24.8807 25.7793V25.7793C25.0417 25.5717 25.114 25.3088 25.0817 25.048C25.0494 24.7873 24.9152 24.55 24.7084 24.3879Z" fill="black"/>
<path d="M16.4665 39.5204C16.5766 39.5331 16.6877 39.5331 16.7978 39.5204C16.9798 39.5197 17.1582 39.4689 17.3134 39.3738C17.4686 39.2787 17.5946 39.1427 17.6779 38.9808C17.7611 38.8189 17.7982 38.6373 17.7853 38.4557C17.7723 38.2741 17.7097 38.0996 17.6043 37.9512C17.4989 37.8028 17.3548 37.6861 17.1877 37.614C17.0205 37.5419 16.8368 37.5171 16.6565 37.5423C16.4762 37.5675 16.3063 37.6417 16.1653 37.7568C16.0243 37.872 15.9177 38.0236 15.857 38.1953C15.8066 38.322 15.7824 38.4576 15.786 38.594C15.7896 38.7303 15.8208 38.8645 15.8778 38.9884C15.9348 39.1123 16.0164 39.2234 16.1176 39.3148C16.2188 39.4063 16.3375 39.4762 16.4665 39.5204Z" fill="black"/>
<path d="M17.182 73.3765C17.3684 73.3118 17.5314 73.193 17.65 73.0354C17.7687 72.8778 17.8378 72.6884 17.8485 72.4914C17.8591 72.2943 17.8109 72.0986 17.71 71.9291C17.609 71.7596 17.4599 71.624 17.2816 71.5395C17.1032 71.4551 16.9038 71.4256 16.7087 71.4548C16.5135 71.4841 16.3316 71.5708 16.1859 71.7039C16.0402 71.8369 15.9374 72.0104 15.8906 72.2021C15.8439 72.3937 15.8552 72.595 15.9232 72.7802C15.9895 72.9735 16.1145 73.1413 16.2808 73.2601C16.4471 73.3789 16.6464 73.4427 16.8508 73.4427C16.9642 73.4402 17.0764 73.4178 17.182 73.3765V73.3765Z" fill="black"/>
<path d="M15.2472 49.8826C15.277 49.6208 15.2016 49.3579 15.0376 49.1516C14.8736 48.9454 14.6344 48.8127 14.3726 48.7827C14.1094 48.7567 13.8466 48.8352 13.6408 49.0013C13.435 49.1674 13.3028 49.4078 13.2728 49.6705C13.2581 49.8004 13.2696 49.932 13.3066 50.0574C13.3435 50.1828 13.4051 50.2996 13.4879 50.4008C13.5706 50.5021 13.6727 50.5858 13.7882 50.6469C13.9038 50.7081 14.0304 50.7456 14.1606 50.7571H14.2666C14.5085 50.7556 14.7415 50.666 14.922 50.505C15.1025 50.344 15.2181 50.1227 15.2472 49.8826V49.8826Z" fill="black"/>
<path d="M17.8977 75.0854C17.6561 75.1953 17.4676 75.3962 17.3733 75.6444C17.279 75.8925 17.2865 76.1678 17.3942 76.4105C17.4714 76.5847 17.5978 76.7327 17.7578 76.8362C17.9178 76.9398 18.1046 76.9944 18.2952 76.9935C18.4374 76.9945 18.578 76.9628 18.706 76.9008C18.8279 76.8495 18.9384 76.7744 19.031 76.6799C19.1235 76.5854 19.1963 76.4734 19.245 76.3504C19.2937 76.2274 19.3173 76.096 19.3146 75.9637C19.3118 75.8315 19.2826 75.7011 19.2288 75.5803C19.175 75.4595 19.0977 75.3506 19.0013 75.26C18.9048 75.1695 18.7913 75.0992 18.6673 75.0531C18.5433 75.007 18.4114 74.986 18.2792 74.9916C18.1471 74.9972 18.0174 75.0291 17.8977 75.0854V75.0854Z" fill="black"/>
<path d="M105.167 55.4084C105.167 46.8568 102.632 38.4973 97.8805 31.3869C93.1295 24.2766 86.3768 18.7347 78.4761 15.4622C70.5755 12.1896 61.8819 11.3334 53.4947 13.0017C45.1074 14.67 37.4033 18.788 31.3564 24.8349C25.3095 30.8817 21.1915 38.5859 19.5232 46.9732C17.8549 55.3604 18.7111 64.0541 21.9837 71.9547C25.2562 79.8553 30.7981 86.608 37.9084 91.359C45.0188 96.11 53.3783 98.6458 61.9299 98.6458C73.3939 98.6353 84.3854 94.0766 92.4918 85.9703C100.598 77.864 105.157 66.8724 105.167 55.4084V55.4084ZM61.9299 96.6582C53.7714 96.6582 45.7962 94.239 39.0127 89.7064C32.2292 85.1738 26.9421 78.7315 23.82 71.194C20.6979 63.6566 19.881 55.3626 21.4726 47.3609C23.0643 39.3592 26.9929 32.0092 32.7618 26.2403C38.5307 20.4714 45.8808 16.5427 53.8824 14.9511C61.8841 13.3595 70.1781 14.1764 77.7155 17.2985C85.2529 20.4206 91.6953 25.7076 96.2279 32.4911C100.76 39.2746 103.18 47.2499 103.18 55.4084C103.169 66.3453 98.8199 76.8312 91.0863 84.5648C83.3527 92.2984 72.8668 96.6477 61.9299 96.6582V96.6582Z" fill="black"/>
<path d="M76.4399 41.508C74.7236 39.7398 72.661 38.3447 70.381 37.4099C68.101 36.4751 65.6527 36.0208 63.1891 36.0752C60.7709 36.0212 58.3674 36.4637 56.127 37.3754C53.8866 38.287 51.857 39.6485 50.1635 41.3755C47.8164 43.6875 46.1756 46.6197 45.433 49.8296H41.2987L39.9736 52.8773H45.0089C45.0089 53.3808 44.9427 53.8843 44.9427 54.4011C44.9427 54.9178 44.9427 55.4347 45.0089 55.9249H41.3385L40.0134 58.9859H45.4859C46.2286 62.1957 47.8693 65.1279 50.2165 67.4399C51.9118 69.1644 53.9418 70.5242 56.1818 71.4356C58.4217 72.3471 60.8243 72.7911 63.2421 72.7402C67.5926 72.8894 71.8432 71.4159 75.1679 68.606V64.1139C73.7198 65.8719 71.8979 67.2849 69.8349 68.2499C67.7719 69.2149 65.5196 69.7078 63.2421 69.6926C61.2343 69.7291 59.2403 69.354 57.383 68.5905C55.5257 67.8271 53.8444 66.6914 52.4426 65.2535C50.6722 63.5321 49.3682 61.389 48.6529 59.0256H69.046L70.3711 55.9646H48.0699C48.0699 55.4744 48.0036 54.9576 48.0036 54.4408C48.0036 53.9241 48.0036 53.4205 48.0699 52.917H71.6431L72.9682 49.8693H48.6529C49.6411 46.783 51.5867 44.0917 54.2076 42.1857C56.8284 40.2796 59.9882 39.2579 63.2288 39.2686C65.4926 39.266 67.7301 39.7525 69.7885 40.6947C71.8468 41.637 73.6772 43.0127 75.1546 44.728L76.4399 41.508Z" fill="black"/>
</svg>
