<svg width="152" height="116" viewBox="0 0 152 116" fill="none" xmlns="http://www.w3.org/2000/svg">
<path d="M140.896 51.5957V69.5494" stroke="black" stroke-width="3.92336" stroke-linecap="round"/>
<path d="M149.872 60.5725L131.918 60.5725" stroke="black" stroke-width="3.92336" stroke-linecap="round"/>
<rect x="1.29191" y="10.8551" width="112.91" height="103.436" rx="7.32081" stroke="black" stroke-width="2.58381"/>
<rect x="23.7294" y="1.29215" width="9.23907" height="21.3439" rx="4.61953" fill="white" stroke="black" stroke-width="2.58381"/>
<rect x="82.5253" y="1.29191" width="9.23907" height="21.3439" rx="4.61953" fill="white" stroke="black" stroke-width="2.58381"/>
<path d="M16.0849 55.7097H17.7649V51.2997C17.7649 51.0837 17.7709 50.8577 17.7829 50.6217L16.7929 51.4437C16.7289 51.4957 16.6649 51.5337 16.6009 51.5577C16.5369 51.5777 16.4749 51.5877 16.4149 51.5877C16.3109 51.5877 16.2169 51.5657 16.1329 51.5217C16.0529 51.4737 15.9929 51.4237 15.9529 51.3717L15.3649 50.5917L18.0889 48.3057H19.6249V55.7097H21.0649V57.0537H16.0849V55.7097Z" fill="black"/>
<path d="M43.8216 48.2157C44.2536 48.2157 44.6416 48.2797 44.9856 48.4077C45.3336 48.5317 45.6296 48.7057 45.8736 48.9297C46.1176 49.1537 46.3036 49.4217 46.4316 49.7337C46.5636 50.0417 46.6296 50.3817 46.6296 50.7537C46.6296 51.0737 46.5836 51.3697 46.4916 51.6417C46.4037 51.9137 46.2817 52.1737 46.1256 52.4217C45.9696 52.6657 45.7876 52.9037 45.5796 53.1357C45.3756 53.3637 45.1576 53.5957 44.9256 53.8317L43.2156 55.5837C43.4356 55.5197 43.6516 55.4697 43.8636 55.4337C44.0796 55.3937 44.2816 55.3737 44.4696 55.3737H46.1016C46.3016 55.3737 46.4597 55.4297 46.5757 55.5417C46.6916 55.6497 46.7496 55.7937 46.7496 55.9737V57.0537H40.6056V56.4537C40.6056 56.3377 40.6296 56.2137 40.6776 56.0817C40.7256 55.9497 40.8096 55.8297 40.9296 55.7217L43.4496 53.1837C43.6656 52.9677 43.8536 52.7617 44.0136 52.5657C44.1736 52.3697 44.3056 52.1777 44.4096 51.9897C44.5136 51.7977 44.5916 51.6077 44.6436 51.4197C44.6956 51.2277 44.7216 51.0257 44.7216 50.8137C44.7216 50.4657 44.6376 50.1997 44.4696 50.0157C44.3056 49.8277 44.0536 49.7337 43.7136 49.7337C43.5736 49.7337 43.4456 49.7537 43.3296 49.7937C43.2136 49.8337 43.1096 49.8877 43.0176 49.9557C42.9256 50.0237 42.8456 50.1037 42.7776 50.1957C42.7136 50.2877 42.6616 50.3877 42.6216 50.4957C42.5576 50.6757 42.4756 50.8057 42.3756 50.8857C42.2796 50.9657 42.1476 51.0057 41.9796 51.0057C41.9396 51.0057 41.8956 51.0037 41.8476 50.9997C41.8036 50.9957 41.7576 50.9897 41.7096 50.9817L40.7256 50.8077C40.7896 50.3717 40.9116 49.9917 41.0916 49.6677C41.2756 49.3437 41.5016 49.0737 41.7696 48.8577C42.0416 48.6417 42.3516 48.4817 42.6996 48.3777C43.0476 48.2697 43.4216 48.2157 43.8216 48.2157Z" fill="black"/>
<path d="M20.5609 72.9489C20.5609 73.0769 20.5409 73.1929 20.5009 73.2969C20.4609 73.4009 20.3969 73.4929 20.3089 73.5729C20.2249 73.6489 20.1129 73.7089 19.9729 73.7529C19.8329 73.7929 19.6649 73.8129 19.4689 73.8129H17.3809L17.1349 75.2589C17.2989 75.2309 17.4569 75.2109 17.6089 75.1989C17.7609 75.1829 17.9089 75.1749 18.0529 75.1749C18.5129 75.1749 18.9189 75.2449 19.2709 75.3849C19.6229 75.5249 19.9189 75.7169 20.1589 75.9609C20.3989 76.2009 20.5789 76.4849 20.6989 76.8129C20.8229 77.1369 20.8849 77.4849 20.8849 77.8569C20.8849 78.3249 20.8009 78.7529 20.6329 79.1409C20.4689 79.5249 20.2389 79.8569 19.9429 80.1369C19.6469 80.4169 19.2929 80.6349 18.8809 80.7909C18.4729 80.9429 18.0249 81.0189 17.5369 81.0189C17.2529 81.0189 16.9809 80.9889 16.7209 80.9289C16.4649 80.8689 16.2229 80.7889 15.9949 80.6889C15.7709 80.5849 15.5629 80.4669 15.3709 80.3349C15.1789 80.1989 15.0049 80.0549 14.8489 79.9029L15.4249 79.1349C15.4849 79.0549 15.5549 78.9949 15.6349 78.9549C15.7149 78.9109 15.8009 78.8889 15.8929 78.8889C16.0129 78.8889 16.1249 78.9229 16.2289 78.9909C16.3369 79.0549 16.4529 79.1269 16.5769 79.2069C16.7049 79.2829 16.8529 79.3529 17.0209 79.4169C17.1889 79.4809 17.3969 79.5129 17.6449 79.5129C17.8929 79.5129 18.1049 79.4729 18.2809 79.3929C18.4569 79.3089 18.5989 79.1969 18.7069 79.0569C18.8189 78.9129 18.8989 78.7469 18.9469 78.5589C18.9989 78.3669 19.0249 78.1629 19.0249 77.9469C19.0249 77.5229 18.9049 77.2009 18.6649 76.9809C18.4249 76.7569 18.0849 76.6449 17.6449 76.6449C17.2529 76.6449 16.8689 76.7189 16.4929 76.8669L15.3409 76.5549L16.0849 72.1809H20.5609V72.9489Z" fill="black"/>
<path d="M17.6449 99.8601C17.3609 99.8601 17.0769 99.8101 16.7929 99.7101C16.5089 99.6061 16.2509 99.4501 16.0189 99.2421C15.7909 99.0341 15.6049 98.7721 15.4609 98.4561C15.3169 98.1401 15.2449 97.7661 15.2449 97.3341C15.2449 96.9381 15.3169 96.5641 15.4609 96.2121C15.6089 95.8601 15.8169 95.5521 16.0849 95.2881C16.3569 95.0241 16.6809 94.8161 17.0569 94.6641C17.4329 94.5081 17.8529 94.4301 18.3169 94.4301C18.7889 94.4301 19.2109 94.5021 19.5829 94.6461C19.9549 94.7901 20.2689 94.9921 20.5249 95.2521C20.7849 95.5121 20.9829 95.8221 21.1189 96.1821C21.2589 96.5381 21.3289 96.9321 21.3289 97.3641C21.3289 97.6521 21.3049 97.9221 21.2569 98.1741C21.2129 98.4261 21.1489 98.6681 21.0649 98.9001C20.9849 99.1281 20.8869 99.3481 20.7709 99.5601C20.6549 99.7681 20.5249 99.9741 20.3809 100.178L18.4969 102.854C18.4169 102.97 18.2909 103.068 18.1189 103.148C17.9469 103.228 17.7529 103.268 17.5369 103.268H15.8209L18.5929 99.9561C18.6489 99.8881 18.7009 99.8241 18.7489 99.7641C18.8009 99.7001 18.8509 99.6361 18.8989 99.5721C18.7189 99.6681 18.5229 99.7401 18.3109 99.7881C18.0989 99.8361 17.8769 99.8601 17.6449 99.8601ZM19.5529 97.1961C19.5529 96.9841 19.5209 96.7981 19.4569 96.6381C19.3969 96.4741 19.3109 96.3381 19.1989 96.2301C19.0909 96.1221 18.9589 96.0401 18.8029 95.9841C18.6469 95.9281 18.4769 95.9001 18.2929 95.9001C18.1049 95.9001 17.9369 95.9341 17.7889 96.0021C17.6449 96.0661 17.5209 96.1561 17.4169 96.2721C17.3169 96.3881 17.2389 96.5261 17.1829 96.6861C17.1309 96.8421 17.1049 97.0121 17.1049 97.1961C17.1049 98.0681 17.5089 98.5041 18.3169 98.5041C18.7129 98.5041 19.0169 98.3861 19.2289 98.1501C19.4449 97.9101 19.5529 97.5921 19.5529 97.1961Z" fill="black"/>
<path d="M71.2768 48.2157C71.7088 48.2157 72.0928 48.2777 72.4288 48.4017C72.7648 48.5217 73.0488 48.6857 73.2808 48.8937C73.5128 49.1017 73.6888 49.3437 73.8088 49.6197C73.9288 49.8917 73.9888 50.1797 73.9888 50.4837C73.9888 50.7597 73.9608 51.0037 73.9048 51.2157C73.8488 51.4237 73.7648 51.6057 73.6528 51.7617C73.5448 51.9137 73.4088 52.0437 73.2448 52.1517C73.0848 52.2597 72.9008 52.3497 72.6928 52.4217C73.6608 52.7577 74.1448 53.4157 74.1448 54.3957C74.1448 54.8597 74.0608 55.2637 73.8928 55.6077C73.7248 55.9517 73.4988 56.2377 73.2148 56.4657C72.9348 56.6937 72.6088 56.8657 72.2368 56.9817C71.8648 57.0937 71.4768 57.1497 71.0728 57.1497C70.6568 57.1497 70.2868 57.1057 69.9628 57.0177C69.6388 56.9257 69.3508 56.7857 69.0988 56.5977C68.8468 56.4057 68.6248 56.1617 68.4328 55.8657C68.2448 55.5697 68.0808 55.2177 67.9408 54.8097L68.7688 54.4737C68.8408 54.4417 68.9108 54.4197 68.9788 54.4077C69.0508 54.3957 69.1208 54.3897 69.1888 54.3897C69.3168 54.3897 69.4308 54.4157 69.5308 54.4677C69.6348 54.5157 69.7128 54.5877 69.7648 54.6837C69.9448 55.0157 70.1348 55.2577 70.3348 55.4097C70.5388 55.5577 70.7768 55.6317 71.0488 55.6317C71.2568 55.6317 71.4368 55.5977 71.5888 55.5297C71.7448 55.4577 71.8728 55.3677 71.9728 55.2597C72.0768 55.1477 72.1548 55.0217 72.2068 54.8817C72.2588 54.7417 72.2848 54.5997 72.2848 54.4557C72.2848 54.2677 72.2708 54.0997 72.2428 53.9517C72.2188 53.7997 72.1468 53.6697 72.0268 53.5617C71.9068 53.4537 71.7248 53.3717 71.4808 53.3157C71.2408 53.2557 70.9048 53.2257 70.4728 53.2257V51.9417C70.8368 51.9417 71.1308 51.9137 71.3548 51.8577C71.5788 51.8017 71.7508 51.7257 71.8708 51.6297C71.9948 51.5297 72.0768 51.4097 72.1168 51.2697C72.1568 51.1297 72.1768 50.9757 72.1768 50.8077C72.1768 50.4637 72.0928 50.1997 71.9248 50.0157C71.7608 49.8277 71.5088 49.7337 71.1688 49.7337C71.0288 49.7337 70.9008 49.7537 70.7848 49.7937C70.6688 49.8337 70.5648 49.8877 70.4728 49.9557C70.3808 50.0237 70.3008 50.1037 70.2328 50.1957C70.1688 50.2877 70.1168 50.3877 70.0768 50.4957C70.0128 50.6757 69.9308 50.8057 69.8308 50.8857C69.7348 50.9657 69.6028 51.0057 69.4348 51.0057C69.3948 51.0057 69.3508 51.0037 69.3028 50.9997C69.2588 50.9957 69.2128 50.9897 69.1648 50.9817L68.1808 50.8077C68.2448 50.3717 68.3668 49.9917 68.5468 49.6677C68.7308 49.3437 68.9568 49.0737 69.2248 48.8577C69.4968 48.6417 69.8068 48.4817 70.1548 48.3777C70.5028 48.2697 70.8768 48.2157 71.2768 48.2157Z" fill="black"/>
<path d="M44.3376 75.3849C44.6536 75.3849 44.9656 75.4369 45.2736 75.5409C45.5816 75.6449 45.8576 75.8049 46.1016 76.0209C46.3457 76.2369 46.5417 76.5109 46.6896 76.8429C46.8416 77.1709 46.9176 77.5589 46.9176 78.0069C46.9176 78.4149 46.8416 78.8029 46.6896 79.1709C46.5376 79.5349 46.3216 79.8549 46.0416 80.1309C45.7656 80.4029 45.4316 80.6189 45.0396 80.7789C44.6476 80.9389 44.2136 81.0189 43.7376 81.0189C43.2496 81.0189 42.8116 80.9429 42.4236 80.7909C42.0356 80.6349 41.7056 80.4189 41.4336 80.1429C41.1656 79.8669 40.9596 79.5369 40.8156 79.1529C40.6756 78.7689 40.6056 78.3469 40.6056 77.8869C40.6056 77.4509 40.6896 77.0169 40.8576 76.5849C41.0256 76.1529 41.2736 75.7129 41.6016 75.2649L43.5696 72.6069C43.6576 72.4869 43.7896 72.3869 43.9656 72.3069C44.1416 72.2229 44.3416 72.1809 44.5656 72.1809H46.2217L43.6296 75.2769C43.5896 75.3209 43.5496 75.3669 43.5096 75.4149C43.4736 75.4589 43.4376 75.5029 43.4016 75.5469C43.5416 75.4949 43.6876 75.4549 43.8396 75.4269C43.9956 75.3989 44.1616 75.3849 44.3376 75.3849ZM42.3936 78.1389C42.3936 78.3549 42.4196 78.5489 42.4716 78.7209C42.5236 78.8929 42.6036 79.0409 42.7116 79.1649C42.8196 79.2889 42.9556 79.3849 43.1196 79.4529C43.2836 79.5169 43.4776 79.5489 43.7016 79.5489C43.8936 79.5489 44.0716 79.5129 44.2356 79.4409C44.4036 79.3689 44.5476 79.2709 44.6676 79.1469C44.7876 79.0189 44.8816 78.8709 44.9496 78.7029C45.0216 78.5309 45.0576 78.3449 45.0576 78.1449C45.0576 77.9209 45.0236 77.7209 44.9556 77.5449C44.8916 77.3689 44.7996 77.2209 44.6796 77.1009C44.5596 76.9809 44.4136 76.8889 44.2416 76.8249C44.0736 76.7609 43.8856 76.7289 43.6776 76.7289C43.4896 76.7289 43.3176 76.7629 43.1616 76.8309C43.0056 76.8949 42.8696 76.9889 42.7536 77.1129C42.6416 77.2369 42.5536 77.3849 42.4896 77.5569C42.4256 77.7289 42.3936 77.9229 42.3936 78.1389Z" fill="black"/>
<path d="M100.169 53.6577H101.069V54.7017C101.069 54.7937 101.037 54.8737 100.973 54.9417C100.913 55.0097 100.825 55.0437 100.709 55.0437H100.169V57.0537H98.5492V55.0437H95.0332C94.9172 55.0437 94.8112 55.0077 94.7152 54.9357C94.6232 54.8637 94.5652 54.7737 94.5412 54.6657L94.3492 53.7477L98.3932 48.3117H100.169V53.6577ZM98.5492 51.3777C98.5492 51.2377 98.5532 51.0877 98.5612 50.9277C98.5732 50.7637 98.5892 50.5957 98.6092 50.4237L96.2992 53.6577H98.5492V51.3777Z" fill="black"/>
<path d="M74.1328 72.1809V72.9609C74.1328 73.1809 74.1088 73.3589 74.0608 73.4949C74.0128 73.6309 73.9668 73.7469 73.9228 73.8429L70.8688 80.3109C70.7888 80.4829 70.6708 80.6289 70.5148 80.7489C70.3588 80.8649 70.1528 80.9229 69.8968 80.9229H68.5408L71.6608 74.6649C71.7448 74.4929 71.8348 74.3389 71.9308 74.2029C72.0308 74.0669 72.1388 73.9369 72.2548 73.8129H68.4088C68.3528 73.8129 68.2988 73.8029 68.2468 73.7829C68.1988 73.7589 68.1548 73.7289 68.1148 73.6929C68.0788 73.6529 68.0488 73.6089 68.0248 73.5609C68.0008 73.5089 67.9888 73.4569 67.9888 73.4049V72.1809H74.1328Z" fill="black"/>
<path d="M97.7932 81.0189C97.3292 81.0189 96.9052 80.9569 96.5212 80.8329C96.1372 80.7089 95.8072 80.5349 95.5312 80.3109C95.2592 80.0829 95.0472 79.8089 94.8952 79.4889C94.7472 79.1689 94.6732 78.8129 94.6732 78.4209C94.6732 78.1849 94.6992 77.9629 94.7512 77.7549C94.8072 77.5429 94.8932 77.3509 95.0092 77.1789C95.1292 77.0029 95.2812 76.8469 95.4652 76.7109C95.6532 76.5749 95.8792 76.4609 96.1432 76.3689C95.7432 76.1889 95.4452 75.9389 95.2492 75.6189C95.0572 75.2989 94.9612 74.9149 94.9612 74.4669C94.9612 74.1269 95.0312 73.8129 95.1712 73.5249C95.3112 73.2329 95.5072 72.9809 95.7592 72.7689C96.0112 72.5569 96.3092 72.3909 96.6532 72.2709C97.0012 72.1469 97.3812 72.0849 97.7932 72.0849C98.2052 72.0849 98.5832 72.1469 98.9272 72.2709C99.2752 72.3909 99.5752 72.5569 99.8272 72.7689C100.079 72.9809 100.275 73.2329 100.415 73.5249C100.555 73.8129 100.625 74.1269 100.625 74.4669C100.625 74.9149 100.527 75.2989 100.331 75.6189C100.135 75.9389 99.8392 76.1889 99.4432 76.3689C99.7032 76.4609 99.9252 76.5749 100.109 76.7109C100.297 76.8469 100.449 77.0029 100.565 77.1789C100.685 77.3509 100.773 77.5429 100.829 77.7549C100.885 77.9629 100.913 78.1849 100.913 78.4209C100.913 78.8129 100.837 79.1689 100.685 79.4889C100.537 79.8089 100.325 80.0829 100.049 80.3109C99.7772 80.5349 99.4492 80.7089 99.0652 80.8329C98.6812 80.9569 98.2572 81.0189 97.7932 81.0189ZM97.7932 79.6149C98.0012 79.6149 98.1812 79.5829 98.3332 79.5189C98.4852 79.4549 98.6092 79.3689 98.7052 79.2609C98.8052 79.1489 98.8772 79.0189 98.9212 78.8709C98.9692 78.7189 98.9932 78.5569 98.9932 78.3849C98.9932 78.1969 98.9732 78.0249 98.9332 77.8689C98.8932 77.7129 98.8272 77.5809 98.7352 77.4729C98.6432 77.3609 98.5192 77.2749 98.3632 77.2149C98.2112 77.1509 98.0212 77.1189 97.7932 77.1189C97.5652 77.1189 97.3732 77.1509 97.2172 77.2149C97.0652 77.2749 96.9432 77.3609 96.8512 77.4729C96.7592 77.5809 96.6932 77.7129 96.6532 77.8689C96.6132 78.0249 96.5932 78.1969 96.5932 78.3849C96.5932 78.5569 96.6152 78.7189 96.6592 78.8709C96.7072 79.0189 96.7792 79.1489 96.8752 79.2609C96.9752 79.3689 97.0992 79.4549 97.2472 79.5189C97.3992 79.5829 97.5812 79.6149 97.7932 79.6149ZM97.7932 75.7029C98.0012 75.7029 98.1712 75.6689 98.3032 75.6009C98.4352 75.5329 98.5392 75.4429 98.6152 75.3309C98.6912 75.2189 98.7432 75.0909 98.7712 74.9469C98.7992 74.8029 98.8132 74.6549 98.8132 74.5029C98.8132 74.3669 98.7952 74.2349 98.7592 74.1069C98.7232 73.9789 98.6632 73.8669 98.5792 73.7709C98.4992 73.6709 98.3932 73.5909 98.2612 73.5309C98.1332 73.4709 97.9772 73.4409 97.7932 73.4409C97.6052 73.4409 97.4472 73.4709 97.3192 73.5309C97.1912 73.5909 97.0852 73.6709 97.0012 73.7709C96.9212 73.8669 96.8632 73.9789 96.8272 74.1069C96.7912 74.2349 96.7732 74.3669 96.7732 74.5029C96.7732 74.6549 96.7872 74.8029 96.8152 74.9469C96.8432 75.0909 96.8952 75.2189 96.9712 75.3309C97.0472 75.4429 97.1512 75.5329 97.2832 75.6009C97.4152 75.6689 97.5852 75.7029 97.7932 75.7029Z" fill="black"/>
<path d="M38.2411 101.924H39.9211V97.5141C39.9211 97.2981 39.9271 97.0721 39.9391 96.8361L38.9491 97.6581C38.8851 97.7101 38.8211 97.7481 38.7571 97.7721C38.6931 97.7921 38.6311 97.8021 38.5711 97.8021C38.4671 97.8021 38.3731 97.7801 38.2891 97.7361C38.2091 97.6881 38.1491 97.6381 38.1091 97.5861L37.5211 96.8061L40.2451 94.5201H41.7811V101.924H43.2211V103.268H38.2411V101.924ZM50.41 98.8941C50.41 99.6581 50.328 100.32 50.164 100.88C50 101.44 49.772 101.904 49.48 102.272C49.192 102.64 48.848 102.914 48.448 103.094C48.052 103.274 47.622 103.364 47.158 103.364C46.694 103.364 46.264 103.274 45.868 103.094C45.476 102.914 45.136 102.64 44.848 102.272C44.56 101.904 44.334 101.44 44.17 100.88C44.01 100.32 43.93 99.6581 43.93 98.8941C43.93 98.1301 44.01 97.4681 44.17 96.9081C44.334 96.3481 44.56 95.8841 44.848 95.5161C45.136 95.1481 45.476 94.8761 45.868 94.7001C46.264 94.5201 46.694 94.4301 47.158 94.4301C47.622 94.4301 48.052 94.5201 48.448 94.7001C48.848 94.8761 49.192 95.1481 49.48 95.5161C49.772 95.8841 50 96.3481 50.164 96.9081C50.328 97.4681 50.41 98.1301 50.41 98.8941ZM48.49 98.8941C48.49 98.2901 48.452 97.7961 48.376 97.4121C48.3 97.0241 48.198 96.7201 48.07 96.5001C47.946 96.2801 47.804 96.1301 47.644 96.0501C47.484 95.9661 47.322 95.9241 47.158 95.9241C46.994 95.9241 46.832 95.9661 46.672 96.0501C46.516 96.1301 46.376 96.2801 46.252 96.5001C46.132 96.7201 46.034 97.0241 45.958 97.4121C45.886 97.7961 45.85 98.2901 45.85 98.8941C45.85 99.5021 45.886 99.9981 45.958 100.382C46.034 100.766 46.132 101.07 46.252 101.294C46.376 101.514 46.516 101.666 46.672 101.75C46.832 101.83 46.994 101.87 47.158 101.87C47.322 101.87 47.484 101.83 47.644 101.75C47.804 101.666 47.946 101.514 48.07 101.294C48.198 101.07 48.3 100.766 48.376 100.382C48.452 99.9981 48.49 99.5021 48.49 98.8941Z" fill="black"/>
<line x1="30.9756" y1="42.9341" x2="30.9756" y2="108.998" stroke="#647179" stroke-linecap="round" stroke-dasharray="1 2"/>
<line x1="57.5298" y1="42.9341" x2="57.5298" y2="108.998" stroke="#647179" stroke-linecap="round" stroke-dasharray="1 2"/>
<line x1="84.084" y1="42.9341" x2="84.084" y2="108.998" stroke="#647179" stroke-linecap="round" stroke-dasharray="1 2"/>
<line x1="7.22461" y1="65.7983" x2="109.546" y2="65.7983" stroke="#647179" stroke-linecap="round" stroke-dasharray="1 2"/>
<line x1="7.22461" y1="88.7681" x2="109.546" y2="88.7681" stroke="#647179" stroke-linecap="round" stroke-dasharray="1 2"/>
<path d="M65.5284 101.924H67.2084V97.5141C67.2084 97.2981 67.2144 97.0721 67.2264 96.8361L66.2364 97.6581C66.1724 97.7101 66.1084 97.7481 66.0444 97.7721C65.9804 97.7921 65.9184 97.8021 65.8584 97.8021C65.7544 97.8021 65.6604 97.7801 65.5764 97.7361C65.4964 97.6881 65.4364 97.6381 65.3964 97.5861L64.8084 96.8061L67.5324 94.5201H69.0684V101.924H70.5084V103.268H65.5284V101.924ZM72.4894 101.924H74.1694V97.5141C74.1694 97.2981 74.1754 97.0721 74.1874 96.8361L73.1974 97.6581C73.1334 97.7101 73.0694 97.7481 73.0054 97.7721C72.9414 97.7921 72.8794 97.8021 72.8194 97.8021C72.7154 97.8021 72.6214 97.7801 72.5374 97.7361C72.4574 97.6881 72.3974 97.6381 72.3574 97.5861L71.7694 96.8061L74.4934 94.5201H76.0294V101.924H77.4694V103.268H72.4894V101.924Z" fill="black"/>
<path d="M92.3448 101.924H94.0248V97.5141C94.0248 97.2981 94.0308 97.0721 94.0428 96.8361L93.0528 97.6581C92.9888 97.7101 92.9248 97.7481 92.8608 97.7721C92.7968 97.7921 92.7348 97.8021 92.6748 97.8021C92.5708 97.8021 92.4768 97.7801 92.3928 97.7361C92.3128 97.6881 92.2528 97.6381 92.2128 97.5861L91.6248 96.8061L94.3488 94.5201H95.8848V101.924H97.3248V103.268H92.3448V101.924ZM101.406 94.4301C101.838 94.4301 102.226 94.4941 102.57 94.6221C102.918 94.7461 103.214 94.9201 103.458 95.1441C103.702 95.3681 103.888 95.6361 104.016 95.9481C104.148 96.2561 104.214 96.5961 104.214 96.9681C104.214 97.2881 104.168 97.5841 104.076 97.8561C103.988 98.1281 103.866 98.3881 103.71 98.6361C103.554 98.8801 103.372 99.1181 103.164 99.3501C102.96 99.5781 102.742 99.8101 102.51 100.046L100.8 101.798C101.02 101.734 101.236 101.684 101.448 101.648C101.664 101.608 101.866 101.588 102.054 101.588H103.686C103.886 101.588 104.044 101.644 104.16 101.756C104.276 101.864 104.334 102.008 104.334 102.188V103.268H98.1897V102.668C98.1897 102.552 98.2137 102.428 98.2617 102.296C98.3097 102.164 98.3937 102.044 98.5137 101.936L101.034 99.3981C101.25 99.1821 101.438 98.9761 101.598 98.7801C101.758 98.5841 101.89 98.3921 101.994 98.2041C102.098 98.0121 102.176 97.8221 102.228 97.6341C102.28 97.4421 102.306 97.2401 102.306 97.0281C102.306 96.6801 102.222 96.4141 102.054 96.2301C101.89 96.0421 101.638 95.9481 101.298 95.9481C101.158 95.9481 101.03 95.9681 100.914 96.0081C100.798 96.0481 100.694 96.1021 100.602 96.1701C100.51 96.2381 100.43 96.3181 100.362 96.4101C100.298 96.5021 100.246 96.6021 100.206 96.7101C100.142 96.8901 100.06 97.0201 99.9597 97.1001C99.8637 97.1801 99.7317 97.2201 99.5637 97.2201C99.5237 97.2201 99.4797 97.2181 99.4317 97.2141C99.3877 97.2101 99.3417 97.2041 99.2937 97.1961L98.3097 97.0221C98.3737 96.5861 98.4957 96.2061 98.6757 95.8821C98.8597 95.5581 99.0857 95.2881 99.3537 95.0721C99.6257 94.8561 99.9357 94.6961 100.284 94.5921C100.632 94.4841 101.006 94.4301 101.406 94.4301Z" fill="black"/>
<line x1="1.27637" y1="37.8265" x2="115.494" y2="37.8265" stroke="black" stroke-width="2.58381"/>
</svg>
