<?xml version="1.0" encoding="UTF-8"?>
<svg id="Layer_2" data-name="Layer 2" xmlns="http://www.w3.org/2000/svg" viewBox="0 0 150 138.75">
  <defs>
    <style>
      .cls-1, .cls-2 {
        stroke-width: 0px;
      }

      .cls-2 {
        fill: #fff;
      }
    </style>
  </defs>
  <g id="object">
    <g id="Axo_Extrusion" data-name="Axo Extrusion">
      <g id="Axo_Surface_" data-name="Axo Surface**">
        <g>
          <polygon id="Axo_panel" data-name="Axo panel" class="cls-2" points="149 47.51 107.56 37.23 44.84 1 86.28 11.28 149 47.51"/>
          <path class="cls-1" d="m149,48.51c-.08,0-.16,0-.24-.03l-41.44-10.28c-.09-.02-.18-.06-.26-.1L44.34,1.87c-.43-.25-.61-.78-.43-1.24.19-.46.68-.71,1.17-.6l41.44,10.28c.09.02.18.06.26.1l62.72,36.23c.43.25.61.78.43,1.24-.16.39-.53.63-.93.63Zm-41.07-12.22l34.43,8.54L85.9,12.22,51.47,3.68l56.47,32.61Z"/>
        </g>
        <g>
          <polygon id="Axo_panel-2" data-name="Axo panel" class="cls-2" points="73.83 83.63 73.83 137.74 11.11 101.52 11.11 47.4 73.83 83.63"/>
          <path class="cls-1" d="m73.83,138.74c-.17,0-.35-.04-.5-.13L10.61,102.38c-.31-.18-.5-.51-.5-.87v-54.12c0-.36.19-.69.5-.87.31-.18.69-.18,1,0l62.72,36.22c.31.18.5.51.5.87v54.12c0,.36-.19.69-.5.87-.15.09-.33.13-.5.13ZM12.11,100.94l60.72,35.07v-51.81L12.11,49.13v51.81Z"/>
        </g>
        <g>
          <polygon class="cls-2" points="141.27 45.02 141.27 99.13 119.18 111.78 117.55 112.72 97.55 124.16 95.91 125.09 73.83 137.74 73.83 83.63 107.56 37.23 141.27 45.02"/>
          <path class="cls-1" d="m73.83,138.75c-.17,0-.35-.05-.5-.13-.31-.18-.5-.51-.5-.87v-54.12c0-.21.07-.42.19-.59l33.73-46.4c.24-.33.64-.47,1.03-.39l33.71,7.79c.45.11.77.51.77.97v54.11c0,.36-.19.69-.5.87l-67.44,38.62c-.15.09-.33.13-.5.13Zm1-54.79v52.07l65.44-37.47v-52.73l-32.29-7.46-33.15,45.6Z"/>
        </g>
        <g>
          <polygon id="Axo_panel-3" data-name="Axo panel" class="cls-2" points="107.56 37.23 63.72 96.84 1 60.62 44.84 1 107.56 37.23"/>
          <path class="cls-1" d="m63.72,97.84c-.17,0-.34-.04-.5-.13L.5,61.49c-.25-.14-.42-.38-.48-.66-.06-.28,0-.57.17-.8L44.03.41c.3-.41.86-.53,1.31-.27l62.72,36.23c.25.14.42.38.48.66.06.28,0,.57-.17.8l-43.84,59.62c-.19.26-.5.41-.81.41ZM2.47,60.31l60.98,35.22,42.65-58L45.11,2.31,2.47,60.31Z"/>
        </g>
      </g>
      <g>
        <polygon class="cls-2" points="117.55 76.09 117.55 112.72 97.55 124.16 97.55 87.64 117.55 76.09"/>
        <path class="cls-1" d="m97.55,125.16c-.17,0-.35-.04-.5-.13-.31-.18-.5-.51-.5-.87v-36.51c0-.36.19-.69.5-.87l19.99-11.55c.31-.18.69-.18,1,0,.31.18.5.51.5.87v36.62c0,.36-.19.69-.5.87l-19.99,11.44c-.15.09-.33.13-.5.13Zm1-36.93v34.21l17.99-10.3v-34.31l-17.99,10.4Z"/>
      </g>
      <g>
        <g>
          <polygon class="cls-2" points="109.73 64.06 115.54 60.72 115.54 54.02 109.73 57.37 109.73 64.06"/>
          <path class="cls-1" d="m109.73,65.06c-.17,0-.35-.05-.5-.13-.31-.18-.5-.51-.5-.87v-6.69c0-.36.19-.69.5-.87l5.81-3.35c.31-.18.69-.18,1,0,.31.18.5.51.5.87v6.69c0,.36-.19.69-.5.87l-5.81,3.35c-.15.09-.33.13-.5.13Zm1-7.12v4.39l3.81-2.2v-4.39l-3.81,2.2Z"/>
        </g>
        <g>
          <polygon class="cls-2" points="99.56 69.92 105.37 66.57 105.37 59.88 99.56 63.23 99.56 69.92"/>
          <path class="cls-1" d="m99.56,70.92c-.17,0-.35-.04-.5-.13-.31-.18-.5-.51-.5-.87v-6.69c0-.36.19-.69.5-.87l5.81-3.35c.31-.18.69-.18,1,0,.31.18.5.51.5.87v6.69c0,.36-.19.69-.5.87l-5.81,3.35c-.15.09-.33.13-.5.13Zm1-7.11v4.38l3.81-2.19v-4.39l-3.81,2.2Z"/>
        </g>
      </g>
    </g>
  </g>
</svg>