<?xml version="1.0" encoding="UTF-8"?>
<svg id="Layer_2" data-name="Layer 2" xmlns="http://www.w3.org/2000/svg" viewBox="0 0 141.19 150">
  <defs>
    <style>
      .cls-1, .cls-2 {
        stroke-width: 0px;
      }

      .cls-2 {
        fill: #fff;
      }
    </style>
  </defs>
  <g id="object">
    <g>
      <g>
        <polygon class="cls-2" points="135.59 118.49 93.15 142.99 79.39 135.04 121.83 110.54 135.59 118.49"/>
        <path class="cls-1" d="m93.15,143.99c-.17,0-.35-.04-.5-.13l-13.76-7.94c-.31-.18-.5-.51-.5-.87s.19-.69.5-.87l42.44-24.5c.31-.18.69-.18,1,0l13.76,7.94c.31.18.5.51.5.87s-.19.69-.5.87l-42.44,24.5c-.15.09-.33.13-.5.13Zm-11.76-8.94l11.76,6.79,40.44-23.35-11.76-6.79-40.44,23.35Z"/>
      </g>
      <g id="Axo_Extrusion" data-name="Axo Extrusion">
        <g>
          <g>
            <polygon class="cls-2" points="63.73 77.32 63.73 143.86 7.68 111.49 7.68 44.96 63.73 77.32"/>
            <path class="cls-1" d="m63.73,144.86c-.17,0-.35-.04-.5-.13L7.18,112.36c-.31-.18-.5-.51-.5-.87V44.96c0-.36.19-.69.5-.87.31-.18.69-.18,1,0l56.05,32.36c.31.18.5.51.5.87v66.54c0,.36-.19.69-.5.87-.15.09-.33.13-.5.13ZM8.68,110.91l54.05,31.21v-64.23L8.68,46.69v64.22Z"/>
          </g>
          <g>
            <polygon id="Axo_panel" data-name="Axo panel" class="cls-2" points="63.73 78.02 63.73 143.85 133.66 103.48 133.66 37.65 63.73 78.02"/>
            <path class="cls-1" d="m63.73,144.85c-.17,0-.35-.05-.5-.13-.31-.18-.5-.51-.5-.87v-65.83c0-.36.19-.69.5-.87l69.92-40.37c.31-.18.69-.18,1,0,.31.18.5.51.5.87v65.83c0,.36-.19.69-.5.87l-69.92,40.37c-.15.09-.33.13-.5.13Zm1-66.25v63.52l67.92-39.22v-63.52l-67.92,39.22Z"/>
          </g>
          <g>
            <polygon class="cls-2" points="77.15 5.03 7.53 45.22 64.04 77.85 133.66 37.65 77.15 5.03"/>
            <path class="cls-1" d="m64.04,78.85c-.17,0-.35-.04-.5-.13L7.03,46.09c-.31-.18-.5-.51-.5-.87s.19-.69.5-.87L76.65,4.16c.31-.18.69-.18,1,0l56.51,32.63c.31.18.5.51.5.87s-.19.69-.5.87l-69.62,40.19c-.15.09-.33.13-.5.13ZM9.53,45.22l54.51,31.47,67.62-39.04L77.15,6.18,9.53,45.22Z"/>
          </g>
        </g>
        <g>
          <g>
            <polygon class="cls-2" points="100.6 85.16 100.6 122.59 79.5 134.77 79.5 97.35 100.6 85.16"/>
            <path class="cls-1" d="m79.5,135.77c-.17,0-.35-.04-.5-.13-.31-.18-.5-.51-.5-.87v-37.42c0-.36.19-.69.5-.87l21.1-12.18c.31-.18.69-.18,1,0,.31.18.5.51.5.87v37.42c0,.36-.19.69-.5.87l-21.1,12.18c-.15.09-.33.13-.5.13Zm1-37.85v35.11l19.1-11.03v-35.11l-19.1,11.03Z"/>
          </g>
          <g>
            <polygon class="cls-2" points="121.7 72.98 121.7 110.41 100.6 122.59 100.6 85.16 121.7 72.98"/>
            <path class="cls-1" d="m100.6,123.59c-.17,0-.35-.05-.5-.13-.31-.18-.5-.51-.5-.87v-37.42c0-.36.19-.69.5-.87l21.1-12.18c.31-.18.69-.18,1,0,.31.18.5.51.5.87v37.42c0,.36-.19.69-.5.87l-21.1,12.18c-.15.09-.33.13-.5.13Zm1-37.85v35.11l19.1-11.03v-35.11l-19.1,11.03Z"/>
          </g>
        </g>
        <g>
          <g>
            <g>
              <polygon class="cls-2" points="38.54 88.61 38.54 106.27 47.95 111.7 47.95 94.03 38.54 88.61"/>
              <path class="cls-1" d="m47.95,112.7c-.17,0-.35-.04-.5-.13l-9.42-5.44c-.31-.18-.5-.51-.5-.87v-17.66c0-.36.19-.69.5-.87.31-.18.69-.18,1,0l9.42,5.43c.31.18.5.51.5.87v17.67c0,.36-.19.69-.5.87-.15.09-.33.13-.5.13Zm-8.42-7.02l7.42,4.28v-15.36l-7.42-4.27v15.35Z"/>
            </g>
            <g>
              <polygon class="cls-2" points="47.95 94.04 47.95 111.7 57.37 117.14 57.37 99.48 47.95 94.04"/>
              <path class="cls-1" d="m57.37,118.14c-.17,0-.35-.04-.5-.13l-9.41-5.43c-.31-.18-.5-.51-.5-.87v-17.66c0-.36.19-.69.5-.87.31-.18.69-.18,1,0l9.41,5.43c.31.18.5.51.5.87v17.66c0,.36-.19.69-.5.87-.15.09-.33.13-.5.13Zm-8.41-7.01l7.41,4.28v-15.35l-7.41-4.28v15.35Z"/>
            </g>
          </g>
          <g>
            <g>
              <polygon class="cls-2" points="14.15 74.53 14.15 92.18 23.56 97.62 23.56 79.95 14.15 74.53"/>
              <path class="cls-1" d="m23.56,98.62c-.17,0-.35-.04-.5-.13l-9.42-5.44c-.31-.18-.5-.51-.5-.87v-17.66c0-.36.19-.69.5-.87.31-.18.69-.18,1,0l9.42,5.43c.31.18.5.51.5.87v17.67c0,.36-.19.69-.5.87-.15.09-.33.13-.5.13Zm-8.42-7.02l7.42,4.28v-15.36l-7.42-4.27v15.35Z"/>
            </g>
            <g>
              <polygon class="cls-2" points="23.56 79.96 23.56 97.62 32.98 103.05 32.98 85.4 23.56 79.96"/>
              <path class="cls-1" d="m32.98,104.05c-.17,0-.35-.04-.5-.13l-9.41-5.43c-.31-.18-.5-.51-.5-.87v-17.66c0-.36.19-.69.5-.87.31-.18.69-.18,1,0l9.41,5.43c.31.18.5.51.5.87v17.66c0,.36-.19.69-.5.87-.15.09-.33.13-.5.13Zm-8.41-7.01l7.41,4.28v-15.35l-7.41-4.28v15.35Z"/>
            </g>
          </g>
        </g>
        <g id="Axo_Surface_" data-name="Axo Surface**">
          <g>
            <polygon id="Axo_panel-2" data-name="Axo panel" class="cls-2" points="1 42.82 67.76 81.36 67.76 86.54 1 48 1 42.82"/>
            <path class="cls-1" d="m67.76,87.55c-.17,0-.35-.04-.5-.13L.5,48.87c-.31-.18-.5-.51-.5-.87v-5.19c0-.36.19-.69.5-.87.31-.18.69-.18,1,0l66.76,38.54c.31.18.5.51.5.87v5.19c0,.36-.19.69-.5.87-.15.09-.33.13-.5.13ZM2,47.42l64.76,37.39v-2.88L2,44.55v2.88Z"/>
          </g>
          <g>
            <polygon id="Axo_panel-3" data-name="Axo panel" class="cls-2" points="67.76 81.36 140.19 39.54 140.19 44.73 67.76 86.54 67.76 81.36"/>
            <path class="cls-1" d="m67.76,87.55c-.17,0-.35-.04-.5-.13-.31-.18-.5-.51-.5-.87v-5.19c0-.36.19-.69.5-.87l72.43-41.82c.31-.18.69-.18,1,0,.31.18.5.51.5.87v5.19c0,.36-.19.69-.5.87l-72.43,41.82c-.15.09-.33.13-.5.13Zm1-5.61v2.88l70.43-40.66v-2.88l-70.43,40.66Z"/>
          </g>
          <g>
            <polygon id="Axo_base" data-name="Axo base" class="cls-2" points="1 42.82 73.43 1 140.19 39.54 67.76 81.36 1 42.82"/>
            <path class="cls-1" d="m67.76,82.36c-.17,0-.35-.04-.5-.13L.5,43.68c-.31-.18-.5-.51-.5-.87s.19-.69.5-.87L72.93.13c.31-.18.69-.18,1,0l66.76,38.54c.31.18.5.51.5.87s-.19.69-.5.87l-72.43,41.82c-.15.09-.33.13-.5.13ZM3,42.82l64.76,37.39,70.43-40.66L73.43,2.15,3,42.82Z"/>
          </g>
        </g>
      </g>
      <g>
        <g>
          <g>
            <path class="cls-2" d="m115.59,84.94l.29,3.18c1.03,1.65,3.07,1.99,5.43.63,2.35-1.36,4.39-4.06,5.43-6.9l-.15-3.27-11.01,6.35Z"/>
            <path class="cls-1" d="m118.54,90.59c-1.46,0-2.71-.66-3.51-1.94-.08-.13-.13-.28-.15-.44l-.29-3.18c-.04-.39.16-.76.5-.96l11.01-6.35c.3-.17.67-.18.98-.01.31.17.5.48.52.83l.15,3.27c0,.13-.01.26-.06.39-1.15,3.15-3.4,6-5.87,7.42-1.13.65-2.25.98-3.27.98Zm-1.69-2.82c.79,1.05,2.26,1.1,3.96.11,2.03-1.17,3.9-3.54,4.92-6.19l-.06-1.42-9.03,5.21.21,2.29Z"/>
          </g>
          <g>
            <polygon class="cls-2" points="114.11 68.8 103.1 75.15 115.59 84.94 115.59 84.94 126.6 78.58 126.6 78.58 114.11 68.8"/>
            <path class="cls-1" d="m115.59,85.94c-.22,0-.44-.07-.62-.21l-12.49-9.78c-.26-.2-.4-.53-.38-.86.02-.33.21-.63.5-.8l11.01-6.35c.35-.2.8-.17,1.12.08l12.49,9.78c.26.21.4.53.38.86-.02.33-.21.63-.5.8l-11.01,6.35c-.16.09-.33.13-.5.13Zm-10.71-10.66l10.79,8.45,9.14-5.28-10.79-8.45-9.14,5.28Z"/>
          </g>
        </g>
        <g>
          <g>
            <path class="cls-2" d="m126.6,78.58l.15,3.27c1.03,1.64,3.08,1.99,5.43.63s4.39-4.07,5.43-6.91v-3.34l-11.01,6.35Z"/>
            <path class="cls-1" d="m129.41,84.32c-1.46,0-2.71-.66-3.51-1.94-.09-.15-.14-.31-.15-.49l-.15-3.27c-.02-.37.18-.72.5-.91l11.01-6.35c.31-.18.69-.18,1,0,.31.18.5.51.5.87v3.34c0,.12-.02.23-.06.34-1.16,3.16-3.41,6.01-5.87,7.43-1.13.65-2.25.98-3.26.98Zm-1.68-2.8c.8,1.03,2.26,1.07,3.94.1,2.04-1.18,3.91-3.55,4.93-6.23v-1.43l-8.98,5.19.11,2.37Z"/>
          </g>
          <g>
            <polygon class="cls-2" points="126.6 78.58 126.6 78.58 137.6 72.23 137.6 72.23 125.12 62.44 114.11 68.8 126.6 78.58"/>
            <path class="cls-1" d="m126.6,79.58c-.22,0-.44-.07-.62-.21l-12.49-9.78c-.26-.2-.4-.53-.38-.86.02-.33.21-.63.5-.8l11.01-6.35c.35-.2.8-.17,1.12.08l12.49,9.78c.26.21.4.53.38.86-.02.33-.21.63-.5.8l-11.01,6.35c-.16.09-.33.13-.5.13Zm-10.71-10.66l10.79,8.45,9.14-5.28-10.79-8.45-9.14,5.28Z"/>
          </g>
        </g>
        <g>
          <g>
            <path class="cls-2" d="m104.58,91.29l.43,3.11c1.04,1.64,3.08,1.99,5.44.63,2.35-1.36,4.39-4.07,5.43-6.91l-.29-3.18-11.01,6.35Z"/>
            <path class="cls-1" d="m107.69,96.87c-1.46,0-2.71-.66-3.52-1.93-.08-.12-.13-.26-.15-.4l-.43-3.11c-.06-.4.14-.8.49-1l11.01-6.35c.29-.17.66-.18.96-.02.3.16.5.46.54.8l.29,3.18c.01.15,0,.3-.06.44-1.16,3.16-3.41,6.01-5.87,7.43-1.13.65-2.25.97-3.26.97Zm-1.72-2.84c.8,1.06,2.28,1.12,3.98.13,2.02-1.17,3.89-3.53,4.91-6.18l-.13-1.4-9.07,5.24.3,2.21Z"/>
          </g>
          <g>
            <polygon class="cls-2" points="103.1 75.15 92.1 81.51 104.58 91.29 104.58 91.29 115.59 84.94 115.59 84.94 103.1 75.15"/>
            <path class="cls-1" d="m104.58,92.29c-.22,0-.44-.07-.62-.21l-12.49-9.78c-.26-.21-.4-.53-.38-.86.02-.33.21-.63.5-.8l11.01-6.35c.35-.21.8-.17,1.12.08l12.49,9.78c.26.21.4.53.38.86-.02.33-.21.63-.5.8l-11.01,6.35c-.16.09-.33.13-.5.13Zm-10.71-10.66l10.79,8.45,9.14-5.28-10.79-8.45-9.14,5.28Z"/>
          </g>
        </g>
        <g>
          <g>
            <path class="cls-2" d="m93.58,97.65l.57,3.02c1.04,1.65,3.08,1.99,5.43.63,2.36-1.36,4.4-4.06,5.43-6.9l-.43-3.11-11.01,6.35Z"/>
            <path class="cls-1" d="m96.82,103.14c-1.46,0-2.71-.66-3.52-1.94-.07-.11-.11-.22-.14-.35l-.57-3.02c-.08-.42.11-.84.48-1.05l11.01-6.35c.29-.17.64-.18.94-.03.3.15.51.43.55.76l.43,3.11c.02.16,0,.33-.05.48-1.14,3.15-3.39,6-5.87,7.43-1.13.65-2.24.97-3.26.97Zm-1.73-2.86c.8,1.08,2.27,1.15,3.99.15,2.03-1.17,3.89-3.51,4.91-6.15l-.19-1.38-9.1,5.25.4,2.12Z"/>
          </g>
          <g>
            <polygon class="cls-2" points="92.1 81.51 81.09 87.86 93.58 97.65 104.58 91.29 104.58 91.29 92.1 81.51"/>
            <path class="cls-1" d="m93.58,98.64c-.22,0-.44-.07-.62-.21l-12.49-9.78c-.26-.21-.4-.53-.38-.86.02-.33.21-.63.5-.8l11.01-6.35c.35-.2.79-.17,1.12.08l12.49,9.78c.26.21.4.53.38.86-.02.33-.21.63-.5.8l-11.01,6.35c-.16.09-.33.13-.5.13Zm-10.71-10.66l10.79,8.45,9.14-5.28-10.79-8.45-9.14,5.28Z"/>
          </g>
        </g>
        <g>
          <g>
            <path class="cls-2" d="m82.57,104v.02c0,3.93,2.75,5.52,6.15,3.56,2.36-1.36,4.4-4.07,5.43-6.91l-.57-3.02-11.01,6.35Z"/>
            <path class="cls-1" d="m85.97,109.42c-.76,0-1.47-.18-2.1-.55-1.48-.86-2.3-2.58-2.3-4.86,0-.36.19-.71.5-.89l11.01-6.35c.28-.16.62-.18.92-.04.29.13.5.4.57.72l.57,3.02c.03.18.02.36-.04.53-1.15,3.16-3.4,6.01-5.87,7.44-1.13.65-2.23.98-3.25.98Zm-2.38-4.86c.1,1.25.54,2.15,1.28,2.58.84.48,2.03.33,3.35-.43,2.02-1.16,3.88-3.5,4.89-6.13l-.26-1.37-9.27,5.35Z"/>
          </g>
          <g>
            <polygon class="cls-2" points="81.09 87.86 70.08 94.22 82.57 104 93.58 97.65 81.09 87.86"/>
            <path class="cls-1" d="m82.57,105c-.22,0-.44-.07-.62-.21l-12.49-9.78c-.26-.21-.4-.53-.38-.86.02-.33.21-.63.5-.8l11.01-6.35c.35-.2.8-.17,1.12.08l12.49,9.78c.26.21.4.53.38.86-.02.33-.21.63-.5.8l-11.01,6.35c-.16.09-.33.13-.5.13Zm-10.71-10.66l10.79,8.45,9.14-5.28-10.79-8.45-9.14,5.28Z"/>
          </g>
        </g>
      </g>
      <g>
        <g>
          <polygon class="cls-2" points="80.64 139 70.9 144.62 74.69 132.47 84.43 126.85 80.64 139"/>
          <path class="cls-1" d="m70.9,145.62c-.22,0-.44-.07-.62-.22-.32-.26-.45-.69-.33-1.08l3.79-12.15c.07-.24.24-.44.45-.57l9.74-5.62c.36-.21.8-.17,1.12.09.32.26.45.69.33,1.08l-3.79,12.15c-.07.24-.24.44-.45.57l-9.74,5.62c-.16.09-.33.13-.5.13Zm4.63-12.47l-2.91,9.33,7.19-4.15,2.91-9.33-7.19,4.15Zm5.11,5.85h0,0Z"/>
        </g>
        <g>
          <polygon class="cls-2" points="88.22 143.37 78.48 149 74.69 132.47 84.43 126.85 88.22 143.37"/>
          <path class="cls-1" d="m78.48,150c-.14,0-.27-.03-.4-.08-.29-.13-.5-.38-.58-.69l-3.79-16.53c-.1-.43.09-.87.47-1.09l9.74-5.62c.28-.16.61-.18.9-.05.29.13.5.38.58.69l3.79,16.53c.1.43-.09.87-.47,1.09l-9.74,5.62c-.15.09-.33.13-.5.13Zm-2.65-17.03l3.32,14.49,7.93-4.58-3.32-14.49-7.93,4.58Z"/>
        </g>
      </g>
    </g>
  </g>
</svg>