<svg width="116" height="116" viewBox="0 0 116 116" fill="none" xmlns="http://www.w3.org/2000/svg">
<rect x="1.29191" y="10.8551" width="112.91" height="103.436" rx="7.32081" stroke="black" stroke-width="2.58381"/>
<rect x="23.7294" y="1.29215" width="9.23907" height="21.3439" rx="4.61953" fill="white" stroke="black" stroke-width="2.58381"/>
<rect x="82.5253" y="1.29191" width="9.23907" height="21.3439" rx="4.61953" fill="white" stroke="black" stroke-width="2.58381"/>
<path d="M16.0849 55.7097H17.7649V51.2997C17.7649 51.0837 17.7709 50.8577 17.7829 50.6217L16.7929 51.4437C16.7289 51.4957 16.6649 51.5337 16.6009 51.5577C16.5369 51.5777 16.4749 51.5877 16.4149 51.5877C16.3109 51.5877 16.2169 51.5657 16.1329 51.5217C16.0529 51.4737 15.9929 51.4237 15.9529 51.3717L15.3649 50.5917L18.0889 48.3057H19.6249V55.7097H21.0649V57.0537H16.0849V55.7097Z" fill="black"/>
<path d="M43.8216 48.2157C44.2536 48.2157 44.6416 48.2797 44.9856 48.4077C45.3336 48.5317 45.6296 48.7057 45.8736 48.9297C46.1176 49.1537 46.3036 49.4217 46.4316 49.7337C46.5636 50.0417 46.6296 50.3817 46.6296 50.7537C46.6296 51.0737 46.5836 51.3697 46.4916 51.6417C46.4037 51.9137 46.2817 52.1737 46.1256 52.4217C45.9696 52.6657 45.7876 52.9037 45.5796 53.1357C45.3756 53.3637 45.1576 53.5957 44.9256 53.8317L43.2156 55.5837C43.4356 55.5197 43.6516 55.4697 43.8636 55.4337C44.0796 55.3937 44.2816 55.3737 44.4696 55.3737H46.1016C46.3016 55.3737 46.4597 55.4297 46.5757 55.5417C46.6916 55.6497 46.7496 55.7937 46.7496 55.9737V57.0537H40.6056V56.4537C40.6056 56.3377 40.6296 56.2137 40.6776 56.0817C40.7256 55.9497 40.8096 55.8297 40.9296 55.7217L43.4496 53.1837C43.6656 52.9677 43.8536 52.7617 44.0136 52.5657C44.1736 52.3697 44.3056 52.1777 44.4096 51.9897C44.5136 51.7977 44.5916 51.6077 44.6436 51.4197C44.6956 51.2277 44.7216 51.0257 44.7216 50.8137C44.7216 50.4657 44.6376 50.1997 44.4696 50.0157C44.3056 49.8277 44.0536 49.7337 43.7136 49.7337C43.5736 49.7337 43.4456 49.7537 43.3296 49.7937C43.2136 49.8337 43.1096 49.8877 43.0176 49.9557C42.9256 50.0237 42.8456 50.1037 42.7776 50.1957C42.7136 50.2877 42.6616 50.3877 42.6216 50.4957C42.5576 50.6757 42.4756 50.8057 42.3756 50.8857C42.2796 50.9657 42.1476 51.0057 41.9796 51.0057C41.9396 51.0057 41.8956 51.0037 41.8476 50.9997C41.8036 50.9957 41.7576 50.9897 41.7096 50.9817L40.7256 50.8077C40.7896 50.3717 40.9116 49.9917 41.0916 49.6677C41.2756 49.3437 41.5016 49.0737 41.7696 48.8577C42.0416 48.6417 42.3516 48.4817 42.6996 48.3777C43.0476 48.2697 43.4216 48.2157 43.8216 48.2157Z" fill="black"/>
<path d="M20.5609 72.9489C20.5609 73.0769 20.5409 73.1929 20.5009 73.2969C20.4609 73.4009 20.3969 73.4929 20.3089 73.5729C20.2249 73.6489 20.1129 73.7089 19.9729 73.7529C19.8329 73.7929 19.6649 73.8129 19.4689 73.8129H17.3809L17.1349 75.2589C17.2989 75.2309 17.4569 75.2109 17.6089 75.1989C17.7609 75.1829 17.9089 75.1749 18.0529 75.1749C18.5129 75.1749 18.9189 75.2449 19.2709 75.3849C19.6229 75.5249 19.9189 75.7169 20.1589 75.9609C20.3989 76.2009 20.5789 76.4849 20.6989 76.8129C20.8229 77.1369 20.8849 77.4849 20.8849 77.8569C20.8849 78.3249 20.8009 78.7529 20.6329 79.1409C20.4689 79.5249 20.2389 79.8569 19.9429 80.1369C19.6469 80.4169 19.2929 80.6349 18.8809 80.7909C18.4729 80.9429 18.0249 81.0189 17.5369 81.0189C17.2529 81.0189 16.9809 80.9889 16.7209 80.9289C16.4649 80.8689 16.2229 80.7889 15.9949 80.6889C15.7709 80.5849 15.5629 80.4669 15.3709 80.3349C15.1789 80.1989 15.0049 80.0549 14.8489 79.9029L15.4249 79.1349C15.4849 79.0549 15.5549 78.9949 15.6349 78.9549C15.7149 78.9109 15.8009 78.8889 15.8929 78.8889C16.0129 78.8889 16.1249 78.9229 16.2289 78.9909C16.3369 79.0549 16.4529 79.1269 16.5769 79.2069C16.7049 79.2829 16.8529 79.3529 17.0209 79.4169C17.1889 79.4809 17.3969 79.5129 17.6449 79.5129C17.8929 79.5129 18.1049 79.4729 18.2809 79.3929C18.4569 79.3089 18.5989 79.1969 18.7069 79.0569C18.8189 78.9129 18.8989 78.7469 18.9469 78.5589C18.9989 78.3669 19.0249 78.1629 19.0249 77.9469C19.0249 77.5229 18.9049 77.2009 18.6649 76.9809C18.4249 76.7569 18.0849 76.6449 17.6449 76.6449C17.2529 76.6449 16.8689 76.7189 16.4929 76.8669L15.3409 76.5549L16.0849 72.1809H20.5609V72.9489Z" fill="black"/>
<path d="M17.8669 99.7401C17.5429 99.7401 17.2349 99.6861 16.9429 99.5781C16.6549 99.4701 16.4009 99.3121 16.1809 99.1041C15.9609 98.8921 15.7849 98.6341 15.6529 98.3301C15.5249 98.0221 15.4609 97.6701 15.4609 97.2741C15.4609 96.8981 15.5309 96.5461 15.6709 96.2181C15.8109 95.8901 16.0069 95.6041 16.2589 95.3601C16.5109 95.1161 16.8109 94.9241 17.1589 94.7841C17.5069 94.6441 17.8889 94.5741 18.3049 94.5741C18.7169 94.5741 19.0909 94.6421 19.4269 94.7781C19.7629 94.9141 20.0509 95.1041 20.2909 95.3481C20.5309 95.5921 20.7149 95.8841 20.8429 96.2241C20.9749 96.5641 21.0409 96.9401 21.0409 97.3521C21.0409 97.6001 21.0169 97.8361 20.9689 98.0601C20.9249 98.2801 20.8589 98.4961 20.7709 98.7081C20.6829 98.9201 20.5769 99.1321 20.4529 99.3441C20.3329 99.5521 20.1949 99.7681 20.0389 99.9921L17.9449 103.016C17.8929 103.092 17.8189 103.154 17.7229 103.202C17.6269 103.246 17.5169 103.268 17.3929 103.268H16.4089L19.0249 99.8421C19.1129 99.7261 19.1949 99.6161 19.2709 99.5121C19.3469 99.4081 19.4189 99.3041 19.4869 99.2001C19.2669 99.3761 19.0189 99.5101 18.7429 99.6021C18.4669 99.6941 18.1749 99.7401 17.8669 99.7401ZM20.0149 97.2261C20.0149 96.9581 19.9709 96.7161 19.8829 96.5001C19.7989 96.2801 19.6809 96.0941 19.5289 95.9421C19.3769 95.7901 19.1949 95.6741 18.9829 95.5941C18.7749 95.5101 18.5449 95.4681 18.2929 95.4681C18.0289 95.4681 17.7869 95.5121 17.5669 95.6001C17.3509 95.6841 17.1649 95.8021 17.0089 95.9541C16.8569 96.1061 16.7389 96.2881 16.6549 96.5001C16.5709 96.7121 16.5289 96.9441 16.5289 97.1961C16.5289 97.4681 16.5669 97.7121 16.6429 97.9281C16.7229 98.1401 16.8349 98.3201 16.9789 98.4681C17.1269 98.6161 17.3049 98.7281 17.5129 98.8041C17.7249 98.8801 17.9609 98.9181 18.2209 98.9181C18.5089 98.9181 18.7629 98.8721 18.9829 98.7801C19.2069 98.6841 19.3949 98.5581 19.5469 98.4021C19.6989 98.2461 19.8149 98.0661 19.8949 97.8621C19.9749 97.6581 20.0149 97.4461 20.0149 97.2261Z" fill="#B6B6B6"/>
<path d="M71.2768 48.2157C71.7088 48.2157 72.0928 48.2777 72.4288 48.4017C72.7648 48.5217 73.0488 48.6857 73.2808 48.8937C73.5128 49.1017 73.6888 49.3437 73.8088 49.6197C73.9288 49.8917 73.9888 50.1797 73.9888 50.4837C73.9888 50.7597 73.9608 51.0037 73.9048 51.2157C73.8488 51.4237 73.7648 51.6057 73.6528 51.7617C73.5448 51.9137 73.4088 52.0437 73.2448 52.1517C73.0848 52.2597 72.9008 52.3497 72.6928 52.4217C73.6608 52.7577 74.1448 53.4157 74.1448 54.3957C74.1448 54.8597 74.0608 55.2637 73.8928 55.6077C73.7248 55.9517 73.4988 56.2377 73.2148 56.4657C72.9348 56.6937 72.6088 56.8657 72.2368 56.9817C71.8648 57.0937 71.4768 57.1497 71.0728 57.1497C70.6568 57.1497 70.2868 57.1057 69.9628 57.0177C69.6388 56.9257 69.3508 56.7857 69.0988 56.5977C68.8468 56.4057 68.6248 56.1617 68.4328 55.8657C68.2448 55.5697 68.0808 55.2177 67.9408 54.8097L68.7688 54.4737C68.8408 54.4417 68.9108 54.4197 68.9788 54.4077C69.0508 54.3957 69.1208 54.3897 69.1888 54.3897C69.3168 54.3897 69.4308 54.4157 69.5308 54.4677C69.6348 54.5157 69.7128 54.5877 69.7648 54.6837C69.9448 55.0157 70.1348 55.2577 70.3348 55.4097C70.5388 55.5577 70.7768 55.6317 71.0488 55.6317C71.2568 55.6317 71.4368 55.5977 71.5888 55.5297C71.7448 55.4577 71.8728 55.3677 71.9728 55.2597C72.0768 55.1477 72.1548 55.0217 72.2068 54.8817C72.2588 54.7417 72.2848 54.5997 72.2848 54.4557C72.2848 54.2677 72.2708 54.0997 72.2428 53.9517C72.2188 53.7997 72.1468 53.6697 72.0268 53.5617C71.9068 53.4537 71.7248 53.3717 71.4808 53.3157C71.2408 53.2557 70.9048 53.2257 70.4728 53.2257V51.9417C70.8368 51.9417 71.1308 51.9137 71.3548 51.8577C71.5788 51.8017 71.7508 51.7257 71.8708 51.6297C71.9948 51.5297 72.0768 51.4097 72.1168 51.2697C72.1568 51.1297 72.1768 50.9757 72.1768 50.8077C72.1768 50.4637 72.0928 50.1997 71.9248 50.0157C71.7608 49.8277 71.5088 49.7337 71.1688 49.7337C71.0288 49.7337 70.9008 49.7537 70.7848 49.7937C70.6688 49.8337 70.5648 49.8877 70.4728 49.9557C70.3808 50.0237 70.3008 50.1037 70.2328 50.1957C70.1688 50.2877 70.1168 50.3877 70.0768 50.4957C70.0128 50.6757 69.9308 50.8057 69.8308 50.8857C69.7348 50.9657 69.6028 51.0057 69.4348 51.0057C69.3948 51.0057 69.3508 51.0037 69.3028 50.9997C69.2588 50.9957 69.2128 50.9897 69.1648 50.9817L68.1808 50.8077C68.2448 50.3717 68.3668 49.9917 68.5468 49.6677C68.7308 49.3437 68.9568 49.0737 69.2248 48.8577C69.4968 48.6417 69.8068 48.4817 70.1548 48.3777C70.5028 48.2697 70.8768 48.2157 71.2768 48.2157Z" fill="black"/>
<path d="M44.3376 75.3849C44.6536 75.3849 44.9656 75.4369 45.2736 75.5409C45.5816 75.6449 45.8576 75.8049 46.1016 76.0209C46.3457 76.2369 46.5417 76.5109 46.6896 76.8429C46.8416 77.1709 46.9176 77.5589 46.9176 78.0069C46.9176 78.4149 46.8416 78.8029 46.6896 79.1709C46.5376 79.5349 46.3216 79.8549 46.0416 80.1309C45.7656 80.4029 45.4316 80.6189 45.0396 80.7789C44.6476 80.9389 44.2136 81.0189 43.7376 81.0189C43.2496 81.0189 42.8116 80.9429 42.4236 80.7909C42.0356 80.6349 41.7056 80.4189 41.4336 80.1429C41.1656 79.8669 40.9596 79.5369 40.8156 79.1529C40.6756 78.7689 40.6056 78.3469 40.6056 77.8869C40.6056 77.4509 40.6896 77.0169 40.8576 76.5849C41.0256 76.1529 41.2736 75.7129 41.6016 75.2649L43.5696 72.6069C43.6576 72.4869 43.7896 72.3869 43.9656 72.3069C44.1416 72.2229 44.3416 72.1809 44.5656 72.1809H46.2217L43.6296 75.2769C43.5896 75.3209 43.5496 75.3669 43.5096 75.4149C43.4736 75.4589 43.4376 75.5029 43.4016 75.5469C43.5416 75.4949 43.6876 75.4549 43.8396 75.4269C43.9956 75.3989 44.1616 75.3849 44.3376 75.3849ZM42.3936 78.1389C42.3936 78.3549 42.4196 78.5489 42.4716 78.7209C42.5236 78.8929 42.6036 79.0409 42.7116 79.1649C42.8196 79.2889 42.9556 79.3849 43.1196 79.4529C43.2836 79.5169 43.4776 79.5489 43.7016 79.5489C43.8936 79.5489 44.0716 79.5129 44.2356 79.4409C44.4036 79.3689 44.5476 79.2709 44.6676 79.1469C44.7876 79.0189 44.8816 78.8709 44.9496 78.7029C45.0216 78.5309 45.0576 78.3449 45.0576 78.1449C45.0576 77.9209 45.0236 77.7209 44.9556 77.5449C44.8916 77.3689 44.7996 77.2209 44.6796 77.1009C44.5596 76.9809 44.4136 76.8889 44.2416 76.8249C44.0736 76.7609 43.8856 76.7289 43.6776 76.7289C43.4896 76.7289 43.3176 76.7629 43.1616 76.8309C43.0056 76.8949 42.8696 76.9889 42.7536 77.1129C42.6416 77.2369 42.5536 77.3849 42.4896 77.5569C42.4256 77.7289 42.3936 77.9229 42.3936 78.1389Z" fill="black"/>
<path d="M100.169 53.6577H101.069V54.7017C101.069 54.7937 101.037 54.8737 100.973 54.9417C100.913 55.0097 100.825 55.0437 100.709 55.0437H100.169V57.0537H98.5492V55.0437H95.0332C94.9172 55.0437 94.8112 55.0077 94.7152 54.9357C94.6232 54.8637 94.5652 54.7737 94.5412 54.6657L94.3492 53.7477L98.3932 48.3117H100.169V53.6577ZM98.5492 51.3777C98.5492 51.2377 98.5532 51.0877 98.5612 50.9277C98.5732 50.7637 98.5892 50.5957 98.6092 50.4237L96.2992 53.6577H98.5492V51.3777Z" fill="black"/>
<path d="M97.7872 81.0189C97.3592 81.0189 96.9672 80.9629 96.6112 80.8509C96.2552 80.7349 95.9492 80.5709 95.6932 80.3589C95.4372 80.1469 95.2392 79.8909 95.0992 79.5909C94.9592 79.2869 94.8892 78.9469 94.8892 78.5709C94.8892 78.0189 95.0332 77.5649 95.3212 77.2089C95.6092 76.8489 96.0212 76.5929 96.5572 76.4409C96.1052 76.2729 95.7632 76.0229 95.5312 75.6909C95.3032 75.3549 95.1892 74.9549 95.1892 74.4909C95.1892 74.1749 95.2512 73.8789 95.3752 73.6029C95.4992 73.3269 95.6752 73.0869 95.9032 72.8829C96.1312 72.6789 96.4032 72.5189 96.7192 72.4029C97.0392 72.2869 97.3952 72.2289 97.7872 72.2289C98.1752 72.2289 98.5292 72.2869 98.8492 72.4029C99.1692 72.5189 99.4432 72.6789 99.6712 72.8829C99.8992 73.0869 100.075 73.3269 100.199 73.6029C100.323 73.8789 100.385 74.1749 100.385 74.4909C100.385 74.9549 100.269 75.3549 100.037 75.6909C99.8052 76.0229 99.4652 76.2729 99.0172 76.4409C99.5532 76.5929 99.9652 76.8489 100.253 77.2089C100.541 77.5649 100.685 78.0189 100.685 78.5709C100.685 78.9469 100.613 79.2869 100.469 79.5909C100.329 79.8909 100.131 80.1469 99.8752 80.3589C99.6232 80.5709 99.3192 80.7349 98.9632 80.8509C98.6072 80.9629 98.2152 81.0189 97.7872 81.0189ZM97.7872 80.1669C98.0672 80.1669 98.3172 80.1289 98.5372 80.0529C98.7612 79.9729 98.9492 79.8629 99.1012 79.7229C99.2572 79.5789 99.3752 79.4089 99.4552 79.2129C99.5392 79.0129 99.5812 78.7929 99.5812 78.5529C99.5812 78.2569 99.5312 78.0049 99.4312 77.7969C99.3352 77.5849 99.2032 77.4129 99.0352 77.2809C98.8712 77.1489 98.6812 77.0529 98.4652 76.9929C98.2492 76.9289 98.0232 76.8969 97.7872 76.8969C97.5512 76.8969 97.3252 76.9289 97.1092 76.9929C96.8932 77.0529 96.7012 77.1489 96.5332 77.2809C96.3692 77.4129 96.2372 77.5849 96.1372 77.7969C96.0412 78.0049 95.9932 78.2569 95.9932 78.5529C95.9932 78.7929 96.0332 79.0129 96.1132 79.2129C96.1972 79.4089 96.3152 79.5789 96.4672 79.7229C96.6232 79.8629 96.8112 79.9729 97.0312 80.0529C97.2552 80.1289 97.5072 80.1669 97.7872 80.1669ZM97.7872 76.0389C98.0672 76.0389 98.3052 75.9969 98.5012 75.9129C98.7012 75.8249 98.8632 75.7109 98.9872 75.5709C99.1112 75.4269 99.2012 75.2629 99.2572 75.0789C99.3132 74.8949 99.3412 74.7049 99.3412 74.5089C99.3412 74.3089 99.3072 74.1209 99.2392 73.9449C99.1752 73.7689 99.0772 73.6149 98.9452 73.4829C98.8172 73.3509 98.6552 73.2469 98.4592 73.1709C98.2672 73.0949 98.0432 73.0569 97.7872 73.0569C97.5312 73.0569 97.3052 73.0949 97.1092 73.1709C96.9172 73.2469 96.7552 73.3509 96.6232 73.4829C96.4952 73.6149 96.3972 73.7689 96.3292 73.9449C96.2652 74.1209 96.2332 74.3089 96.2332 74.5089C96.2332 74.7049 96.2612 74.8949 96.3172 75.0789C96.3732 75.2629 96.4632 75.4269 96.5872 75.5709C96.7112 75.7109 96.8712 75.8249 97.0672 75.9129C97.2672 75.9969 97.5072 76.0389 97.7872 76.0389Z" fill="#B6B6B6"/>
<path d="M74.0008 72.3249V72.8049C74.0008 72.9409 73.9848 73.0529 73.9528 73.1409C73.9248 73.2289 73.8948 73.3029 73.8628 73.3629L70.3048 80.5449C70.2528 80.6489 70.1808 80.7389 70.0888 80.8149C69.9968 80.8869 69.8728 80.9229 69.7168 80.9229H68.9548L72.5668 73.8309C72.6188 73.7309 72.6708 73.6389 72.7228 73.5549C72.7788 73.4709 72.8408 73.3909 72.9088 73.3149H68.4208C68.3528 73.3149 68.2908 73.2889 68.2348 73.2369C68.1828 73.1809 68.1568 73.1189 68.1568 73.0509V72.3249H74.0008Z" fill="#B6B6B6"/>
<path d="M38.4511 102.452H40.2991V96.5901C40.2991 96.4141 40.3051 96.2361 40.3171 96.0561L38.7811 97.3701C38.7411 97.4021 38.7011 97.4261 38.6611 97.4421C38.6211 97.4541 38.5831 97.4601 38.5471 97.4601C38.4871 97.4601 38.4331 97.4481 38.3851 97.4241C38.3371 97.3961 38.3011 97.3641 38.2771 97.3281L37.9411 96.8661L40.4971 94.6521H41.3671V102.452H43.0591V103.268H38.4511V102.452ZM50.29 98.9721C50.29 99.7241 50.208 100.376 50.044 100.928C49.884 101.476 49.664 101.93 49.384 102.29C49.104 102.65 48.772 102.918 48.388 103.094C48.008 103.27 47.6 103.358 47.164 103.358C46.724 103.358 46.314 103.27 45.934 103.094C45.558 102.918 45.23 102.65 44.95 102.29C44.67 101.93 44.45 101.476 44.29 100.928C44.13 100.376 44.05 99.7241 44.05 98.9721C44.05 98.2201 44.13 97.5681 44.29 97.0161C44.45 96.4641 44.67 96.0081 44.95 95.6481C45.23 95.2841 45.558 95.0141 45.934 94.8381C46.314 94.6621 46.724 94.5741 47.164 94.5741C47.6 94.5741 48.008 94.6621 48.388 94.8381C48.772 95.0141 49.104 95.2841 49.384 95.6481C49.664 96.0081 49.884 96.4641 50.044 97.0161C50.208 97.5681 50.29 98.2201 50.29 98.9721ZM49.18 98.9721C49.18 98.3161 49.124 97.7661 49.012 97.3221C48.904 96.8741 48.756 96.5141 48.568 96.2421C48.384 95.9701 48.17 95.7761 47.926 95.6601C47.682 95.5401 47.428 95.4801 47.164 95.4801C46.9 95.4801 46.646 95.5401 46.402 95.6601C46.158 95.7761 45.944 95.9701 45.76 96.2421C45.576 96.5141 45.428 96.8741 45.316 97.3221C45.208 97.7661 45.154 98.3161 45.154 98.9721C45.154 99.6281 45.208 100.178 45.316 100.622C45.428 101.066 45.576 101.424 45.76 101.696C45.944 101.968 46.158 102.164 46.402 102.284C46.646 102.4 46.9 102.458 47.164 102.458C47.428 102.458 47.682 102.4 47.926 102.284C48.17 102.164 48.384 101.968 48.568 101.696C48.756 101.424 48.904 101.066 49.012 100.622C49.124 100.178 49.18 99.6281 49.18 98.9721Z" fill="#B6B6B6"/>
<line x1="30.9756" y1="42.9341" x2="30.9756" y2="108.998" stroke="#647179" stroke-linecap="round" stroke-dasharray="1 2"/>
<line x1="57.5298" y1="42.9341" x2="57.5298" y2="108.998" stroke="#647179" stroke-linecap="round" stroke-dasharray="1 2"/>
<line x1="84.084" y1="42.9341" x2="84.084" y2="108.998" stroke="#647179" stroke-linecap="round" stroke-dasharray="1 2"/>
<line x1="7.22461" y1="65.7983" x2="109.546" y2="65.7983" stroke="#647179" stroke-linecap="round" stroke-dasharray="1 2"/>
<line x1="7.22461" y1="88.7681" x2="109.546" y2="88.7681" stroke="#647179" stroke-linecap="round" stroke-dasharray="1 2"/>
<path d="M65.7384 102.452H67.5864V96.5901C67.5864 96.4141 67.5924 96.2361 67.6044 96.0561L66.0684 97.3701C66.0284 97.4021 65.9884 97.4261 65.9484 97.4421C65.9084 97.4541 65.8704 97.4601 65.8344 97.4601C65.7744 97.4601 65.7204 97.4481 65.6724 97.4241C65.6244 97.3961 65.5884 97.3641 65.5644 97.3281L65.2284 96.8661L67.7844 94.6521H68.6544V102.452H70.3464V103.268H65.7384V102.452ZM72.6994 102.452H74.5474V96.5901C74.5474 96.4141 74.5534 96.2361 74.5654 96.0561L73.0294 97.3701C72.9894 97.4021 72.9494 97.4261 72.9094 97.4421C72.8694 97.4541 72.8314 97.4601 72.7954 97.4601C72.7354 97.4601 72.6814 97.4481 72.6334 97.4241C72.5854 97.3961 72.5494 97.3641 72.5254 97.3281L72.1894 96.8661L74.7454 94.6521H75.6154V102.452H77.3074V103.268H72.6994V102.452Z" fill="#B6B6B6"/>
<path d="M92.5548 102.452H94.4028V96.5901C94.4028 96.4141 94.4088 96.2361 94.4208 96.0561L92.8848 97.3701C92.8448 97.4021 92.8048 97.4261 92.7648 97.4421C92.7248 97.4541 92.6868 97.4601 92.6508 97.4601C92.5908 97.4601 92.5368 97.4481 92.4888 97.4241C92.4408 97.3961 92.4048 97.3641 92.3808 97.3281L92.0448 96.8661L94.6008 94.6521H95.4708V102.452H97.1628V103.268H92.5548V102.452ZM101.4 94.5741C101.764 94.5741 102.104 94.6281 102.42 94.7361C102.736 94.8441 103.008 95.0021 103.236 95.2101C103.468 95.4141 103.65 95.6641 103.782 95.9601C103.914 96.2561 103.98 96.5921 103.98 96.9681C103.98 97.2881 103.932 97.5841 103.836 97.8561C103.74 98.1281 103.61 98.3901 103.446 98.6421C103.282 98.8901 103.092 99.1321 102.876 99.3681C102.664 99.6001 102.438 99.8381 102.198 100.082L99.9357 102.398C100.096 102.354 100.258 102.32 100.422 102.296C100.586 102.268 100.744 102.254 100.896 102.254H103.776C103.892 102.254 103.984 102.288 104.052 102.356C104.12 102.424 104.154 102.512 104.154 102.62V103.268H98.4177V102.902C98.4177 102.826 98.4317 102.748 98.4597 102.668C98.4917 102.588 98.5417 102.514 98.6097 102.446L101.364 99.6801C101.592 99.4481 101.8 99.2261 101.988 99.0141C102.176 98.7981 102.336 98.5821 102.468 98.3661C102.604 98.1501 102.708 97.9321 102.78 97.7121C102.852 97.4881 102.888 97.2501 102.888 96.9981C102.888 96.7461 102.848 96.5261 102.768 96.3381C102.688 96.1461 102.578 95.9881 102.438 95.8641C102.298 95.7401 102.134 95.6481 101.946 95.5881C101.758 95.5241 101.556 95.4921 101.34 95.4921C101.124 95.4921 100.924 95.5241 100.74 95.5881C100.556 95.6521 100.392 95.7421 100.248 95.8581C100.108 95.9701 99.9877 96.1041 99.8877 96.2601C99.7917 96.4161 99.7237 96.5881 99.6837 96.7761C99.6517 96.8921 99.6037 96.9761 99.5397 97.0281C99.4757 97.0801 99.3917 97.1061 99.2877 97.1061C99.2677 97.1061 99.2457 97.1061 99.2217 97.1061C99.2017 97.1021 99.1777 97.0981 99.1497 97.0941L98.5917 96.9981C98.6477 96.6061 98.7557 96.2601 98.9157 95.9601C99.0757 95.6561 99.2777 95.4021 99.5217 95.1981C99.7697 94.9941 100.052 94.8401 100.368 94.7361C100.688 94.6281 101.032 94.5741 101.4 94.5741Z" fill="#B6B6B6"/>
<line x1="1.27637" y1="37.8265" x2="115.494" y2="37.8265" stroke="black" stroke-width="2.58381"/>
</svg>
